<svg width="24" height="24" xmlns="http://www.w3.org/2000/svg"><defs><radialGradient cx="86.85%" cy="30.027%" fx="86.85%" fy="30.027%" r="241.262%" gradientTransform="matrix(1 0 0 .36288 0 .191)" id="a"><stop stop-color="#FFEA00" offset="4.5%"/><stop stop-color="#FFDE00" offset="12%"/><stop stop-color="#FFBF00" offset="25.4%"/><stop stop-color="#FF8E00" offset="42.9%"/><stop stop-color="#FF272D" offset="76.9%"/><stop stop-color="#E0255A" offset="87.2%"/><stop stop-color="#CC2477" offset="95.3%"/><stop stop-color="#C42482" offset="100%"/></radialGradient><radialGradient cx="70.828%" cy="12.393%" fx="70.828%" fy="12.393%" r="112.63%" gradientTransform="matrix(1 0 0 .9947 0 0)" id="b"><stop stop-color="#00CCDA" offset="0%"/><stop stop-color="#0083FF" offset="22%"/><stop stop-color="#007AF9" offset="26.1%"/><stop stop-color="#0060E8" offset="33%"/><stop stop-color="#005FE7" offset="33.3%"/><stop stop-color="#2639AD" offset="43.8%"/><stop stop-color="#401E84" offset="52.2%"/><stop stop-color="#4A1475" offset="100%"/></radialGradient><linearGradient x1="57.339%" y1="75.22%" x2="35.146%" y2="6.805%" id="c"><stop stop-color="#000F43" stop-opacity=".4" offset="0%"/><stop stop-color="#001962" stop-opacity=".173" offset="48.5%"/><stop stop-color="#002079" stop-opacity="0" offset="100%"/></linearGradient><radialGradient cx="147.727%" cy="-21.664%" fx="147.727%" fy="-21.664%" r="140.236%" gradientTransform="matrix(.92332 0 0 1 .113 0)" id="d"><stop stop-color="#FFEA00" offset=".3%"/><stop stop-color="#FF272D" offset="49.7%"/><stop stop-color="#C42482" offset="100%"/></radialGradient><radialGradient cx="135.976%" cy="-52.131%" fx="135.976%" fy="-52.131%" r="370.47%" gradientTransform="matrix(1 0 0 .54148 0 -.239)" id="e"><stop stop-color="#FFE900" offset=".3%"/><stop stop-color="#FFAF0E" offset="15.7%"/><stop stop-color="#FF7A1B" offset="31.6%"/><stop stop-color="#FF4E26" offset="47.2%"/><stop stop-color="#FF2C2E" offset="62.1%"/><stop stop-color="#FF1434" offset="76.2%"/><stop stop-color="#FF0538" offset="89.2%"/><stop stop-color="#FF0039" offset="100%"/></radialGradient><radialGradient cx="211.883%" cy="2.145%" fx="211.883%" fy="2.145%" r="308.148%" gradientTransform="matrix(.53347 0 0 1 .988 0)" id="f"><stop stop-color="#FF272D" offset=".3%"/><stop stop-color="#C42482" offset="49.7%"/><stop stop-color="#620700" offset="98.6%"/></radialGradient><radialGradient cx="62.795%" cy="45.711%" fx="62.795%" fy="45.711%" r="70.89%" gradientTransform="matrix(1 0 0 .95947 0 .019)" id="g"><stop stop-color="#FFEA00" offset="0%"/><stop stop-color="#FFDE00" offset="23.1%"/><stop stop-color="#FFBF00" offset="36.5%"/><stop stop-color="#FF8E00" offset="54.1%"/><stop stop-color="#FF272D" offset="76.3%"/><stop stop-color="#F92433" offset="79.6%"/><stop stop-color="#E91C45" offset="84.1%"/><stop stop-color="#CF0E62" offset="89.3%"/><stop stop-color="#B5007F" offset="100%"/></radialGradient><radialGradient cx="24.953%" cy=".138%" fx="24.953%" fy=".138%" r="249.815%" gradientTransform="matrix(1 0 0 .39648 0 0)" id="h"><stop stop-color="#FFEA00" offset="27.9%"/><stop stop-color="#FD0" offset="40.2%"/><stop stop-color="#FFBA00" offset="63%"/><stop stop-color="#FF9100" offset="85.6%"/><stop stop-color="#FF6711" offset="93.3%"/><stop stop-color="#FF4A1D" offset="99.4%"/></radialGradient><linearGradient x1="-121.603%" y1="64.455%" x2="142.342%" y2="29.666%" id="i"><stop stop-color="#C42482" stop-opacity=".5" offset="0%"/><stop stop-color="#FF272D" stop-opacity=".5" offset="47.4%"/><stop stop-color="#FF2C2C" stop-opacity=".513" offset="48.6%"/><stop stop-color="#FF7A1A" stop-opacity=".72" offset="67.5%"/><stop stop-color="#FFB20D" stop-opacity=".871" offset="82.9%"/><stop stop-color="#FFD605" stop-opacity=".964" offset="94.2%"/><stop stop-color="#FFE302" offset="100%"/></linearGradient><linearGradient x1="56.498%" y1="94.893%" x2="19.49%" y2="5.478%" id="j"><stop stop-color="#891551" stop-opacity=".6" offset="0%"/><stop stop-color="#C42482" stop-opacity="0" offset="100%"/></linearGradient><linearGradient x1="8.04%" y1="6.686%" x2="47.914%" y2="47.886%" id="k"><stop stop-color="#891551" stop-opacity=".5" offset=".5%"/><stop stop-color="#FF272D" stop-opacity=".5" offset="48.4%"/><stop stop-color="#FF272D" stop-opacity="0" offset="100%"/></linearGradient><linearGradient x1="47.509%" y1="102.675%" x2="50.009%" y2="31.749%" id="l"><stop stop-color="#C42482" offset="0%"/><stop stop-color="#C42482" stop-opacity=".81" offset="8.3%"/><stop stop-color="#C42482" stop-opacity=".565" offset="20.6%"/><stop stop-color="#C42482" stop-opacity=".362" offset="32.8%"/><stop stop-color="#C42482" stop-opacity=".204" offset="44.7%"/><stop stop-color="#C42482" stop-opacity=".091" offset="56.2%"/><stop stop-color="#C42482" stop-opacity=".023" offset="67.3%"/><stop stop-color="#C42482" stop-opacity="0" offset="77.3%"/></linearGradient><linearGradient x1="6.334%" y1="1.647%" x2="92.351%" y2="89.461%" id="m"><stop stop-color="#FFF14F" offset="0%"/><stop stop-color="#FFEE4C" offset="26.8%"/><stop stop-color="#FFE643" offset="45.2%"/><stop stop-color="#FFD834" offset="61.2%"/><stop stop-color="#FFC41E" offset="75.7%"/><stop stop-color="#FFAB02" offset="89.2%"/><stop stop-color="#FFA900" offset="90.2%"/><stop stop-color="#FFA000" offset="94.9%"/><stop stop-color="#FF9100" offset="100%"/></linearGradient><linearGradient x1="71.789%" y1="7.159%" x2="42.746%" y2="81.948%" id="n"><stop stop-color="#FF8E00" offset="0%"/><stop stop-color="#FF8E00" stop-opacity=".858" offset="4%"/><stop stop-color="#FF8E00" stop-opacity=".729" offset="8.4%"/><stop stop-color="#FF8E00" stop-opacity=".628" offset="13%"/><stop stop-color="#FF8E00" stop-opacity=".557" offset="17.8%"/><stop stop-color="#FF8E00" stop-opacity=".514" offset="22.7%"/><stop stop-color="#FF8E00" stop-opacity=".5" offset="28.2%"/><stop stop-color="#FF8E00" stop-opacity=".478" offset="38.9%"/><stop stop-color="#FF8E00" stop-opacity=".416" offset="52.4%"/><stop stop-color="#FF8E00" stop-opacity=".314" offset="67.6%"/><stop stop-color="#FF8E00" stop-opacity=".172" offset="83.8%"/><stop stop-color="#FF8E00" stop-opacity="0" offset="100%"/></linearGradient></defs><g fill-rule="nonzero" fill="none"><path d="M15.656 1.86c-.487.568-.713 1.843-.22 3.136.494 1.293 1.25 1.012 1.722 2.331.622 1.74.333 4.077.333 4.077s.748 2.167 1.27-.135c1.153-4.323-3.105-8.343-3.105-9.408z" fill="url(#a)" transform="translate(2.3 2)"/><path d="M9.717 19.81c4.984 0 9.022-4.06 9.022-9.066 0-5.006-4.038-9.065-9.017-9.065-4.98 0-9.018 4.06-9.018 9.065-.01 5.01 4.033 9.066 9.013 9.066z" fill="url(#b)" transform="translate(2.3 2)"/><path d="M16.477 16.334c-.195.138-.4.261-.612.37.282-.413.541-.84.778-1.28.193-.213.369-.42.512-.643a6 6 0 0 0 .232-.403c.507-.913 1.065-2.39 1.081-3.907v-.003-.112c.003-.381-.036-.761-.116-1.134l.012.088-.013-.068.02.122c.103.878.03 1.735-.34 2.367l-.017.027c.191-.96.255-2.02.042-3.082 0 0-.085-.516-.719-2.082-.365-.901-1.013-1.64-1.585-2.179-.502-.62-.958-1.037-1.21-1.302-.524-.552-.744-.967-.834-1.237-.079-.04-1.08-1.012-1.16-1.05-.437.679-1.812 2.799-1.158 4.78.297.898 1.046 1.83 1.83 2.352.035.04.468.51.673 1.569.213 1.094.1 1.948-.336 3.21-.514 1.108-1.83 2.204-3.064 2.316-2.635.24-3.6-1.324-3.6-1.324.942.377 1.983.298 2.616-.092.638-.395 1.024-.688 1.338-.572.309.115.555-.219.334-.565a1.596 1.596 0 0 0-1.614-.702c-.639.103-1.224.61-2.061.12a1.738 1.738 0 0 1-.157-.104c-.055-.036.18.056.124.014a4.092 4.092 0 0 1-.526-.35c-.012-.01.127.045.114.033-.782-.644-.685-1.08-.66-1.353.02-.218.162-.498.401-.612.116.063.188.112.188.112l-.076-.154c.01-.004.019-.003.028-.007.095.046.304.164.415.237a.61.61 0 0 1 .19.192s.037-.021.009-.11a.568.568 0 0 0-.196-.267h.009c.085.05.166.105.241.168.04-.146.112-.298.096-.57-.01-.193-.005-.242-.039-.316-.03-.064.017-.089.07-.023a.667.667 0 0 0-.045-.15v-.005c.066-.228 1.388-.822 1.484-.892.158-.112.29-.256.389-.422.073-.118.128-.282.142-.531.007-.18-.076-.3-1.413-.44-.365-.036-.58-.3-.702-.545a3.564 3.564 0 0 0-.067-.148 1.179 1.179 0 0 1-.052-.171 3.208 3.208 0 0 1 1.125-1.56c.03-.026-.117.008-.088-.019.034-.031.258-.121.3-.142.052-.024-.22-.14-.461-.112-.246.028-.298.057-.429.113.055-.055.227-.125.187-.125-.265.04-.593.194-.874.368 0-.03.005-.06.017-.088-.131.056-.453.28-.546.47a.901.901 0 0 0 .005-.11c-.1.084-.19.178-.268.282l-.005.004c-.76-.306-1.427-.326-1.993-.189-.123-.124-.184-.033-.465-.651-.02-.038.014.036 0 0-.047-.12.028.16 0 0-.474.373-1.096.796-1.395 1.095-.004.012.348-.1 0 0-.122.035-.114.107-.133.762-.004.05 0 .105-.004.15a4.199 4.199 0 0 0-.463.695c-.309.533-.649 1.362-.979 2.674.146-.355.321-.698.524-1.024-.274.696-.539 1.79-.592 3.474a9.83 9.83 0 0 1 .255-1.03 9.615 9.615 0 0 0 .706 4.087 9.97 9.97 0 0 0 1.037 1.94 9.166 9.166 0 0 0 6.664 2.863 9.175 9.175 0 0 0 6.88-3.097z" fill="url(#c)" transform="translate(2.3 2)"/><path d="M14.453 17.616c3.31-.383 4.776-3.795 2.894-3.862-1.7-.054-4.462 4.043-2.894 3.862z" fill="url(#d)" transform="translate(2.3 2)"/><path d="M17.586 13.057c2.277-1.325 1.683-4.188 1.683-4.188s-.879 1.02-1.476 2.649c-.59 1.611-1.577 2.34-.207 1.54z" fill="url(#e)" transform="translate(2.3 2)"/><path d="M10.355 19.31c3.176 1.013 5.905-1.488 4.222-2.323-1.53-.754-5.729 1.844-4.222 2.323z" fill="url(#f)" transform="translate(2.3 2)"/><path d="M17.822 14.273c.077-.109.182-.458.274-.614.56-.905.565-1.626.565-1.643.338-1.691.308-2.382.1-3.66-.168-1.028-.902-2.501-1.537-3.21-.654-.732-.193-.494-.827-1.028-.555-.615-1.094-1.225-1.387-1.47C12.89.876 12.938.5 12.98.435a2.457 2.457 0 0 0-.03.034c-.026-.1-.043-.184-.043-.184s-1.159 1.158-1.403 3.089c-.16 1.26.313 2.575.996 3.415.356.435.758.83 1.2 1.178.515.741.8 1.656.8 2.64a4.463 4.463 0 0 1-5.464 4.35c-1.163-.221-1.835-.808-2.17-1.207-.192-.228-.273-.395-.273-.395 1.042.374 2.194.296 2.895-.091.707-.392 1.134-.682 1.48-.568.343.114.615-.217.37-.56-.239-.342-.861-.832-1.785-.696-.708.103-1.355.605-2.282.119a1.958 1.958 0 0 1-.174-.102c-.06-.036.199.054.138.013-.18-.087-.5-.279-.582-.347-.014-.011.14.044.126.033-.866-.64-.758-1.071-.73-1.342a.778.778 0 0 1 .444-.607c.128.063.207.11.207.11s-.054-.1-.084-.152c.01-.004.02-.003.03-.007a5.6 5.6 0 0 1 .46.235c.159.1.21.19.21.19s.042-.02.01-.108a.567.567 0 0 0-.217-.266l.01.001c.094.048.183.104.267.167.045-.145.125-.296.107-.567-.01-.19-.006-.239-.043-.312-.034-.063.019-.088.077-.023a.61.61 0 0 0-.05-.149v-.005c.073-.226 1.536-.815 1.642-.884a1.43 1.43 0 0 0 .43-.42c.082-.116.143-.279.158-.526.005-.111-.03-.2-.417-.284-.232-.05-.592-.1-1.147-.151-.404-.036-.641-.299-.776-.541-.025-.052-.05-.1-.075-.147a1.08 1.08 0 0 1-.058-.17A3.22 3.22 0 0 1 8.48 3.652c.032-.026-.13.007-.098-.02.038-.03.286-.12.333-.14.057-.024-.245-.14-.511-.111-.272.027-.33.056-.474.111.06-.053.251-.124.206-.123-.293.04-.656.192-.967.365 0-.03.006-.06.018-.088-.144.055-.5.278-.604.467a.803.803 0 0 0 .006-.109c-.109.081-.209.175-.297.278l-.005.005c-.84-.303-1.58-.323-2.206-.187-.137-.123-.357-.31-.668-.923-.022-.037-.033.076-.05.04-.12-.28-.193-.74-.181-1.058 0 0-.25.114-.458.59-.038.086-.063.134-.088.181-.011.014.026-.157.02-.147-.036.06-.13.146-.17.256-.028.082-.068.128-.093.23l-.006.009c-.002-.03.008-.124 0-.104-.096.196-.18.398-.25.606a5.654 5.654 0 0 0-.261 1.516c-.005.049 0 .104-.005.148-.265.302-.445.558-.513.69C.817 6.662.44 7.484.075 8.786c.163-.356.357-.696.58-1.016C.352 8.46.06 9.545 0 11.215c.074-.345.168-.686.282-1.02a8.65 8.65 0 0 0 .781 4.052c.419.916 1.38 2.777 3.733 4.23 0 0 .8.595 2.174 1.042.102.037.205.073.31.108a2.043 2.043 0 0 1-.096-.042 9.855 9.855 0 0 0 2.821.415c3.561.003 4.611-1.427 4.611-1.427l-.01.008a2.72 2.72 0 0 0 .145-.148c-.562.53-1.844.566-2.323.528.817-.24 1.355-.443 2.402-.844.122-.046.247-.097.375-.155l.042-.02.076-.035c.51-.24.99-.54 1.428-.894 1.051-.84 1.28-1.658 1.4-2.197a3.023 3.023 0 0 1-.106.25c-.27.58-.87.934-1.522 1.239.31-.407.597-.83.861-1.269.213-.211.28-.541.438-.763z" fill="url(#g)" transform="translate(2.3 2)"/><path d="M16.543 16.28a6.733 6.733 0 0 0 1.105-1.625c.75-1.577 1.91-4.199.996-6.937-.722-2.165-1.713-3.348-2.971-4.504C13.629 1.337 13.059.498 13.059 0c0 0-2.36 2.63-1.337 5.374 1.024 2.743 3.12 2.642 4.506 5.505 1.632 3.369-1.32 7.045-3.761 8.074.15-.033 5.426-1.227 5.704-4.245-.007.055-.126.89-1.628 1.572z" fill="url(#h)" transform="translate(2.3 2)"/><path d="M9.707 6.491c.008-.178-.084-.298-1.558-.436-.607-.056-.84-.616-.91-.852-.216.56-.305 1.148-.257 1.859.033.466.346.966.496 1.26 0 0 .033-.044.048-.06.282-.293 1.462-.74 1.573-.804.122-.077.588-.417.608-.967z" fill="url(#i)" transform="translate(2.3 2)"/><path d="M3.218 3.18c-.021-.037-.033.077-.049.04a2.7 2.7 0 0 1-.177-1.057s-.25.114-.458.59c-.038.086-.063.133-.088.18-.011.014.026-.156.02-.147-.036.061-.129.147-.17.252-.033.086-.068.132-.093.24-.008.028.008-.13 0-.11-.481.931-.573 2.34-.522 2.28 1.026-1.096 2.201-1.355 2.201-1.355-.125-.092-.396-.359-.664-.913z" fill="url(#j)" transform="translate(2.3 2)"/><path d="M7.11 14.636c-1.417-.605-3.028-1.458-2.967-3.397.083-2.553 2.381-2.049 2.381-2.049-.087.022-.318.187-.4.363-.087.22-.246.717.234 1.237.754.817-1.549 1.939 2.006 4.057.09.048-.834-.03-1.253-.21z" fill="url(#k)" transform="translate(2.3 2)"/><path d="M6.607 13.364c1.005.35 2.176.288 2.877-.099.469-.261 1.07-.68 1.441-.576a2.518 2.518 0 0 0-.856-.2c-.05 0-.109-.002-.163-.007-.107 0-.214.005-.32.017-.181.017-.382.131-.564.113-.01-.001.177-.077.162-.073-.097.02-.202.024-.313.038-.07.008-.13.016-.2.02-2.094.177-3.863-1.135-3.863-1.135-.15.507.674 1.51 1.8 1.902z" fill="url(#l)" transform="translate(2.3 2)"/><path d="M16.54 16.294c2.117-2.079 3.188-4.606 2.735-7.44 0 0 .18 1.453-.505 2.94.33-1.451.368-3.255-.508-5.122-1.168-2.492-3.09-3.804-3.824-4.351-1.112-.83-1.572-1.673-1.58-1.847-.333.68-1.338 3.012-.109 5.02 1.151 1.881 2.965 2.44 4.235 4.165 2.338 3.18-.445 6.635-.445 6.635z" fill="url(#m)" transform="translate(2.3 2)"/><path d="M16.236 10.885c-.74-1.528-1.663-2.195-2.537-2.918.102.143.127.193.183.285.769.82 1.903 2.818 1.08 5.327-1.55 4.723-7.747 2.5-8.397 1.875.263 2.733 4.838 4.041 7.817 2.269 1.695-1.605 3.067-4.333 1.854-6.838z" fill="url(#n)" transform="translate(2.3 2)"/></g></svg>