<svg width="24" height="24" xmlns="http://www.w3.org/2000/svg"><g fill-rule="nonzero" fill="none"><path d="M14.894 3.317a1.782 1.782 0 0 0-2.227-1.138 1.782 1.782 0 0 0-1.139 2.228l4.57 14.048a1.763 1.763 0 0 0 2.146 1.09c.943-.277 1.512-1.269 1.203-2.18 0-.032-4.553-14.048-4.553-14.048z" fill="#ECB32D"/><path d="M7.821 5.61a1.782 1.782 0 0 0-2.228-1.138 1.782 1.782 0 0 0-1.138 2.227l4.57 14.049a1.763 1.763 0 0 0 2.146 1.09c.943-.277 1.512-1.269 1.203-2.18 0-.032-4.553-14.048-4.553-14.048z" fill="#63C1A0"/><path d="M20.65 14.943a1.782 1.782 0 0 0 1.139-2.228 1.782 1.782 0 0 0-2.228-1.138L5.496 16.163a1.763 1.763 0 0 0-1.09 2.146c.277.943 1.269 1.512 2.18 1.203.032 0 14.064-4.569 14.064-4.569z" fill="#E01A59"/><path d="M8.423 18.927c.91-.293 2.097-.683 3.366-1.09-.293-.91-.683-2.097-1.09-3.365L7.333 15.56l1.09 3.366z" fill="#331433"/><path d="M15.512 16.618c1.268-.407 2.455-.797 3.366-1.09-.293-.91-.683-2.097-1.09-3.365l-3.365 1.089 1.09 3.366z" fill="#D62027"/><path d="M18.341 7.87a1.782 1.782 0 0 0 1.139-2.228 1.782 1.782 0 0 0-2.228-1.138L3.203 9.074a1.763 1.763 0 0 0-1.09 2.146c.277.943 1.27 1.512 2.18 1.203.032 0 14.048-4.553 14.048-4.553z" fill="#89D3DF"/><path d="M6.13 11.837c.91-.292 2.098-.683 3.366-1.089-.407-1.268-.797-2.455-1.09-3.366l-3.365 1.09 1.09 3.365z" fill="#258B74"/><path d="M13.203 9.545c1.269-.407 2.456-.797 3.366-1.09-.406-1.268-.797-2.455-1.09-3.366l-3.365 1.09 1.09 3.366z" fill="#819C3C"/></g></svg>