<svg width="24" height="24" xmlns="http://www.w3.org/2000/svg"><g fill-rule="nonzero" fill="none"><g fill="#E01E5A"><path d="M6.258 14.613c0 1.145-.935 2.08-2.08 2.08a2.086 2.086 0 0 1-2.081-2.08c0-1.145.935-2.08 2.08-2.08h2.081v2.08zM7.306 14.613c0-1.145.936-2.08 2.081-2.08s2.08.935 2.08 2.08v5.21c0 1.145-.935 2.08-2.08 2.08a2.086 2.086 0 0 1-2.08-2.08v-5.21z"/></g><g fill="#36C5F0"><path d="M9.387 6.258a2.086 2.086 0 0 1-2.08-2.08c0-1.146.935-2.081 2.08-2.081s2.08.935 2.08 2.08v2.081h-2.08zM9.387 7.306c1.145 0 2.08.936 2.08 2.081s-.935 2.08-2.08 2.08h-5.21a2.086 2.086 0 0 1-2.08-2.08c0-1.145.935-2.08 2.08-2.08h5.21z"/></g><g fill="#2EB67D"><path d="M17.742 9.387c0-1.145.935-2.08 2.08-2.08 1.146 0 2.081.935 2.081 2.08s-.935 2.08-2.08 2.08h-2.081v-2.08zM16.694 9.387c0 1.145-.936 2.08-2.081 2.08a2.086 2.086 0 0 1-2.08-2.08v-5.21c0-1.145.935-2.08 2.08-2.08s2.08.935 2.08 2.08v5.21z"/></g><g fill="#ECB22E"><path d="M14.613 17.742c1.145 0 2.08.935 2.08 2.08 0 1.146-.935 2.081-2.08 2.081a2.086 2.086 0 0 1-2.08-2.08v-2.081h2.08zM14.613 16.694a2.086 2.086 0 0 1-2.08-2.081c0-1.145.935-2.08 2.08-2.08h5.21c1.145 0 2.08.935 2.08 2.08s-.935 2.08-2.08 2.08h-5.21z"/></g></g></svg>