<svg width="24" height="24" xmlns="http://www.w3.org/2000/svg"><path d="M19.453 7.745c-.14 6.502-4.219 11.025-10.406 11.308-2.531.141-4.36-.707-6.047-1.696 1.828.282 4.219-.424 5.484-1.555-1.828-.142-2.953-1.131-3.515-2.686.562.141 1.125 0 1.547 0-1.688-.565-2.813-1.555-2.954-3.816.422.282.985.424 1.547.424C3.844 9.017 3 6.33 3.984 4.635 5.812 6.614 8.062 8.31 11.72 8.593c-.985-3.958 4.36-6.078 6.469-3.392.984-.142 1.687-.566 2.39-.849-.281.99-.844 1.555-1.547 2.12.703-.14 1.407-.282 1.969-.565-.14.707-.844 1.272-1.547 1.838z" fill="#1DA1F2" fill-rule="evenodd"/></svg>