<?xml version="1.0" encoding="UTF-8"?>
<svg width="172px" height="185px" viewBox="0 0 172 185" version="1.1" xmlns="http://www.w3.org/2000/svg" xmlns:xlink="http://www.w3.org/1999/xlink">
    <!-- Generator: Sketch 56.2 (81672) - https://sketch.com -->
    <title>Bookmark/Empty/White</title>
    <desc>Created with Sketch.</desc>
    <defs>
        <linearGradient x1="0%" y1="34.5292969%" x2="50%" y2="65.4707031%" id="linearGradient-1">
            <stop stop-color="#FFA947" offset="0%"></stop>
            <stop stop-color="#CC6D00" offset="100%"></stop>
        </linearGradient>
        <linearGradient x1="100%" y1="100%" x2="0%" y2="6.24500451e-15%" id="linearGradient-2">
            <stop stop-color="#F58301" offset="0%"></stop>
            <stop stop-color="#F5CC03" offset="100%"></stop>
        </linearGradient>
        <linearGradient x1="100.400864%" y1="99.4165426%" x2="0%" y2="0%" id="linearGradient-3">
            <stop stop-color="#F58301" offset="0%"></stop>
            <stop stop-color="#F5CC03" offset="100%"></stop>
        </linearGradient>
    </defs>
    <g id="Bookmark/Empty/White" stroke="none" stroke-width="1" fill="none" fill-rule="evenodd">
        <g id="Illustration">
            <path d="M160,89 C160,86.790861 158.209139,85 156,85 L4,85 C1.790861,85 0,86.790861 0,89 L0,4 C0,1.790861 1.790861,0 4,0 L156,0 C158.209139,0 160,1.790861 160,4 L160,89 Z" id="Path" fill="url(#linearGradient-1)"></path>
            <g id="Sun" transform="translate(8.000000, 4.000000)" fill="url(#linearGradient-2)">
                <circle id="Oval" opacity="0.243629092" cx="72" cy="72" r="72"></circle>
                <circle id="Oval" opacity="0.48" cx="72" cy="72" r="56"></circle>
                <circle id="Oval" cx="72" cy="72" r="40"></circle>
            </g>
            <g id="cactus" transform="translate(0.000000, 32.000000)" fill="#E9EAEC">
                <path d="M40.1923398,45.44003 L50.9464706,44.2061466 C51.5039347,42.8633887 53.4864535,41.5724509 56.8940268,40.3333333 L55.6718046,31.7777778 L55.3670682,31.7777778 C50.4323871,31.7777778 46.2640838,28.1158078 45.6285532,23.2222222 L45.0290646,18.6061602 C45.0097084,18.4571174 45,18.30698 45,18.1566856 C45,16.2292014 46.5625347,14.6666667 48.4900189,14.6666667 C48.5996702,14.6666667 48.709265,14.671638 48.8184659,14.6815654 C50.8138247,14.8629616 52.2843318,16.6275702 52.1029356,18.622929 L51.6415839,23.6977974 C51.6305097,23.8196138 51.624964,23.9418697 51.624964,24.0641885 C51.624964,26.2992422 53.436833,28.1111111 55.6718866,28.1111111 L53.8493501,7.15194126 C53.8328622,6.96232981 53.8246066,6.77209241 53.8246066,6.58176544 C53.8246066,2.94675676 56.7713633,-4.55175376e-14 60.406372,-4.61852778e-14 C60.6323607,-4.62267913e-14 60.8581939,0.0118532139 61.0829409,0.0355107956 C64.6326988,0.409169513 67.2074358,3.58972703 66.8337771,7.13948484 L65.1408574,23.2222222 C65.2741241,23.2222222 65.4073081,23.2155796 65.5399135,23.2023191 C67.7438395,22.9819265 69.351811,21.0166279 69.1314184,18.8127019 L68.8062381,15.5608992 C68.7925223,15.4237414 68.7856517,15.2859853 68.7856517,15.1481435 C68.7856517,12.8571871 70.6428388,11 72.9337951,11 C73.1339849,11 73.3338825,11.0152868 73.5317444,11.0457271 C75.6782933,11.3759654 77.1507039,13.3837981 76.8204656,15.5303469 L76.2952199,18.9444444 C75.5920607,23.5149788 71.6593931,26.8888889 67.0350859,26.8888889 L65.1408574,26.8888889 L63.9186351,40.3333333 C66.2614787,40.801902 67.9306826,41.4051987 68.9262468,42.1432233 L77.182018,41.1959911 C79.5953335,40.9190975 81.7521178,39.5606931 83.044309,37.5037527 L91.226465,24.4792035 C93.5767783,20.7379193 98.5149938,19.6103146 102.256278,21.9606279 C102.751267,22.2715847 103.210682,22.6358575 103.626295,23.0469211 L116.050853,35.3354683 C119.110814,38.3619318 124.016783,38.4251448 127.153706,35.4785276 L128.303818,34.3981886 C131.524169,31.3732054 136.587012,31.5315819 139.611995,34.7519324 C139.761635,34.9112372 139.904684,35.0766074 140.040782,35.2476269 L150.984954,49 L156,49 C157.457149,49 158.823306,49.3895779 160,50.0702595 L160,57 L2.55795385e-13,57 L2.55795385e-13,50.070251 C1.17669175,49.3895776 2.54285051,49 4,49 L9.16478522,49 L27.7556883,46.8669586 C28.3956304,46.0397673 29.7295923,45.1952256 31.7575741,44.3333333 L30.8686852,35.1111111 L29.9659605,35.1111111 C26.3085221,35.1111111 23.1771428,32.4893722 22.5341994,28.8888889 L22.0543164,26.2015444 C22.046812,26.1595194 22.0400858,26.1173591 22.0341415,26.0750853 C21.7680346,24.1826322 23.0864486,22.4327736 24.9789017,22.1666667 C25.1894646,22.1370584 25.4026653,22.1309367 25.6145802,22.1484142 C27.1946354,22.2787281 28.3698831,23.6652562 28.2395692,25.2453114 L27.9107346,29.2324314 C27.904042,29.3135791 27.9006915,29.3949678 27.9006915,29.476391 C27.9006915,31.1156017 29.2295342,32.4444444 30.8687449,32.4444444 L29.6878964,20.8573683 C29.6696391,20.678219 29.6604928,20.498258 29.6604928,20.3181808 C29.6604928,17.3810307 32.0415235,15 34.9786736,15 C35.2109362,15 35.4429317,15.015745 35.6730645,15.0471268 C38.4854087,15.4306282 40.4543748,18.021373 40.0708733,20.8337172 L36.8663802,44.3333333 C38.3429539,44.6286481 39.4516071,44.997547 40.1923398,45.44003 Z"></path>
            </g>
        </g>
        <g id="Crad" transform="translate(0.000000, 85.000000)">
            <path d="M148,48 C132.536027,48 120,60.536027 120,76 C120,80.2943892 120.966764,84.3629785 122.694525,88 L4,88 C1.790861,88 0,86.209139 0,84 L0,4 C0,1.790861 1.790861,0 4,0 L156,0 C158.209138,0 160,1.790861 160,4 L160,50.6945169 C156.362979,48.9667643 152.294389,48 148,48 Z" id="Path" fill="#FFFFFF"></path>
            <path d="M125.018757,60 C124.138888,61.2614196 123.360221,62.5986756 122.694525,64 L3.41060513e-13,64 L3.41060513e-13,60 L125.018757,60 Z M26,16 L134,16 C135.104569,16 136,16.8954305 136,18 L136,22 C136,23.1045695 135.104569,24 134,24 L26,24 C24.8954305,24 24,23.1045695 24,22 L24,18 C24,16.8954305 24.8954305,16 26,16 Z M58,32 L102,32 C103.104569,32 104,32.8954305 104,34 L104,38 C104,39.1045695 103.104569,40 102,40 L58,40 C56.8954305,40 56,39.1045695 56,38 L56,34 C56,32.8954305 56.8954305,32 58,32 Z M10,72 L14,72 C15.1045695,72 16,72.8954305 16,74 L16,78 C16,79.1045695 15.1045695,80 14,80 L10,80 C8.8954305,80 8,79.1045695 8,78 L8,74 C8,72.8954305 8.8954305,72 10,72 Z M25,72 L53,72 C54.1045695,72 55,72.8954305 55,74 L55,78 C55,79.1045695 54.1045695,80 53,80 L25,80 C23.8954305,80 23,79.1045695 23,78 L23,74 C23,72.8954305 23.8954305,72 25,72 Z" id="Combined-Shape" fill="#E9EAEC"></path>
        </g>
        <g id="Button" transform="translate(124.000000, 137.000000)">
            <circle id="Oval" fill="url(#linearGradient-3)" fill-rule="nonzero" cx="24" cy="24" r="24"></circle>
            <g id="Bookmark" transform="translate(8.000000, 8.000000)" fill="#FFFFFF">
                <path d="M10.4374822,5.33333333 L21.5609631,5.33333333 C22.9705298,5.33333333 24.1366463,6.43033587 24.2226603,7.83727579 L25.3305356,25.9589093 C25.3530031,26.326413 25.073296,26.6425471 24.7057923,26.6650146 C24.5495183,26.6745685 24.3948671,26.6288163 24.2689443,26.535777 L16.7915566,21.011033 C16.3206331,20.6630864 15.6778121,20.6630864 15.2068886,21.011033 L7.72950097,26.535777 C7.43337324,26.754574 7.01594428,26.6918851 6.79714729,26.3957573 C6.70410798,26.2698346 6.65835579,26.1151833 6.66790968,25.9589093 L7.77578497,7.83727579 C7.86179896,6.43033587 9.02791544,5.33333333 10.4374822,5.33333333 Z" id="Mask"></path>
            </g>
        </g>
    </g>
</svg>