<svg width="427" height="268" xmlns="http://www.w3.org/2000/svg"><defs><linearGradient x1="104.702%" y1="40.31%" x2="0%" y2="50%" id="a"><stop stop-color="#FFF" offset="0%"/><stop stop-color="#A9ABB3" stop-opacity="0" offset="100%"/></linearGradient><linearGradient x1="167.695%" y1="50%" x2="0%" y2="50%" id="b"><stop stop-color="#FFF" offset="0%"/><stop stop-color="#A9ABB3" stop-opacity="0" offset="100%"/></linearGradient><linearGradient x1="100%" y1="50%" x2="0%" y2="50%" id="c"><stop stop-color="#FFF" offset="0%"/><stop stop-color="#A9ABB3" stop-opacity="0" offset="100%"/></linearGradient><linearGradient x1="100%" y1="50%" x2="0%" y2="50%" id="d"><stop stop-color="#FFF" offset="0%"/><stop stop-color="#A9ABB3" stop-opacity="0" offset="100%"/></linearGradient><linearGradient x1="100%" y1="50%" x2="-13.965%" y2="50%" id="e"><stop stop-color="#FFF" offset="0%"/><stop stop-color="#A9ABB3" stop-opacity="0" offset="100%"/></linearGradient></defs><g fill="none" fill-rule="evenodd"><g opacity=".4" style="mix-blend-mode:overlay"><path fill="url(#a)" d="M426.69 0l.31.073v12.321L0 174.832v-78.42L260.094 0z"/><path fill="url(#b)" d="M427 147.477L182 240.68v-78.594l245-90.818z"/></g><path d="M278.02 152.617a3.658 3.658 0 0 1-6.6.588 16.67 16.67 0 0 1-1.433-3.196l-10.826 2.5a17.366 17.366 0 0 1-19.562-9.404l-.194-.404 2.616-.603a20.477 20.477 0 0 1-17.06-9.794l7.459-1.722a24.63 24.63 0 0 1-20.823-9.226c38.4-8.864 57.628-13.302 57.684-13.312 2.705-.887 5.544-1.22 8.3-.862 8.35 1.084 12.996 8.126 11.069 16.178l.018.002-10.648 29.255z" fill="#FFF" fill-rule="nonzero"/><g fill-rule="nonzero"><path fill="#25282C" d="M209 150l72 18-60 19-31.5-7-15.75-3.5L158 173z"/><path d="M218.61 174.063l-21.235 7.687-15.75-3.5 20.39-8.063-24.89-5.812 12.75-5.75 25.734 6.188L236 156.75l18 4.5-21.234 7.688 25.734 6.187-15 4.75-24.89-5.813z" fill="#1C1E21"/><path fill="#393C42" d="M159 104l50-26v72l-51 23z"/><path fill="#303237" d="M177.75 94.25l12.5-6.5-.375 70.875-12.75 5.75z"/><path fill="#5F646D" d="M209 78l72 21v69l-72-18z"/><path fill="#393C42" opacity=".4" d="M236 86l18 5.25v70.125l-18-4.5z"/></g><path d="M182.02 142.617a3.658 3.658 0 0 1-6.6.588c-.593-1.02-1.072-4.093-1.433-5.196l-10.826 2.5c-7.918 1.828-16.044-.079-19.562-7.404l3.422-1.007c-6.871-.138-14.359-3.739-18.06-9.794l7.459-1.722a24.63 24.63 0 0 1-20.823-9.226c38.4-8.864 57.628-13.302 57.684-13.312 2.705-.887 5.544-1.22 8.3-.862 8.35 1.084 12.996 8.126 11.069 16.178l.018.002-10.648 29.255z" fill="#FFF" fill-rule="nonzero"/><path d="M235.091 127.479c-.98.761-2.566.303-3.545-1.024l-1.773-2.403c-6.364-8.627-6.364-19.633 0-24.582 6.364-4.95 16.681-1.97 23.045 6.657l1.773 2.403c.979 1.328.979 3.02 0 3.782l-1.773 1.379c-.979.761-2.566.303-3.545-1.024l-1.773-2.403c-3.427-4.645-8.982-6.25-12.409-3.585-3.427 2.665-3.427 8.591 0 13.236l1.773 2.403c.979 1.327.979 3.02 0 3.782l-1.773 1.379zm5.318 10.99c-.979-1.327-.979-3.02 0-3.781l1.773-1.379c.979-.761 2.566-.303 3.545 1.024l1.773 2.403c3.427 4.645 8.982 6.25 12.409 3.585 3.427-2.665 3.427-8.591 0-13.236l-1.773-2.403c-.979-1.327-.979-3.02 0-3.782l1.773-1.379c.98-.761 2.566-.303 3.545 1.024l1.773 2.403c6.364 8.627 6.364 19.633 0 24.582-6.364 4.95-16.681 1.97-23.045-6.657l-1.773-2.403zm0-24.581c1.469-1.142 3.85-.454 5.318 1.536l8.864 12.015c1.468 1.991 1.468 4.53 0 5.673-1.469 1.142-3.85.454-5.318-1.536l-8.864-12.015c-1.468-1.991-1.468-4.53 0-5.673z" fill="#FFF"/><g><path fill="url(#c)" opacity=".4" style="mix-blend-mode:overlay" d="M220.492 75.507L8 156.62H0v-32l167.229-67.162L158 61.62z" transform="translate(0 111.38)"/><path d="M0 58.174V42.15L115.595 0l.032.013a24.631 24.631 0 0 0 19.112 9.238l-2.559.93-3.219.743c.071.116.144.232.218.346L0 58.174z" fill="url(#d)" opacity=".2" style="mix-blend-mode:overlay" transform="translate(0 111.38)"/><path d="M0 105.935V90.284l156.291-60.551c2.228.145 4.558-.07 6.87-.604l10.826-2.5c.361 1.103.84 4.175 1.434 5.196a3.658 3.658 0 0 0 4.533 1.552l.046.205L0 105.935z" fill="url(#e)" opacity=".64" style="mix-blend-mode:overlay" transform="translate(0 111.38)"/></g><path d="M306.966 69.926c-4.06 1.207-9.394.467-13.008-1.84-3.608-2.298-5.203-5.973-3.883-8.92 2.521-5.764 11.538-7.428 18.75-3.324.59.336.88.272 1.262-.001 2.929-2.108 8.468-1.538 11.258.968 3.662 3.29 2.11 6.863-1.625 8.249-1.871.695-10.218 4.116-12.754 4.868zm-250.374 32.76c5.095-1.48 11.332-.006 15.112 3.52a8.243 8.243 0 0 1 1.001-.471c4.126-1.623 9.657-.237 12.356 3.095 2.666 3.292 1.57 7.253-2.436 8.913l-2.182.859-33.928 13.323c-2.189.62-4.893-.113-6.343-1.758l-.239-.295c-1.367-1.844-.69-4.01 1.569-4.898l.157-.06c-1.063-.659-2.006-1.463-2.762-2.397-3.204-3.957-1.83-8.727 3.068-10.654 2.429-.956 5.268-1.033 7.905-.386-.49-3.157 1.136-6.192 4.542-7.933l2.18-.858zm323.109 75.795l-27.715 10.02c-9.245 3.334-18.486 6.671-27.737 10-2.068.744-4.307 1.097-7.074.731-5.036-.666-9.11-3.042-10.255-6.157-1.09-2.964 1.352-5.75 5.822-6.401 1.32-.192 1.587-.47 1.196-1.373-2.419-5.598 2.72-10.246 11.51-10.382 1.584-.025 1.886-.258 1.608-1.286-1.516-5.603 1.28-9.773 8.678-11.956 7.374-2.175 15.238-1.278 22.951 2.559 1.29.641 1.846.487 2.741.001 3.787-2.057 8.492-2.346 13.867-.72 5.146 1.558 8.318 4.17 9.367 7.477 1.077 3.393-.763 5.94-4.96 7.487z" fill="#FFF"/></g></svg>