<?xml version="1.0" encoding="UTF-8"?>
<svg width="344px" height="293px" viewBox="0 0 344 293" version="1.1" xmlns="http://www.w3.org/2000/svg" xmlns:xlink="http://www.w3.org/1999/xlink">
    <!-- Generator: Sketch 53.2 (72643) - https://sketchapp.com -->
    <title>Onboarding/Tab</title>
    <desc>Created with Sketch.</desc>
    <defs>
        <linearGradient x1="100%" y1="50%" x2="-2.22044605e-14%" y2="50%" id="linearGradient-1">
            <stop stop-color="#0076F5" offset="0%"></stop>
            <stop stop-color="#00E4F5" offset="100%"></stop>
        </linearGradient>
        <linearGradient x1="-1.11022302e-14%" y1="50%" x2="100%" y2="50%" id="linearGradient-2">
            <stop stop-color="#4C5057" offset="0%"></stop>
            <stop stop-color="#303237" offset="100%"></stop>
        </linearGradient>
        <linearGradient x1="100%" y1="50%" x2="0%" y2="50%" id="linearGradient-3">
            <stop stop-color="#FF468E" offset="0%"></stop>
            <stop stop-color="#AD20FF" offset="100%"></stop>
        </linearGradient>
        <linearGradient x1="100%" y1="50%" x2="0%" y2="50%" id="linearGradient-4">
            <stop stop-color="#4C5057" offset="0%"></stop>
            <stop stop-color="#303237" offset="100%"></stop>
        </linearGradient>
    </defs>
    <g id="Onboarding/Tab" stroke="none" stroke-width="1" fill="none" fill-rule="evenodd">
        <g id="Tab" transform="translate(8.000000, 0.000000)">
            <g id="Window">
                <path d="M58.6666667,20 L16,20 C7.163444,20 -2.03586846e-13,27.163444 -2.0250468e-13,36 L-2.27373675e-13,277 C-2.26291509e-13,285.836556 7.163444,293 16,293 L312,293 C320.836556,293 328,285.836556 328,277 L328,36 C328,27.163444 320.836556,20 312,20 L184.333333,20 L177.535294,5.43277368 C176.13382,2.42961405 172.313106,0 168.998655,0 L74.0013448,0 C70.6850482,0 66.86491,2.43233563 65.4647056,5.43277368 L58.6666667,20 Z" id="window" fill="#303237"></path>
                <path d="M79,8.30761719 L80.25,8.30761719 L82.7109375,14.3085938 L82.7109375,8.30761719 L83.6630859,8.30761719 L83.6630859,15.5976562 L82.4130859,15.5976562 L79.9521484,9.59667969 L79.9521484,15.5976562 L79,15.5976562 L79,8.30761719 Z M90.0000559,12.6386719 L90.0000559,13.078125 L86.1084543,13.078125 L86.1084543,13.1074219 C86.1084543,13.703128 86.263889,14.1637354 86.5747629,14.4892578 C86.8856369,14.8147803 87.3242718,14.9775391 87.8906809,14.9775391 C88.1771406,14.9775391 88.4766168,14.9319666 88.7891184,14.8408203 C89.1016199,14.749674 89.4352755,14.6113291 89.7900949,14.4257812 L89.7900949,15.3193359 C89.4482964,15.4593106 89.1187098,15.56429 88.8013254,15.6342773 C88.483941,15.7042647 88.1771407,15.7392578 87.8809153,15.7392578 C87.0313016,15.7392578 86.3672458,15.4845403 85.8887278,14.9750977 C85.4102097,14.465655 85.1709543,13.7633508 85.1709543,12.8681641 C85.1709543,11.9957639 85.405327,11.2991562 85.8740793,10.7783203 C86.3428317,10.2574844 86.9678254,9.99707031 87.7490793,9.99707031 C88.4456974,9.99707031 88.9950083,10.2330706 89.3970285,10.7050781 C89.7990488,11.1770857 90.0000559,11.8216105 90.0000559,12.6386719 Z M89.1016184,12.375 C89.0885975,11.8476536 88.964087,11.4464532 88.7280832,11.1713867 C88.4920794,10.8963202 88.1527274,10.7587891 87.7100168,10.7587891 C87.2770719,10.7587891 86.9206302,10.9020168 86.6406809,11.1884766 C86.3607316,11.4749363 86.1947176,11.8720678 86.142634,12.3798828 L89.1016184,12.375 Z M90.8194477,10.1289062 L91.7081196,10.1289062 L92.660268,14.5478516 L93.441518,11.7255859 L94.2081196,11.7255859 L94.9991352,14.5478516 L95.9512836,10.1289062 L96.8399555,10.1289062 L95.5606586,15.5976562 L94.7012836,15.5976562 L93.8272602,12.5996094 L92.9581196,15.5976562 L92.0987446,15.5976562 L90.8194477,10.1289062 Z M103.547099,8.30761719 L109.108622,8.30761719 L109.108622,9.13769531 L106.828349,9.13769531 L106.828349,15.5976562 L105.837138,15.5976562 L105.837138,9.13769531 L103.547099,9.13769531 L103.547099,8.30761719 Z M113.834264,12.8486328 L112.696568,12.8486328 C112.172477,12.8486328 111.777787,12.9405915 111.512486,13.1245117 C111.247186,13.3084319 111.114537,13.5826805 111.114537,13.9472656 C111.114537,14.2760433 111.21382,14.5315746 111.412389,14.7138672 C111.610957,14.8961598 111.88602,14.9873047 112.237584,14.9873047 C112.732378,14.9873047 113.121372,14.8155942 113.404576,14.472168 C113.687781,14.1287418 113.831009,13.6542999 113.834264,13.0488281 L113.834264,12.8486328 Z M114.737584,12.4775391 L114.737584,15.5976562 L113.834264,15.5976562 L113.834264,14.7871094 C113.642205,15.1126318 113.400509,15.352701 113.109166,15.5073242 C112.817823,15.6619474 112.463823,15.7392578 112.047154,15.7392578 C111.490511,15.7392578 111.046179,15.5821956 110.714147,15.2680664 C110.382114,14.9539372 110.2161,14.5332058 110.2161,14.0058594 C110.2161,13.3971324 110.420362,12.9348974 110.828893,12.6191406 C111.237423,12.3033838 111.837189,12.1455078 112.628209,12.1455078 L113.834264,12.1455078 L113.834264,12.0039062 C113.831009,11.5677062 113.720333,11.2511403 113.502233,11.0541992 C113.284132,10.8572581 112.935829,10.7587891 112.457311,10.7587891 C112.15132,10.7587891 111.842078,10.8027339 111.529576,10.890625 C111.217075,10.9785161 110.912716,11.1070955 110.61649,11.2763672 L110.61649,10.3779297 C110.948523,10.2509759 111.266717,10.155762 111.57108,10.0922852 C111.875444,10.0288083 112.170851,9.99707031 112.457311,9.99707031 C112.909787,9.99707031 113.296339,10.0638014 113.616979,10.1972656 C113.937618,10.3307298 114.197218,10.5309231 114.395787,10.7978516 C114.519486,10.9606128 114.607375,11.1616199 114.659459,11.4008789 C114.711543,11.6401379 114.737584,11.999021 114.737584,12.4775391 Z M120.298187,12.8681641 C120.298187,12.171546 120.187511,11.6458351 119.966156,11.2910156 C119.7448,10.9361961 119.417655,10.7587891 118.98471,10.7587891 C118.54851,10.7587891 118.21811,10.9370099 117.993499,11.293457 C117.768889,11.6499041 117.656585,12.1748012 117.656585,12.8681641 C117.656585,13.5582717 117.768889,14.082355 117.993499,14.4404297 C118.21811,14.7985044 118.54851,14.9775391 118.98471,14.9775391 C119.417655,14.9775391 119.7448,14.800132 119.966156,14.4453125 C120.187511,14.090493 120.298187,13.5647821 120.298187,12.8681641 Z M117.656585,10.8271484 C117.799815,10.56022 117.997567,10.3551439 118.249847,10.2119141 C118.502127,10.0686842 118.794279,9.99707031 119.126312,9.99707031 C119.783867,9.99707031 120.30144,10.2501602 120.679046,10.7563477 C121.056652,11.2625351 121.245452,11.9599565 121.245452,12.8486328 C121.245452,13.75033 121.055838,14.457517 120.676605,14.9702148 C120.297371,15.4829127 119.777357,15.7392578 119.116546,15.7392578 C118.791024,15.7392578 118.503754,15.6684577 118.25473,15.5268555 C118.005705,15.3852532 117.806326,15.1793633 117.656585,14.9091797 L117.656585,15.5976562 L116.758148,15.5976562 L116.758148,8 L117.656585,8 L117.656585,10.8271484 Z" id="NewTab" fill="#A9ABB3" fill-rule="nonzero"></path>
                <path d="M24,56 L304,56 C308.418278,56 312,59.581722 312,64 L312,269 C312,273.418278 308.418278,277 304,277 L24,277 C19.581722,277 16,273.418278 16,269 L16,64 C16,59.581722 19.581722,56 24,56 Z" id="Path" fill="#151618"></path>
            </g>
            <g id="Icons" transform="translate(16.000000, 33.000000)" fill="#686E78">
                <g id="arrow_back_48px">
                    <polygon id="Shape" points="11 4.8125 2.633125 4.8125 6.4728125 0.9728125 5.5 0 0 5.5 5.5 11 6.4728125 10.0271875 2.633125 6.1875 11 6.1875"></polygon>
                </g>
                <g id="arrow_back_48px-copy" transform="translate(35.500000, 5.500000) scale(-1, 1) translate(-35.500000, -5.500000) translate(30.000000, 0.000000)">
                    <polygon id="Shape" points="11 4.8125 2.633125 4.8125 6.4728125 0.9728125 5.5 0 0 5.5 5.5 11 6.4728125 10.0271875 2.633125 6.1875 11 6.1875"></polygon>
                </g>
                <g id="refresh_48px" transform="translate(64.000000, 0.000000)">
                    <path d="M9.384375,1.615625 C8.3909375,0.61875 7.019375,0 5.5,0 C2.46125,0 0.006875,2.46125 0.006875,5.5 C0.006875,8.53875 2.46125,11 5.5,11 C8.0609375,11 10.2059375,9.246875 10.814375,6.875 L9.384375,6.875 C8.8171875,8.476875 7.2978125,9.625 5.5,9.625 C3.2209375,9.625 1.375,7.7790625 1.375,5.5 C1.375,3.2209375 3.2209375,1.375 5.5,1.375 C6.6378125,1.375 7.65875,1.849375 8.4046875,2.5953125 L6.1875,4.8125 L11,4.8125 L11,0 L9.384375,1.615625 Z" id="Shape"></path>
                </g>
            </g>
            <g id="Ovals" transform="translate(23.000000, 8.000000)">
                <g id="Group" transform="translate(0.100000, 0.000000)">
                    <circle id="Oval" fill="#FF7071" cx="3" cy="3" r="3"></circle>
                    <circle id="Oval" fill="#FFBC70" cx="13" cy="3" r="3"></circle>
                    <circle id="Oval" fill="#BCFF70" cx="23" cy="3" r="3"></circle>
                </g>
            </g>
        </g>
        <g id="Card/Code-1" transform="translate(0.000000, 80.000000)">
            <g id="Illustration" fill="url(#linearGradient-1)">
                <path d="M160,89 C160,86.790861 158.209139,85 156,85 L4,85 C1.790861,85 -2.705415e-16,86.790861 0,89 L0,4 C-2.705415e-16,1.790861 1.790861,4.05812251e-16 4,0 L156,0 C158.209139,-4.05812251e-16 160,1.790861 160,4 L160,89 Z" id="Path"></path>
            </g>
            <g id="Crad" transform="translate(0.000000, 85.000000)">
                <path d="M156.000002,88 L4,88 C1.790861,88 2.705415e-16,86.209139 0,84 L0,4 C-2.705415e-16,1.790861 1.790861,0 4,0 L155.999999,0 C158.209138,0 159.999999,1.790861 159.999999,4 L160.000002,84 C160.000002,86.209139 158.209141,88.0000001 156.000002,88.0000002 C156.000002,88.0000002 156.000002,88.0000002 156.000002,88.0000002 Z" id="Path" fill="url(#linearGradient-2)"></path>
                <path d="M160,60 L160,64 L3.41060513e-13,64 L3.41060513e-13,60 L160,60 Z M26,16 L134,16 C135.104569,16 136,16.8954305 136,18 L136,22 C136,23.1045695 135.104569,24 134,24 L26,24 C24.8954305,24 24,23.1045695 24,22 L24,18 C24,16.8954305 24.8954305,16 26,16 Z M58,32 L102,32 C103.104569,32 104,32.8954305 104,34 L104,38 C104,39.1045695 103.104569,40 102,40 L58,40 C56.8954305,40 56,39.1045695 56,38 L56,34 C56,32.8954305 56.8954305,32 58,32 Z M10,72 L14,72 C15.1045695,72 16,72.8954305 16,74 L16,78 C16,79.1045695 15.1045695,80 14,80 L10,80 C8.8954305,80 8,79.1045695 8,78 L8,74 C8,72.8954305 8.8954305,72 10,72 Z M25,72 L53,72 C54.1045695,72 55,72.8954305 55,74 L55,78 C55,79.1045695 54.1045695,80 53,80 L25,80 C23.8954305,80 23,79.1045695 23,78 L23,74 C23,72.8954305 23.8954305,72 25,72 Z" id="Combined-Shape" fill="#1C1E21"></path>
            </g>
            <g id="Code" transform="translate(16.000000, 16.000000)" fill="#FFFFFF">
                <path d="M4,0 L46,0 C48.209139,-4.05812251e-16 50,1.790861 50,4 C50,6.209139 48.209139,8 46,8 L4,8 C1.790861,8 2.705415e-16,6.209139 0,4 C-2.705415e-16,1.790861 1.790861,4.05812251e-16 4,0 Z M15,48 L23,48 C25.209139,48 27,49.790861 27,52 C27,54.209139 25.209139,56 23,56 L15,56 C12.790861,56 11,54.209139 11,52 C11,49.790861 12.790861,48 15,48 Z M79,48 L124,48 C126.209139,48 128,49.790861 128,52 C128,54.209139 126.209139,56 124,56 L79,56 C76.790861,56 75,54.209139 75,52 C75,49.790861 76.790861,48 79,48 Z" id="Combined-Shape"></path>
                <path d="M15,16 L29,16 C31.209139,16 33,17.790861 33,20 C33,22.209139 31.209139,24 29,24 L15,24 C12.790861,24 11,22.209139 11,20 C11,17.790861 12.790861,16 15,16 Z M58,0 L62,0 C64.209139,-4.05812251e-16 66,1.790861 66,4 C66,6.209139 64.209139,8 62,8 L58,8 C55.790861,8 54,6.209139 54,4 C54,1.790861 55.790861,4.05812251e-16 58,0 Z M35,48 L67,48 C69.209139,48 71,49.790861 71,52 C71,54.209139 69.209139,56 67,56 L35,56 C32.790861,56 31,54.209139 31,52 C31,49.790861 32.790861,48 35,48 Z" id="Combined-Shape" opacity="0.56"></path>
                <path d="M90,16 L112,16 C114.209139,16 116,17.790861 116,20 C116,22.209139 114.209139,24 112,24 L90,24 C87.790861,24 86,22.209139 86,20 C86,17.790861 87.790861,16 90,16 Z M60,32 L89,32 C91.209139,32 93,33.790861 93,36 C93,38.209139 91.209139,40 89,40 L60,40 C57.790861,40 56,38.209139 56,36 C56,33.790861 57.790861,32 60,32 Z" id="Combined-Shape" opacity="0.8"></path>
                <path d="M74,0 L100,0 C102.209139,-4.05812251e-16 104,1.790861 104,4 C104,6.209139 102.209139,8 100,8 L74,8 C71.790861,8 70,6.209139 70,4 C70,1.790861 71.790861,4.05812251e-16 74,0 Z M41,16 L78,16 C80.209139,16 82,17.790861 82,20 C82,22.209139 80.209139,24 78,24 L41,24 C38.790861,24 37,22.209139 37,20 C37,17.790861 38.790861,16 41,16 Z M26,32 L48,32 C50.209139,32 52,33.790861 52,36 C52,38.209139 50.209139,40 48,40 L26,40 C23.790861,40 22,38.209139 22,36 C22,33.790861 23.790861,32 26,32 Z" id="Combined-Shape" opacity="0.24"></path>
            </g>
        </g>
        <g id="Card/Code-2" transform="translate(184.000000, 80.000000)">
            <g id="Illustration" fill="url(#linearGradient-3)">
                <path d="M160,89 C160,86.790861 158.209139,85 156,85 L4,85 C1.790861,85 -2.705415e-16,86.790861 0,89 L0,4 C-2.705415e-16,1.790861 1.790861,4.05812251e-16 4,0 L156,0 C158.209139,-4.05812251e-16 160,1.790861 160,4 L160,89 Z" id="Path"></path>
            </g>
            <g id="Crad" transform="translate(0.000000, 85.000000)">
                <path d="M156.000002,88 L4,88 C1.790861,88 2.705415e-16,86.209139 0,84 L0,4 C-2.705415e-16,1.790861 1.790861,0 4,0 L155.999999,0 C158.209138,0 159.999999,1.790861 159.999999,4 L160.000002,84 C160.000002,86.209139 158.209141,88.0000001 156.000002,88.0000002 C156.000002,88.0000002 156.000002,88.0000002 156.000002,88.0000002 Z" id="Path" fill="url(#linearGradient-4)"></path>
                <path d="M160,60 L160,64 L3.41060513e-13,64 L3.41060513e-13,60 L160,60 Z M26,16 L134,16 C135.104569,16 136,16.8954305 136,18 L136,22 C136,23.1045695 135.104569,24 134,24 L26,24 C24.8954305,24 24,23.1045695 24,22 L24,18 C24,16.8954305 24.8954305,16 26,16 Z M58,32 L102,32 C103.104569,32 104,32.8954305 104,34 L104,38 C104,39.1045695 103.104569,40 102,40 L58,40 C56.8954305,40 56,39.1045695 56,38 L56,34 C56,32.8954305 56.8954305,32 58,32 Z M10,72 L14,72 C15.1045695,72 16,72.8954305 16,74 L16,78 C16,79.1045695 15.1045695,80 14,80 L10,80 C8.8954305,80 8,79.1045695 8,78 L8,74 C8,72.8954305 8.8954305,72 10,72 Z M25,72 L53,72 C54.1045695,72 55,72.8954305 55,74 L55,78 C55,79.1045695 54.1045695,80 53,80 L25,80 C23.8954305,80 23,79.1045695 23,78 L23,74 C23,72.8954305 23.8954305,72 25,72 Z" id="Combined-Shape" fill="#1C1E21"></path>
            </g>
            <g id="Code" transform="translate(16.000000, 16.000000)" fill="#FFFFFF">
                <path d="M4,0 L26,0 C28.209139,-4.05812251e-16 30,1.790861 30,4 C30,6.209139 28.209139,8 26,8 L4,8 C1.790861,8 2.705415e-16,6.209139 0,4 C-2.705415e-16,1.790861 1.790861,4.05812251e-16 4,0 Z M4,48 L56,48 C58.209139,48 60,49.790861 60,52 C60,54.209139 58.209139,56 56,56 L4,56 C1.790861,56 2.705415e-16,54.209139 0,52 C-2.705415e-16,49.790861 1.790861,48 4,48 Z" id="Combined-Shape"></path>
                <path d="M26,16 L58,16 C60.209139,16 62,17.790861 62,20 C62,22.209139 60.209139,24 58,24 L26,24 C23.790861,24 22,22.209139 22,20 C22,17.790861 23.790861,16 26,16 Z M38,0 L80,0 C82.209139,-4.05812251e-16 84,1.790861 84,4 C84,6.209139 82.209139,8 80,8 L38,8 C35.790861,8 34,6.209139 34,4 C34,1.790861 35.790861,4.05812251e-16 38,0 Z M68,48 L100,48 C102.209139,48 104,49.790861 104,52 C104,54.209139 102.209139,56 100,56 L68,56 C65.790861,56 64,54.209139 64,52 C64,49.790861 65.790861,48 68,48 Z" id="Combined-Shape" opacity="0.56"></path>
                <path d="M90,16 L112,16 C114.209139,16 116,17.790861 116,20 C116,22.209139 114.209139,24 112,24 L90,24 C87.790861,24 86,22.209139 86,20 C86,17.790861 87.790861,16 90,16 Z M116,32 L124,32 C126.209139,32 128,33.790861 128,36 C128,38.209139 126.209139,40 124,40 L116,40 C113.790861,40 112,38.209139 112,36 C112,33.790861 113.790861,32 116,32 Z" id="Combined-Shape" opacity="0.8"></path>
                <path d="M92,0 L100,0 C102.209139,-4.05812251e-16 104,1.790861 104,4 C104,6.209139 102.209139,8 100,8 L92,8 C89.790861,8 88,6.209139 88,4 C88,1.790861 89.790861,4.05812251e-16 92,0 Z M70,16 L78,16 C80.209139,16 82,17.790861 82,20 C82,22.209139 80.209139,24 78,24 L70,24 C67.790861,24 66,22.209139 66,20 C66,17.790861 67.790861,16 70,16 Z M82,32 L104,32 C106.209139,32 108,33.790861 108,36 C108,38.209139 106.209139,40 104,40 L82,40 C79.790861,40 78,38.209139 78,36 C78,33.790861 79.790861,32 82,32 Z" id="Combined-Shape" opacity="0.24"></path>
            </g>
        </g>
    </g>
</svg>