<svg width="427" height="268" xmlns="http://www.w3.org/2000/svg"><defs><linearGradient x1="97.568%" y1="50%" x2="0%" y2="50%" id="a"><stop stop-color="#A9ABB3" stop-opacity="0" offset="0%"/><stop stop-color="#FFF" offset="50%"/><stop stop-color="#A9ABB3" stop-opacity="0" offset="100%"/></linearGradient><linearGradient x1="97.568%" y1="50%" x2="0%" y2="50%" id="b"><stop stop-color="#A9ABB3" stop-opacity="0" offset="0%"/><stop stop-color="#FFF" offset="50%"/><stop stop-color="#A9ABB3" stop-opacity="0" offset="100%"/></linearGradient><linearGradient x1="50%" y1="0%" x2="50%" y2="100%" id="c"><stop stop-color="#FFF" offset="0%"/><stop stop-color="#FFF5C1" offset="100%"/></linearGradient></defs><g fill="none" fill-rule="evenodd"><g opacity=".64" style="mix-blend-mode:overlay"><path fill="url(#a)" d="M0 122h427v9H0z" transform="translate(-1)"/><path d="M346.364 0l-268 268H65.636l268-268h12.728z" fill="url(#b)" transform="translate(-1)"/><path d="M348.636 268l-268-268h12.728l268 268h-12.728z" fill="url(#b)" style="mix-blend-mode:overlay" transform="translate(-1)"/></g><g fill="#FFF"><path d="M128 84a2 2 0 1 1 0-4 2 2 0 0 1 0 4zm-37 74a2 2 0 1 1 0-4 2 2 0 0 1 0 4zm52.5 44a2.5 2.5 0 1 1 0-5 2.5 2.5 0 0 1 0 5zm163-4a2.5 2.5 0 1 1 0-5 2.5 2.5 0 0 1 0 5zm-114-145a2.5 2.5 0 1 1 0-5 2.5 2.5 0 0 1 0 5zm128 69a2.5 2.5 0 1 1 0-5 2.5 2.5 0 0 1 0 5zM105.584 97.707l4.416-.464a1.78 1.78 0 1 1 .372 3.541l-4.415.464.464 4.415a1.78 1.78 0 1 1-3.541.373l-.464-4.416-4.416.464a1.78 1.78 0 0 1-.372-3.54l4.415-.465-.464-4.415a1.78 1.78 0 1 1 3.541-.372l.464 4.415zm23.529 62.186l6.09.426a2.448 2.448 0 1 1-.342 4.883l-6.09-.426-.426 6.09a2.448 2.448 0 0 1-4.883-.342l.425-6.09-6.09-.425a2.448 2.448 0 0 1 .342-4.884l6.09.426.426-6.09a2.448 2.448 0 1 1 4.883.342l-.425 6.09zm177.895-76.526l9.109-1.606a3.709 3.709 0 0 1 1.288 7.305l-9.109 1.606 1.607 9.109a3.709 3.709 0 0 1-7.305 1.288l-1.606-9.109-9.109 1.606a3.709 3.709 0 0 1-1.288-7.305l9.109-1.606-1.607-9.108a3.709 3.709 0 0 1 7.305-1.288l1.606 9.108zm-14.673 81.962h3.33a1.335 1.335 0 1 1 0 2.67h-3.33v3.33a1.335 1.335 0 1 1-2.67 0v-3.33h-3.33a1.335 1.335 0 0 1 0-2.67h3.33v-3.33a1.335 1.335 0 1 1 2.67 0v3.33zM244.305 38.9l3.825.675a1.558 1.558 0 1 1-.54 3.068l-3.826-.675-.675 3.826a1.558 1.558 0 0 1-3.068-.541l.674-3.826-3.825-.674a1.558 1.558 0 1 1 .54-3.068l3.826.674.675-3.825a1.558 1.558 0 0 1 3.068.54l-.674 3.826z"/></g><g transform="translate(150 64)"><path d="M62 0c34.242 0 62 27.758 62 62 0 34.242-27.758 62-62 62-34.242 0-62-27.758-62-62C0 27.758 27.758 0 62 0z" fill="#1C1E21"/><path d="M0 62C0 27.758 27.758 0 62 0c34.242 0 62 27.758 62 62H0z" fill="#303237"/><circle fill="url(#c)" cx="62" cy="62" r="54"/><path d="M54.953 67.945l25.42-25.274c2.441-2.427 6.647-2.181 9.394.55 2.746 2.73 2.994 6.912.552 9.34L59.374 83.329c-2.4 2.387-6.508 2.189-9.255-.415a8.58 8.58 0 0 1-.139-.135L35.06 67.945a6.965 6.965 0 0 1 0-9.89 7.062 7.062 0 0 1 9.947 0l9.946 9.89z" fill="#1C1E21"/></g></g></svg>