<svg width="123" height="228" xmlns="http://www.w3.org/2000/svg"><title>QR code</title><g fill="none" fill-rule="evenodd"><path d="M123 20v188c0 11.046-8.954 20-20 20H20c-11.046 0-20-8.954-20-20V20C0 8.954 8.954 0 20 0h83c11.046 0 20 8.954 20 20zm-10 2c0-6.627-5.373-12-12-12h-8v4a6 6 0 0 1-6 6H36a6 6 0 0 1-6-6v-4h-8c-6.627 0-12 5.373-12 12v184c0 6.627 5.373 12 12 12h79c6.627 0 12-5.373 12-12V22z" fill="#303237"/><path d="M123 208c0 11.046-8.954 20-20 20H20c-11.046 0-20-8.954-20-20V47l10 5.691V206c0 6.627 5.373 12 12 12h79c6.627 0 12-5.373 12-12v-94.691L123 117v91z" fill="#1C1E21"/><path d="M113 22v184c0 6.627-5.373 12-12 12H22c-6.627 0-12-5.373-12-12V22c0-6.627 5.373-12 12-12h8v4a6 6 0 0 0 6 6h51a6 6 0 0 0 6-6v-4h8c6.627 0 12 5.373 12 12z" fill="#FFF"/><path d="M56.68 129.84v-5.76H53.8v5.76h-2.88v8.64h2.88v5.76h-2.88v-2.88h-2.88v-14.4H62.44v-2.88h2.88v5.76h-5.76v2.88h-2.88v5.76H53.8v-8.64h2.88zm0-5.76v-8.64H53.8v2.88h8.64v2.88h-2.88v2.88h-2.88zm17.28-2.88h2.88v-2.88h-2.88v5.76h5.76v-2.88h2.88v2.88h2.88v14.4h-5.76v2.88h-2.88v2.88h-2.88v-2.88h-2.88v2.88H68.2v-2.88h-2.88v2.88h-5.76v-2.88h2.88v-2.88h5.76v-5.76h2.88V121.2h2.88zm-28.8 2.88h-2.88v2.88h2.88v-5.76h2.88v-5.76h-5.76v2.88h2.88v2.88H39.4v-5.76h-2.88v-5.76h2.88v-2.88h-5.76v11.52h-2.88v-14.4h2.88v-2.88h23.04v2.88h2.88v2.88h2.88v-2.88h8.64v5.76H68.2v-2.88h-2.88v2.88h-5.76v2.88h2.88v2.88h-2.88v-2.88H53.8v-2.88h2.88v-2.88H53.8v-2.88H42.28v2.88h2.88v2.88h-2.88v2.88h2.88v-2.88h2.88v-2.88h5.76v2.88h-2.88v14.4h-5.76zm8.64-28.8h2.88v2.88H53.8v-2.88h-2.88V92.4h-2.88v-2.88h2.88v-2.88h-2.88V78h2.88v2.88h2.88v2.88h-2.88v2.88h2.88v-2.88h2.88V78h5.76v5.76h-2.88v2.88h2.88v-2.88h5.76v5.76h2.88v2.88h2.88v-5.76h-8.64v2.88h-5.76v2.88H53.8v2.88zM25 103.92v-2.88h2.88v2.88H25zm40.32-23.04V78h2.88v2.88h-2.88zM53.8 89.52h2.88v-2.88H53.8v2.88zm-5.76 8.64v-2.88h2.88v2.88h-2.88zm23.04 0v-2.88h2.88v2.88h-2.88zm-8.64 2.88v2.88h-2.88V92.4h8.64v5.76h-2.88v-2.88h-2.88v2.88h2.88v2.88h-2.88zm11.52 2.88v-2.88h2.88v2.88h-2.88zm14.4-2.88H97v2.88h-2.88v2.88h-5.76v2.88h5.76v-2.88H97v8.64h-2.88v-2.88h-8.64v-5.76H82.6v8.64h-8.64v2.88h-2.88v2.88H68.2v-2.88h-5.76v-2.88h8.64v-2.88h8.64v-8.64h2.88v-2.88h2.88v2.88h2.88v-2.88zM25 78h20.16v20.16H25V78zm3.024 17.136h14.112V81.024H28.024v14.112zM30.76 92.4v-8.64h8.64v8.64h-8.64zM76.84 78H97v20.16H76.84V78zm3.024 17.136h14.112V81.024H79.864v14.112zM82.6 92.4v-8.64h8.64v8.64H82.6zm8.64 23.04h2.88v2.88H97v5.76h-2.88v-2.88h-2.88v2.88h2.88v5.76h-5.76v-5.76h-2.88v-2.88H82.6v-5.76h2.88v2.88h5.76v-2.88zm2.88 17.28v-2.88H97v2.88h-2.88zm-2.88 0h2.88v2.88H97V150h-2.88v-2.88h-5.76v-2.88h-2.88v2.88h-5.76V150h-8.64v-2.88h5.76v-2.88h5.76v-2.88h8.64v-8.64zM25 115.44h2.88v2.88h2.88v2.88h-2.88v5.76H25v-11.52zm8.64 8.64v-2.88h2.88v2.88h-2.88zm-2.88 2.88v-2.88h2.88v2.88h-2.88zm5.76 0v-2.88h2.88v2.88h-2.88zm28.8 17.28h2.88V150h-8.64v-2.88h5.76v-2.88zM25 129.84h20.16V150H25v-20.16zm3.024 17.136h14.112v-14.112H28.024v14.112zm2.736-2.736v-8.64h8.64v8.64h-8.64zm43.2-8.64h8.64v-8.64h-8.64v8.64zm2.88-2.88v-2.88h2.88v2.88h-2.88zm-11.52 2.88h-2.88v2.88h-2.88v-5.76h5.76v2.88zM48.04 150v-2.88h2.88V150h-2.88zm5.76-5.76h2.88V150H53.8v-5.76zM85.48 150v-2.88h2.88V150h-2.88z" fill="#1C1E21"/></g></svg>