<svg width="114" height="32" viewBox="0 0 114 32" xmlns="http://www.w3.org/2000/svg" xmlns:xlink="http://www.w3.org/1999/xlink"><defs><linearGradient x1="100%" y1="50%" x2="0%" y2="50%" id="a"><stop stop-color="#FF4746" offset="0%"/><stop stop-color="#FF70A7" offset="50%"/><stop stop-color="#BC47FF" offset="80%"/><stop stop-color="#7E48FF" offset="100%"/></linearGradient><linearGradient x1="50%" y1="100%" x2="50%" y2="0%" id="c"><stop stop-opacity=".5" offset="0%"/><stop offset="100%"/></linearGradient><linearGradient x1="93.3791296%" y1="78.4805622%" x2="19.3803782%" y2="50%" id="f"><stop stop-color="#FF4746" offset="0%"/><stop stop-color="#FF70A7" offset="50%"/><stop stop-color="#BC47FF" offset="80%"/><stop stop-color="#7E48FF" offset="100%"/></linearGradient><linearGradient x1="43.3932603%" y1="60.0126705%" x2="23.8808021%" y2="40.4697458%" id="g"><stop stop-color="#FFF" stop-opacity="0" offset="0%"/><stop stop-color="#FFF" offset="100%"/></linearGradient><linearGradient x1="100%" y1="100%" x2="0%" y2="0%" id="i"><stop stop-color="#0076F5" offset="0%"/><stop stop-color="#00E4F5" offset="100%"/></linearGradient><linearGradient x1="39.2115916%" y1="60.0126705%" x2="21.2242234%" y2="-34.9406657%" id="k"><stop stop-color="#FFF" stop-opacity="0" offset="0%"/><stop stop-color="#FFF" offset="100%"/></linearGradient><path d="M31.7275565 2.323611l2.0204017 16.5443886c-2.576175.4425559-4.9059667.345353-6.9893751-.2916089-2.0834084-.6369619-4.0692484-1.8591799-5.9575201-3.6666542L31.7275565 2.323611z" id="b"/><path d="M31.7275565 2.323611l2.0204017 16.5443886c-1.9164645-1.7152599-3.9164009-2.8913708-5.9998093-3.5283327-2.0834084-.6369619-4.3991037-.780272-6.9470859-.4299304L31.7275565 2.323611z" id="e"/><radialGradient cx="84.5724074%" cy="-1.7405447%" fx="84.5724074%" fy="-1.7405447%" r="41.4239296%" gradientTransform="matrix(-.27737 .75185 -.96076 -.21706 1.0635804 -.6570405)" id="h"><stop stop-opacity=".5" offset="0%"/><stop stop-opacity="0" offset="100%"/></radialGradient><filter x="-123.6%" y="-48.4%" width="347.2%" height="293.4%" filterUnits="objectBoundingBox" id="d"><feOffset dy="8" in="SourceAlpha" result="shadowOffsetOuter1"/><feGaussianBlur stdDeviation="4" in="shadowOffsetOuter1" result="shadowBlurOuter1"/><feColorMatrix values="0 0 0 0 0 0 0 0 0 0 0 0 0 0 0 0 0 0 0.5 0" in="shadowBlurOuter1"/></filter><circle id="j" cx="31.7217953" cy="2.2564103" r="2.2564103"/></defs><g fill="none" fill-rule="evenodd"><path d="M44.4315566 18.7759283v6.7014676h3.6810487l.7802045 2.2338223h-4.4612532c-1.2295036 0-2.2262132-1.0001164-2.2262132-2.2338225v-6.7014674c0-1.2337061.9967096-2.2338225 2.2262132-2.2338225h3.6810487v2.2338225h.7802045v-4.467645c0-.6168531.4990134-1.1169113 1.1145777-1.1169113h1.1145777v13.402935c0 .616853-.4990134 1.1169112-1.1145777 1.1169112h-1.1145777v-8.9352899h-4.4612532zm11.1457879 8.9353101c-1.2295029 0-2.2262238-1.0001225-2.2262238-2.233828v-2.2338371c0-1.2337061.9967096-2.2338225 2.2262132-2.2338225h3.6810487v2.2338225h.7802045v-4.467645H53.907674l.0000016-1.1169113c0-.6168524.4983538-1.1169112 1.113105-1.1169112h5.0178065c1.2311285 0 2.2291654 1.0001164 2.2291654 2.2338225v7.8183989c0 .616853-.4990134 1.1169112-1.1145777 1.1169112h-1.1145877v-4.4676651h-4.4612532v2.2338226h3.6810487l.7802045 2.2338425h-4.4612426zm8.9195535-.00002V17.659017c0-.616853.4983548-1.1169112 1.1131066-1.1169112h1.1131066v10.0522013c0 .6168531-.4983548 1.1169113-1.1131066 1.1169113H64.496898zm2.2262132-13.3956351c0 .3114714-.106702.5742714-.3201091.788408-.2134071.2141365-.4753119.3212032-.7857223.3212032s-.5747402-.1070667-.7929975-.3212032c-.2182573-.2141366-.3273843-.4769366-.3273843-.788408 0-.3212048.109127-.5888715.3273843-.8030081.2182573-.2141365.4825871-.3212032.7929975-.3212032.3104104 0 .5723152.1070667.7857223.3212032.2134071.2141366.3201091.4818033.3201091.8030081zm2.2320977 13.3956351V14.3082833c0-.6168531.4983548-1.1169113 1.1131066-1.1169113h1.1131066v13.4029351c0 .6168531-.4983548 1.1169113-1.1131066 1.1169113h-1.1131066zm7.5120792.0044843l-3.0055197-9.4523829c-.179736-.5898995.158877-1.2143104.7467671-1.3946608l1.0588488-.3265532 2.4520711 8.0277005 2.2068639-7.2370463c.179736-.5898995.7941863-.9219047 1.3820763-.7415543l1.0217461.3265533-3.7858988 12.5630718c-.2861391.9391179-1.1501609 1.5805839-2.1288435 1.580716l-1.8403746.0004053c-.6147518 0-1.1131736-.4999079-1.1132564-1.1167609l.0001498-1.1170616h1.8500493c.6130072 0 1.1528594-.4973293 1.1553206-1.1124269z" fill="var(--theme-primary)"/><path d="M85.9618959 27.8565941v-1.5782842h-1.6191453v1.5782842h1.6191453zm4.8427164.1032523c.7850401 0 1.449871-.196671 1.9944926-.5900129.5446216-.3933418.9248754-.9194366 1.1407615-1.5782842v2.0650448h1.3394747V16.9413572h-1.3394747v4.882356c-.2158861-.6588476-.5961399-1.1849424-1.1407615-1.5782843-.5446216-.3933418-1.2094525-.5900128-1.9944926-.5900128-.7163492 0-1.3541943.1671703-1.9135354.5015109-.5593411.3343406-.9984729.8161844-1.3173955 1.4455314-.3189225.629347-.4783838 1.366863-.4783838 2.212548s.1594613 1.5807426.4783838 2.2051729c.3189226.6244302.7580544 1.1038156 1.3173955 1.4381562.5593411.3343406 1.1971862.5015109 1.9135354.5015109zm.382707-1.1800257c-.8242921 0-1.4842165-.2630473-1.9797731-.7891421-.4955566-.5260947-.7433349-1.2513188-.7433349-2.1756722 0-.9243534.2477783-1.6495775.7433349-2.1756722.4955566-.5260948 1.155481-.7891421 1.9797731-.7891421.5299021 0 1.0033795.1204609 1.4204321.3613828.4170525.2409219.7433348.5875544.9788469 1.0398976.235512.4523431.3532681.9735211.3532681 1.5635339 0 .5900128-.1177561 1.1087324-.3532681 1.5561588-.2355121.4474263-.5617944.7940589-.9788469 1.0398975-.4170526.2458387-.89053.368758-1.4204321.368758zm9.8031887 1.1800257c.677097 0 1.285503-.1229194 1.825218-.3687581.539716-.2458386.978847-.5900128 1.317396-1.0325224.338549-.4425096.556888-.9440204.655018-1.5045326h-1.427792c-.09813.5506786-.365534.9907298-.802213 1.3201536-.436678.3294239-.978847.4941358-1.626505.4941358-.716349 0-1.3223018-.2310884-1.8178584-.6932651s-.7580544-1.1554417-.7874934-2.0797951h6.4618618c.039252-.2065045.058878-.4523432.058878-.737516 0-.6785147-.154555-1.2980282-.463664-1.8585404-.30911-.5605121-.755602-1.0079385-1.339475-1.3422791-.583874-.3343406-1.268331-.5015109-2.053371-.5015109-.775227 0-1.4621371.1671703-2.0607302.5015109s-1.067164.8161844-1.4057125 1.4455314c-.3385486.629347-.5078229 1.366863-.5078229 2.212548s.1692743 1.5807426.5078229 2.2051729c.3385485.6244302.8071194 1.1038156 1.4057125 1.4381562.5985931.3343406 1.2855032.5015109 2.0607302.5015109zm2.502316-4.513598h-5.1665458c.039252-.8850192.3091095-1.5561588.8095726-2.0134187.5004631-.4572599 1.1186822-.6858899 1.8546572-.6858899.461211 0 .888077.0983355 1.280597.2950064.39252.196671.70163.4965941.927329.8997695.225699.4031755.323829.9046863.29439 1.5045327zm7.021202 4.4103457l3.164694-8.0979257h-1.442512l-2.502315 6.6671447-2.531755-6.6671447h-1.442511l3.164693 8.0979257h1.589706z" fill="var(--theme-primary)" fill-rule="nonzero" opacity=".56"/><use fill="url(#a)" xlink:href="#b"/><use fill="url(#c)" xlink:href="#b"/><path d="M30.6275981 21.9930581l-3.9372132-3.9454563 1.9675807-3.9440856 6.397202 6.4105955c.815093.8167995.815093 2.1410933 0 2.9578928l-7.8737425 7.8902273c-.815093.8167995-2.1366199.8167995-2.951713 0-.815093-.8167996-.815093-2.1410933 0-2.9578929l6.397886-6.4112808z" fill="#8F8F90"/><path d="M24.2311793 12.6161514c.815093-.8167996 2.1369619-.8164569 2.9520549.0003427l1.4761985 1.4792891-17.2226575 17.2587155c-.815093.8167996-2.1369619.8164569-2.952055-.0003426L7.0085219 29.874867l17.2226575-17.2587156zm-7.3813344 5.4244027l-2.9523969 2.9585782-3.9372132-3.9454563-4.9213455 4.9316491 3.9372132 3.9454563-1.9675807 3.9440856-6.397202-6.4105955c-.815093-.8167996-.815093-2.1410933 0-2.9578929l7.8734005-7.8898845c.815093-.8167996 2.1369619-.8171423 2.9520549-.0003427l5.4130697 5.4244027z" fill="var(--theme-primary)" fill-rule="nonzero"/><use fill="#000" filter="url(#d)" xlink:href="#e"/><use fill="url(#f)" xlink:href="#e"/><use fill="url(#g)" xlink:href="#e"/><use fill="url(#h)" xlink:href="#e"/><path d="M32.0389681 15.9372754c.2979322.091087.419463.5574005.2714466 1.0415403-.0630565.2062486-.1648594.3824601-.2839866.5097534-.2817942-.2006065-.5653726-.3897559-.8506671-.5678214.0091733-.0881749.0275792-.1796583.0557458-.2717872.1480164-.4841398.5095291-.8027721.8074613-.7116851zm-3.169292-.9689498c.4509384.1378657.7182537.5919067.6331919 1.044743-.5539558-.2569473-1.1142319-.4737051-1.6806904-.6505309.2134022-.3458705.6404608-.518656 1.0474985-.3942121zm4.2771843-1.0211806l.1730614 1.4159158c-.0232534-.0022969-.0462612-.0068528-.0689018-.0137747-.2979322-.091087-.419463-.5574005-.2714466-1.0415404.0412078-.1347847.0989631-.2567414.167287-.3606007zm-7.5813398.0109989c.3439531.105157.5254084.5267006.4345278.9719249-.4598113-.0767821-.9295426-.132167-1.4093277-.1661857.0076645-.0446813.0186255-.0899864.032475-.1352861.1480164-.4841398.5699096-.7843119.9423249-.6704531zm-3.1001407.0107426c-.1480164.4841398-.4491488.8212323-.6725979.752917-.1799906-.0550286-.2546741-.3563193-.1995549-.7244706l.8355286-.9623554c.1382672.1557817.1593886.5323646.0366242.933909zm8.7592485-1.1562321c.3724153.1138588.5543265.5986325.4063101 1.0827723-.1480164.4841398-.5699096.7843119-.9423249.6704531-.3724152-.1138587-.5543264-.5986324-.40631-1.0827722s.5699096-.7843119.9423248-.6704532zm-3.3041555-1.0101817c.4841398.1480164.7566217.6604803.6086053 1.1446201-.1480164.4841398-.6604803.7566217-1.1446201.6086053-.4841398-.1480164-.7566217-.6604803-.6086053-1.1446201.1480164-.4841398.6604803-.7566217 1.1446201-.6086053zm-3.169292-.9689498c.2979322.091087.4194629.5574005.2714465 1.0415403-.1480164.4841399-.5095291.8027721-.8074613.7116851-.2979322-.091087-.419463-.5574005-.2714466-1.0415403.1480164-.4841398.5095292-.8027721.8074614-.7116851zm8.0847176.5678892l.1131269.9273029c-.1729717-.1815118-.2256401-.5480121-.1131269-.9273029zm-2.358178-1.6927627c.4841398.1480164.7566217.6604803.6086053 1.1446201-.1480164.4841399-.6604803.7566217-1.1446201.6086053-.4841398-.1480164-.7566217-.6604802-.6086053-1.1446201.1480164-.4841398.6604803-.7566217 1.1446201-.6086053zm-3.3041556-1.0101817c.3724153.1138588.5543265.5986324.4063101 1.0827722-.1480164.4841399-.5699096.784312-.9423248.6704532-.3724153-.1138588-.5543265-.5986324-.4063101-1.0827722.1480164-.4841399.5699096-.784312.9423248-.6704532zm5.1988837-1.092863l.2091604 1.7116596c-.094688.020017-.1913812.0175465-.284951-.0110606-.3724152-.1138588-.5543264-.5986324-.40631-1.0827722.0874001-.285873.2702908-.5076035.4821006-.6178268zm-2.8439313-1.0628081c.4841398.1480164.7566217.6604802.6086053 1.14462-.1480164.4841399-.6604803.7566217-1.1446201.6086054-.4841398-.1480164-.7566217-.6604803-.6086053-1.1446201.1480164-.4841399.6604803-.7566217 1.1446201-.6086053zm2.4564379-2.1101954l.219707 1.7980191c-.1831898.0522882-.3869091.0535151-.5874804-.0078057-.5213813-.1594023-.8240534-.6810962-.676037-1.165236.1321164-.4321335.5786403-.6882857 1.0438104-.6249774zm-1.9878549.336354c-.1352489.4423793-.5495777.7157462-.9609912.6553782l.9851116-1.1348952c.0312742.152259.025577.3169643-.0241204.479517zm1.730456-2.4453442l.0138491.115359-.0147206.046145c-.1535005.453084-.4396045.7611251-.6541157.6955425-.0221794-.006781-.0427598-.0173012-.0616953-.0312252l.7166825-.8258213z" fill="#FFF" style="mix-blend-mode:overlay"/><g><use fill="url(#i)" xlink:href="#j"/><use fill="url(#k)" xlink:href="#j"/></g></g></svg>
