<svg width="172" height="185" xmlns="http://www.w3.org/2000/svg"><title>No bookmarks</title><defs><linearGradient x1="0%" y1="34.529%" x2="100%" y2="65.471%" id="a"><stop stop-color="#F58301" offset="0%"/><stop stop-color="#794100" offset="100%"/></linearGradient><linearGradient x1="100%" y1="100%" x2="0%" y2="0%" id="b"><stop stop-color="#CC6D00" offset="0%"/><stop stop-color="#CCAA02" offset="100%"/></linearGradient><linearGradient x1="102%" y1="101%" x2="0%" y2="0%" id="c"><stop stop-color="#CC6D00" offset="0%"/><stop stop-color="#CCAA02" offset="100%"/></linearGradient></defs><g fill="none" fill-rule="evenodd"><path d="M160 89a4 4 0 0 0-4-4H4a4 4 0 0 0-4 4V4a4 4 0 0 1 4-4h152a4 4 0 0 1 4 4v85z" fill="url(#a)"/><g transform="translate(8 4)" fill="url(#b)"><circle opacity=".244" cx="72" cy="72" r="72"/><circle opacity=".48" cx="72" cy="72" r="56"/><circle cx="72" cy="72" r="40"/></g><path d="M40.192 77.44l10.754-1.234c.558-1.343 2.54-2.634 5.948-3.873l-1.222-8.555h-.305a9.82 9.82 0 0 1-9.738-8.556l-.6-4.616a3.49 3.49 0 0 1 3.79-3.924 3.628 3.628 0 0 1 3.284 3.94l-.461 5.076a4.047 4.047 0 0 0 4.03 4.413l-1.823-20.96a6.582 6.582 0 0 1 7.234-7.115 6.463 6.463 0 0 1 5.75 7.103l-1.692 16.083a4.01 4.01 0 0 0 3.99-4.41l-.325-3.251a4.148 4.148 0 0 1 4.726-4.515 3.932 3.932 0 0 1 3.288 4.484l-.525 3.414a9.37 9.37 0 0 1-9.26 7.945h-1.894l-1.222 13.444c2.342.469 4.012 1.072 5.007 1.81l8.256-.947a8 8 0 0 0 5.862-3.692l8.182-13.025a8 8 0 0 1 12.4-1.432l12.425 12.288a8 8 0 0 0 11.103.144l1.15-1.08a8 8 0 0 1 11.737.849L150.985 81H156c1.457 0 2.823.39 4 1.07V89H0v-6.93A7.963 7.963 0 0 1 4 81h5.165l18.59-2.133c.64-.827 1.975-1.672 4.003-2.534l-.89-9.222h-.902a7.55 7.55 0 0 1-7.432-6.222l-.48-2.687a3.46 3.46 0 0 1 2.925-4.035 2.87 2.87 0 0 1 3.26 3.078l-.328 3.987a2.968 2.968 0 0 0 2.958 3.212l-1.181-11.587a5.318 5.318 0 0 1 5.985-5.81 5.14 5.14 0 0 1 4.398 5.787l-3.205 23.5c1.477.295 2.586.664 3.326 1.106z" fill="#1C1E21"/><g><path d="M148 133c-15.464 0-28 12.536-28 28 0 4.294.967 8.363 2.695 12H4a4 4 0 0 1-4-4V89a4 4 0 0 1 4-4h152a4 4 0 0 1 4 4v46.695A27.891 27.891 0 0 0 148 133z" fill="#303237"/><path d="M125.019 145a27.973 27.973 0 0 0-2.324 4H0v-4h125.019zM26 101h108a2 2 0 0 1 2 2v4a2 2 0 0 1-2 2H26a2 2 0 0 1-2-2v-4a2 2 0 0 1 2-2zm32 16h44a2 2 0 0 1 2 2v4a2 2 0 0 1-2 2H58a2 2 0 0 1-2-2v-4a2 2 0 0 1 2-2zm-48 40h4a2 2 0 0 1 2 2v4a2 2 0 0 1-2 2h-4a2 2 0 0 1-2-2v-4a2 2 0 0 1 2-2zm15 0h28a2 2 0 0 1 2 2v4a2 2 0 0 1-2 2H25a2 2 0 0 1-2-2v-4a2 2 0 0 1 2-2z" fill="#1C1E21"/></g><g transform="translate(124 137)"><circle fill="url(#c)" fill-rule="nonzero" cx="24" cy="24" r="24"/><path d="M18.437 13.333h11.124a2.667 2.667 0 0 1 2.662 2.504L33.33 33.96a.667.667 0 0 1-1.062.577l-7.477-5.525a1.333 1.333 0 0 0-1.585 0l-7.477 5.525a.667.667 0 0 1-1.062-.577l1.108-18.122a2.667 2.667 0 0 1 2.661-2.504z" fill="#151618"/></g></g></svg>