<svg viewBox="0 0 821 444" xmlns="http://www.w3.org/2000/svg"><g fill="none" fill-rule="evenodd"><path d="m791 433c3.037566 0 5.5 2.462434 5.5 5.5s-2.462434 5.5-5.5 5.5-5.5-2.462434-5.5-5.5 2.462434-5.5 5.5-5.5zm-649.631669-204.591772 14.428692 14.416565-28.857385 28.833131-14.428692-14.416565zm564.131669-159.408228c8.284271 0 15 6.7157288 15 15s-6.715729 15-15 15-15-6.7157288-15-15 6.715729-15 15-15zm-458.402828-51.5818845 2.640634 9.8466972-39.41992 10.5536583-2.640634-9.8466972z" fill="#bc47ff"/><path d="m92 382c5.2467051 0 9.5 4.253295 9.5 9.5s-4.2532949 9.5-9.5 9.5-9.5-4.253295-9.5-9.5 4.2532949-9.5 9.5-9.5zm524-198c3.037566 0 5.5 2.462434 5.5 5.5s-2.462434 5.5-5.5 5.5-5.5-2.462434-5.5-5.5 2.462434-5.5 5.5-5.5zm-594.5-82c8.2842712 0 15 6.715729 15 15s-6.7157288 15-15 15-15-6.715729-15-15 6.7157288-15 15-15zm588.846474-101.7221887 39.764535 9.17265012-6.885275 29.79833458-39.764534-9.1726502z" fill="#46f3ff"/><path d="m704 265c3.037566 0 5.5 2.462434 5.5 5.5s-2.462434 5.5-5.5 5.5-5.5-2.462434-5.5-5.5 2.462434-5.5 5.5-5.5zm-577.233926-180.0544055 39.764534 9.1726501-6.885274 29.7983344-39.764534-9.17265zm452.489092.4478974 15.303939 26.4849211-8.835733 5.097026-15.30394-26.4849216zm-323.255166-19.3934919c3.037566 0 5.5 2.4624339 5.5 5.5s-2.462434 5.5-5.5 5.5-5.5-2.4624339-5.5-5.5 2.462434-5.5 5.5-5.5z" fill="#ffe047"/><path d="m188.572872 346.154854 22.385186 20.856978-13.916349 14.910914-22.385185-20.856978zm-139.572872-73.154854c3.0375661 0 5.5 2.462434 5.5 5.5s-2.4624339 5.5-5.5 5.5-5.5-2.462434-5.5-5.5 2.4624339-5.5 5.5-5.5zm762-16c5.246705 0 9.5 4.253295 9.5 9.5s-4.253295 9.5-9.5 9.5-9.5-4.253295-9.5-9.5 4.253295-9.5 9.5-9.5zm-704-234c3.037566 0 5.5 2.4624339 5.5 5.5s-2.462434 5.5-5.5 5.5-5.5-2.4624339-5.5-5.5 2.462434-5.5 5.5-5.5z" fill="#fff"/><path d="m683.07307 362.108823 15.303939 26.484922-17.671467 10.194051-15.303939-26.484922zm-671.57307-20.108823v19h-11v-19zm66.5-153c5.2467051 0 9.5 4.253295 9.5 9.5s-4.2532949 9.5-9.5 9.5-9.5-4.253295-9.5-9.5 4.2532949-9.5 9.5-9.5zm716.317994-63.94936 8.835733 5.097026-20.405252 35.313228-8.835734-5.097025z" fill="#ffa947"/></g></svg>