<svg height="20" viewBox="0 0 114 20" width="114" xmlns="http://www.w3.org/2000/svg"><g fill="var(--theme-primary)" fill-rule="evenodd"><g fill-rule="nonzero"><path d="m30.6275981 9.99305809-3.9372132-3.94545631 1.9675807-3.94408558 6.397202 6.41059547c.815093.81679956.815093 2.14109333 0 2.95789283l-7.8737425 7.8902273c-.815093.8167995-2.1366199.8167995-2.951713 0-.815093-.8167996-.815093-2.1410933 0-2.9578929z" opacity=".56"/><path d="m24.2311793.61615139c.815093-.81679956 2.1369619-.81645687 2.9520549.00034268l1.4761985 1.47928911-17.2226575 17.25871552c-.815093.8167996-2.13696189.8164569-2.95205494-.0003426l-1.47619847-1.4792891zm-7.3813344 5.42440273-2.9523969 2.95857821-3.93721319-3.94545631-4.92134551 4.93164905 3.93721319 3.94545633-1.9675807 3.9440856-6.39720201-6.4105955c-.81509304-.8167996-.81509304-2.1410933 0-2.95789286l7.87340048-7.88988457c.81509305-.81679955 2.13696194-.81714224 2.95205494-.00034268z"/></g><path d="m44.4315566 6.7759283v6.7014676h3.6810487l.7802045 2.2338223h-4.4612532c-1.2295036 0-2.2262132-1.0001164-2.2262132-2.2338225v-6.7014674c0-1.23370611.9967096-2.23382252 2.2262132-2.23382252h3.6810487v2.23382252h.7802045v-4.46764503c0-.61685306.4990134-1.11691126 1.1145777-1.11691126h1.1145777v13.40293499c0 .616853-.4990134 1.1169112-1.1145777 1.1169112h-1.1145777v-8.9352899zm11.1457879 8.9353101c-1.2295029 0-2.2262238-1.0001225-2.2262238-2.233828v-2.2338371c0-1.2337061.9967096-2.23382248 2.2262132-2.23382248h3.6810487v2.23382248h.7802045v-4.467645h-6.1309131l.0000016-1.11691126c0-.6168524.4983538-1.11691126 1.113105-1.11691126h5.0178065c1.2311285 0 2.2291654 1.00011641 2.2291654 2.23382252v7.8183989c0 .616853-.4990134 1.1169112-1.1145777 1.1169112h-1.1145877v-4.4676651h-4.4612532v2.2338226h3.6810487l.7802045 2.2338425c-2.7480959 0-4.2351768 0-4.4612426 0zm8.9195535-.00002v-10.05220136c0-.61685305.4983548-1.11691126 1.1131066-1.11691126h1.1131066v10.05220132c0 .6168531-.4983548 1.1169113-1.1131066 1.1169113zm2.2262132-13.39563506c0 .31147136-.106702.57427138-.3201091.78840795-.2134071.21413656-.4753119.32120324-.7857223.32120324s-.5747402-.10706668-.7929975-.32120324c-.2182573-.21413657-.3273843-.47693659-.3273843-.78840795 0-.32120484.109127-.58887153.3273843-.80300809.2182573-.21413657.4825871-.32120324.7929975-.32120324s.5723152.10706667.7857223.32120324c.2134071.21413656.3201091.48180325.3201091.80300809zm2.2320977 13.39563506v-13.40293513c0-.61685306.4983548-1.11691126 1.1131066-1.11691126h1.1131066v13.40293509c0 .6168531-.4983548 1.1169113-1.1131066 1.1169113zm7.5120792.0044843-3.0055197-9.45238287c-.179736-.58989951.158877-1.21431042.7467671-1.3946608l1.0588488-.32655325 2.4520711 8.02770052 2.2068639-7.23704629c.179736-.58989951.7941863-.92190468 1.3820763-.7415543l1.0217461.32655325-3.7858988 12.56307184c-.2861391.9391179-1.1501609 1.5805839-2.1288435 1.580716l-1.8403746.0004053c-.6147518 0-1.1131736-.4999079-1.1132564-1.1167609l.0001498-1.1170616h1.8500493c.6130072 0 1.1528594-.4973293 1.1553206-1.1124269z"/><path d="m85.9618959 15.8565941v-1.5782842h-1.6191453v1.5782842zm4.8427164.1032523c.7850401 0 1.449871-.196671 1.9944926-.5900129.5446216-.3933418.9248754-.9194366 1.1407615-1.5782842v2.0650448h1.3394747v-10.91523687h-1.3394747v4.88235596c-.2158861-.65884763-.5961399-1.18494238-1.1407615-1.57828425s-1.2094525-.59001281-1.9944926-.59001281c-.7163492 0-1.3541943.1671703-1.9135354.50151089s-.9984729.81618438-1.3173955 1.44553137c-.3189225.62934701-.4783838 1.36686301-.4783838 2.21254801s.1594613 1.5807426.4783838 2.2051729c.3189226.6244302.7580544 1.1038156 1.3173955 1.4381562s1.1971862.5015109 1.9135354.5015109zm.382707-1.1800257c-.8242921 0-1.4842165-.2630473-1.9797731-.7891421-.4955566-.5260947-.7433349-1.2513188-.7433349-2.1756722s.2477783-1.6495775.7433349-2.17567221c.4955566-.52609475 1.155481-.78914213 1.9797731-.78914213.5299021 0 1.0033795.12046095 1.4204321.36138284.4170525.2409219.7433348.58755442.9788469 1.0398976.235512.4523431.3532681.9735211.3532681 1.5635339s-.1177561 1.1087324-.3532681 1.5561588c-.2355121.4474263-.5617944.7940589-.9788469 1.0398975-.4170526.2458387-.89053.368758-1.4204321.368758zm9.8031887 1.1800257c.677097 0 1.285503-.1229194 1.825218-.3687581.539716-.2458386.978847-.5900128 1.317396-1.0325224s.556888-.9440204.655018-1.5045326h-1.427792c-.09813.5506786-.365534.9907298-.802213 1.3201536-.436678.3294239-.978847.4941358-1.626505.4941358-.716349 0-1.3223018-.2310884-1.8178584-.6932651s-.7580544-1.1554417-.7874934-2.0797951h6.4618618c.039252-.2065045.058878-.4523432.058878-.737516 0-.6785147-.154555-1.2980282-.463664-1.85854035-.30911-.56051217-.755602-1.00793854-1.339475-1.34227913-.583874-.33434059-1.268331-.50151089-2.053371-.50151089-.775227 0-1.4621371.1671703-2.0607302.50151089s-1.067164.81618438-1.4057125 1.44553137c-.3385486.62934701-.5078229 1.36686301-.5078229 2.21254801s.1692743 1.5807426.5078229 2.2051729c.3385485.6244302.8071194 1.1038156 1.4057125 1.4381562s1.2855032.5015109 2.0607302.5015109zm2.502316-4.513598h-5.1665458c.039252-.8850192.3091095-1.55615877.8095726-2.01341869.5004631-.45725993 1.1186822-.68588989 1.8546572-.68588989.461211 0 .888077.09833547 1.280597.2950064.39252.19667094.70163.49659411.927329.89976953.225699.40317545.323829.90468625.29439 1.50453265zm7.021202 4.4103457 3.164694-8.09792573h-1.442512l-2.502315 6.66714473-2.531755-6.66714473h-1.442511l3.164693 8.09792573z" fill-rule="nonzero" opacity=".56"/></g></svg>