<svg viewBox="0 0 8 8" xmlns="http://www.w3.org/2000/svg"><g fill="none" fill-rule="evenodd"><path d="M2.51 1.044l-.155.425a1.48 1.48 0 01-.886.886l-.425.155a1.585 1.585 0 000 2.98l.425.155c.412.15.737.474.886.886l.155.425a1.585 1.585 0 002.98 0l.155-.425a1.48 1.48 0 01.886-.886l.425-.155a1.585 1.585 0 000-2.98l-.425-.155a1.48 1.48 0 01-.886-.886l-.155-.425a1.585 1.585 0 00-2.98 0zm1.69-.009c.163.06.291.188.35.35l.155.426a2.48 2.48 0 001.484 1.484l.425.155a.585.585 0 010 1.1l-.425.155a2.48 2.48 0 00-1.484 1.484l-.155.425a.585.585 0 01-1.1 0l-.155-.425a2.48 2.48 0 00-1.484-1.484l-.425-.155a.585.585 0 010-1.1l.425-.155a2.48 2.48 0 001.484-1.484l.155-.425a.585.585 0 01.75-.35z" id="border"/><path d="M4.2 1.035c.163.06.291.188.35.35l.155.426a2.48 2.48 0 001.484 1.484l.425.155a.585.585 0 010 1.1l-.425.155a2.48 2.48 0 00-1.484 1.484l-.155.425a.585.585 0 01-1.1 0l-.155-.425a2.48 2.48 0 00-1.484-1.484l-.425-.155a.585.585 0 010-1.1l.425-.155a2.48 2.48 0 001.484-1.484l.155-.425a.585.585 0 01.75-.35z" id="shape"/></g></svg>