<svg viewBox="0 0 6 6" xmlns="http://www.w3.org/2000/svg"><path d="m3.19996934.03537065c.16282273.05917557.29107466.1874275.35025023.35025024l.15461638.42543002c.25074426.68992777.79418537 1.23336888 1.48411314 1.48411314l.42543003.15461638c.30387787.11044002.46069024.44631103.35025023.75018891-.05917557.16282273-.1874275.29107466-.35025023.35025023l-.42543003.15461638c-.68992777.25074426-1.23336888.79418537-1.48411314 1.48411314l-.15461638.42543003c-.11044002.30387787-.44631103.46069024-.75018891.35025023-.16282273-.05917557-.29107466-.1874275-.35025023-.35025023l-.15461638-.42543003c-.25074426-.68992777-.79418537-1.23336888-1.48411314-1.48411314l-.42543002-.15461638c-.30387788-.11044002-.46069025-.44631103-.35025024-.75018891.05917557-.16282273.1874275-.29107466.35025024-.35025023l.42543002-.15461638c.68992777-.25074426 1.23336888-.79418537 1.48411314-1.48411314l.15461638-.42543002c.11044002-.30387788.44631103-.46069025.75018891-.35025024z" fill-rule="evenodd"/></svg>