<svg width="315" height="240" xmlns="http://www.w3.org/2000/svg"><title>Happy card cartoon</title><defs><linearGradient x1="50%" y1="100%" x2="50%" y2="0%" id="a"><stop stop-color="#FFF" offset="0%"/><stop stop-color="#A9ABB3" stop-opacity="0" offset="100%"/></linearGradient><linearGradient x1="80.229%" y1="0%" x2="39.654%" y2="88.328%" id="b"><stop stop-color="#FFF" offset="0%"/><stop stop-color="#A9ABB3" stop-opacity="0" offset="100%"/></linearGradient><linearGradient x1="19.771%" y1="0%" x2="60.498%" y2="87.941%" id="c"><stop stop-color="#FFF" offset="0%"/><stop stop-color="#A9ABB3" stop-opacity="0" offset="100%"/></linearGradient><linearGradient x1="50%" y1="0%" x2="50%" y2="100%" id="d"><stop stop-color="#FFF" offset="0%"/><stop stop-color="#99FFCA" offset="100%"/></linearGradient></defs><g fill="none" fill-rule="evenodd"><g transform="translate(12)" opacity=".4" style="mix-blend-mode:overlay"><ellipse fill="url(#a)" cx="145.5" cy="228" rx="77.5" ry="12"/><path fill="url(#b)" d="M257.063.897l33.49.383-66.575 225.887-109.36-47.18z"/><path fill="url(#c)" d="M35.063.897l141.327 179.09-109.359 47.18L.456 1.28z"/></g><g fill="#FFF" fill-rule="nonzero"><path d="M243.94 64.646a4.532 4.532 0 0 1-4.528-4.538 4.532 4.532 0 0 1 4.528-4.537c2.5 0 4.527 2.031 4.527 4.537a4.532 4.532 0 0 1-4.527 4.538zm29.616 36.955a1.808 1.808 0 0 1-2.545.286 1.818 1.818 0 0 1-.285-2.551c8.97-11.255 17.64-15.274 25.814-11.471 4.459 2.074 5.828 4.856 6.38 10.316l.127 1.314c.05.514.093.911.14 1.297.72 5.87 3.093 9.398 10.47 12.83a1.817 1.817 0 0 1 .88 2.411 1.81 1.81 0 0 1-2.405.882c-8.56-3.983-11.672-8.613-12.54-15.68a56.495 56.495 0 0 1-.15-1.384l-.126-1.304c-.436-4.32-1.249-5.97-4.301-7.39-6.322-2.941-13.41.344-21.459 10.444zm-15.142 51.055l9.127 2.451a2.368 2.368 0 0 1 1.67 2.9l-2.445 9.147a2.362 2.362 0 0 1-2.893 1.674l-9.127-2.45a2.368 2.368 0 0 1-1.67-2.9l2.445-9.148a2.362 2.362 0 0 1 2.893-1.674zM60.027 47.418l8.49-3.266a2.272 2.272 0 0 1 2.938 1.31l3.26 8.51a2.28 2.28 0 0 1-1.308 2.944l-8.491 3.266a2.272 2.272 0 0 1-2.938-1.31l-3.259-8.51a2.28 2.28 0 0 1 1.308-2.944zm-45.283 50l16.998-3.471a1.811 1.811 0 0 1 2.11 2.25l-4.017 14.957a1.81 1.81 0 0 1-2.947.889l-12.981-11.486a1.818 1.818 0 0 1 .837-3.14zm42.013 56.17a4.532 4.532 0 0 1-4.528-4.537 4.532 4.532 0 0 1 4.528-4.537c2.5 0 4.527 2.031 4.527 4.537a4.532 4.532 0 0 1-4.527 4.537z"/><path d="M11.8 49.39l32.296 29.368a2 2 0 0 1 .199 2.751l-.016.02a1.836 1.836 0 0 1-2.653.19L9.33 52.35a2 2 0 0 1-.198-2.75l.016-.02a1.836 1.836 0 0 1 2.653-.19zm286.387 99.281c1.043.742 1.285 2.218.541 3.296-.744 1.08-2.192 1.352-3.235.61l-34.94-24.848c-1.043-.742-1.285-2.217-.541-3.296.744-1.079 2.192-1.352 3.235-.61l34.94 24.848zm-6.17-93.047l-6.748 10.37c-.7 1.075-2.117 1.334-3.164.578a2.428 2.428 0 0 1-.714-.817l-5.382-9.976c-.624-1.157-.243-2.6.851-3.224a2.17 2.17 0 0 1 1.006-.284l12.13-.393c1.257-.04 2.333.991 2.401 2.305a2.413 2.413 0 0 1-.38 1.441zM3.14 135.47c3.875 4.224 7.93 6.073 12.271 5.693 1.083-.095 2.173-.474 3.39-1.163.853-.483 1.754-1.107 2.892-1.984.605-.467 2.832-2.248 3.243-2.57 5.35-4.19 9.608-6.313 15.452-6.825a1.814 1.814 0 0 1 1.96 1.656 1.818 1.818 0 0 1-1.646 1.972c-5.016.44-8.692 2.273-13.542 6.07-.386.303-2.628 2.097-3.265 2.588-1.262.972-2.292 1.685-3.318 2.266-1.637.927-3.208 1.474-4.851 1.618-5.54.486-10.657-1.847-15.247-6.851a1.828 1.828 0 0 1 .103-2.573 1.803 1.803 0 0 1 2.558.103z" opacity=".4"/></g><path d="M187.908 220.903c1.312 0 2.332 1.236 2.28 2.76-.054 1.525-1.154 2.76-2.459 2.76h-12.506l.843-3.458c2.41-9.762 3.297-16.78 2.694-20.867-.594-3.977-3.21-8.84-7.956-14.47-.93-1.096-.883-2.843.11-3.903.997-1.06 2.561-1.031 3.492.065 5.33 6.327 8.385 12.038 9.14 17.255.646 4.527-.08 11.104-2.1 19.858h6.462zm-76.33-83.38c1.39.42 2.248 1.95 1.917 3.415-.33 1.465-1.718 2.311-3.102 1.89-13.101-3.976-22.503-9.088-28.181-15.478-5.666-6.304-11.414-18.024-17.477-35.279-.524-1.47.191-2.99 1.598-3.394 1.409-.404 2.971.46 3.488 1.93 5.734 16.52 11.129 27.6 16.084 33.125 4.832 5.438 13.401 10.083 25.673 13.79zm91.856 0c12.272-3.708 20.84-8.353 25.673-13.791 4.955-5.524 10.35-16.606 16.084-33.125.517-1.47 2.08-2.334 3.488-1.93 1.407.405 2.122 1.924 1.598 3.394-6.063 17.255-11.811 28.975-17.477 35.28-5.678 6.39-15.08 11.5-28.181 15.477-1.384.421-2.772-.425-3.102-1.89-.33-1.465.527-2.994 1.917-3.416zm-76.922 83.38h6.461c-2.026-8.754-2.756-15.33-2.112-19.858.751-5.217 3.803-10.928 9.129-17.255.93-1.096 2.494-1.125 3.49-.065.995 1.06 1.044 2.807.114 3.903-4.743 5.63-7.356 10.493-7.946 14.47-.602 4.087.29 11.105 2.706 20.867l.846 3.459h-12.507c-1.304 0-2.405-1.236-2.46-2.76-.053-1.525.966-2.76 2.279-2.76z" fill="#1C1E21" fill-rule="nonzero"/><path d="M144.736 72.459c.076-1.525-1.019-2.76-2.446-2.76H44.077c-1.427 0-2.522 1.235-2.444 2.76L38.095 2.76A2.598 2.598 0 0 1 40.715 0h104.893a2.6 2.6 0 0 1 2.622 2.76l-3.494 69.699z" fill="url(#d)" transform="translate(64 68)"/><path d="M203.924 187.385h-93.45c-1.358 0-2.522-1.236-2.6-2.76l-2.276-44.856c-.078-1.525 1.018-2.76 2.446-2.76h98.278c1.429 0 2.525 1.235 2.448 2.76l-2.248 44.855c-.077 1.525-1.24 2.76-2.598 2.76z" fill="#303237"/><path d="M122.672 148.74h69.03c.706 0 1.257.618 1.23 1.38l-.096 2.76c-.027.763-.618 1.38-1.32 1.38H122.86c-.702 0-1.293-.617-1.32-1.38l-.099-2.76c-.027-.762.524-1.38 1.23-1.38zm84.692 19.322l-.139 2.76h-100.05l-.141-2.76h100.33zm-93.692 8.281h2.487c.687 0 1.269.618 1.3 1.38l.112 2.76c.031.763-.497 1.381-1.18 1.381h-2.474c-.682 0-1.264-.618-1.3-1.38l-.125-2.76c-.035-.763.493-1.38 1.18-1.38zm9.327 0h17.409c.687 0 1.253.618 1.266 1.38l.044 2.76c.012.763-.531 1.381-1.214 1.381h-17.312c-.683 0-1.26-.618-1.287-1.38l-.1-2.76c-.028-.763.507-1.38 1.194-1.38zm8.343-72.459h52.035c1.475 0 2.637 1.236 2.596 2.76a2.89 2.89 0 0 1-.12.75c-3.798 12.842-13.274 19.263-28.49 19.263-15.217 0-24.694-6.42-28.495-19.262-.44-1.467.343-2.992 1.75-3.407a2.56 2.56 0 0 1 .724-.104zm-.382-9.274c-.922 1.171-2.614 1.33-3.783.354-1.171-.976-1.377-2.717-.457-3.888l6.57-8.281c1.06-1.324 3.07-1.324 4.184 0l6.909 8.28c.969 1.172.834 2.913-.297 3.889-1.13.976-2.828.817-3.798-.354l-4.781-5.736-4.547 5.736zm43.092 0c-.97 1.171-2.668 1.33-3.798.354-1.132-.976-1.267-2.717-.3-3.888l6.904-8.281c1.114-1.324 3.123-1.324 4.184 0l6.575 8.28c.921 1.172.716 2.913-.454 3.889-1.168.976-2.86.817-3.783-.354l-4.55-5.736-4.778 5.736z" fill="#1C1E21"/></g></svg>