<svg width="224" height="134" xmlns="http://www.w3.org/2000/svg"><g fill="none" fill-rule="evenodd"><g fill="#151618"><path d="M65.537 86C75.774 86 87 96.745 87 110s-11.226 24-21.463 24C55.299 134 47 126.255 47 113c0-13.255 8.3-27 18.537-27zM61 107a6 6 0 100 12 6 6 0 000-12zM18.905 85C29.95 85 40 93.646 40 108.442S33.993 133 22.947 133C11.902 133 0 123.238 0 108.442S7.86 85 18.905 85zM28 107a6 6 0 100 12 6 6 0 000-12z"/></g><path d="M102.424 0H208c8.837 0 16 7.163 16 16v36c0 8.837-7.163 16-16 16H107.223l-21.35 7.058a4 4 0 01-5.234-4.21l5.87-56.501C87.356 6.194 94.227 0 102.424 0z" fill="#151618"/><g fill="#FFF" font-family="DejaVuSansMono-Bold, DejaVu Sans Mono" font-weight="bold"><text font-size="14" letter-spacing=".8" transform="translate(104 8)"><tspan x="0" y="13">HELLO</tspan></text><text font-size="24" letter-spacing=".4" transform="translate(104 8)"><tspan x="0" y="42">WORLD!?</tspan></text></g></g></svg>