<?xml version="1.0" encoding="UTF-8"?>
<svg width="32" height="18" viewBox="0 0 32 18" version="1.1" xmlns="http://www.w3.org/2000/svg" xmlns:xlink="http://www.w3.org/1999/xlink">
    <title>Logo/Icon</title>
    <g id="Logo/Icon" stroke="none" stroke-width="1" fill="none" fill-rule="evenodd">
        <path d="M26.632694,8.68961573 L23.2090303,5.25878416 L24.9199701,1.82914452 L30.4827544,7.40357537 C31.191531,8.11383585 31.191531,9.26539562 30.4827544,9.9756561 L23.6360219,16.8367233 C22.9272453,17.5469838 21.7780914,17.5469838 21.0693149,16.8367233 C20.3605383,16.1264628 20.3605383,14.974903 21.0693149,14.2646425 L26.632694,8.68961573 Z" id="Combined-Shape" fill-opacity="0.64" fill="var(--theme-primary)" fill-rule="nonzero"></path>
        <path d="M21.0705907,0.535783818 C21.7793672,-0.174476665 22.9288184,-0.174178681 23.637595,0.536081801 L24.9212458,1.82242015 L9.94502195,16.8299989 C9.23624539,17.5402594 8.08679418,17.5399614 7.37801762,16.8297009 L6.09436678,15.5433626 L21.0705907,0.535783818 Z M14.6520391,5.25265576 L12.0847374,7.82533246 L8.66107374,4.39450089 L4.38164287,8.68289136 L7.80530651,12.1137229 L6.09436678,15.5433626 L0.531582418,9.96893173 C-0.177194139,9.25867125 -0.177194139,8.10711148 0.531582418,7.39685099 L7.37801762,0.536081801 C8.08679418,-0.174178681 9.23624539,-0.174476665 9.94502195,0.535783818 L14.6520391,5.25265576 Z" id="Main" fill="var(--theme-primary)" fill-rule="nonzero"></path>
    </g>
</svg>