<?xml version="1.0" encoding="UTF-8"?>
<svg width="63" height="18" viewBox="0 0 63 18" version="1.1" xmlns="http://www.w3.org/2000/svg" xmlns:xlink="http://www.w3.org/1999/xlink">
    <title>Logo/Text</title>
    <g id="Logo/Text" stroke="none" stroke-width="1" fill="none" fill-rule="evenodd">
        <path d="M2.63613616,5.89211157 L2.63613616,11.7194747 L5.83704812,11.7194747 L6.51548674,13.6619289 L2.63613616,13.6619289 C1.56700259,13.6619289 0.700298587,12.7922625 0.700298587,11.7194745 L0.700298587,5.89211157 C0.700298587,4.81932364 1.56700259,3.9496572 2.63613616,3.9496572 L5.83704812,3.9496572 L5.83704812,5.89211157 L6.51548674,5.89211157 L6.51548674,2.00720284 C6.51548674,1.47080888 6.94941148,1.03597566 7.48468477,1.03597566 L8.4538828,1.03597566 L8.4538828,12.6907017 C8.4538828,13.2270957 8.01995806,13.6619289 7.48468477,13.6619289 L6.51548674,13.6619289 L6.51548674,5.89211156 L2.63613616,5.89211157 Z M12.3281256,13.6619464 C11.2589927,13.6619464 10.3922788,12.7922747 10.3922788,11.7194873 L10.3922788,9.77702029 C10.3922788,8.70423237 11.2589829,7.83456593 12.3281164,7.83456593 L15.5290284,7.83456593 L15.5290284,9.77702029 L16.207467,9.77702029 L16.207467,5.89211157 L10.8762382,5.89211157 L10.8762397,4.92088438 C10.8762397,4.38449099 11.3095908,3.9496572 11.844157,3.9496572 L16.207467,3.9496572 C17.2780136,3.9496572 18.1458718,4.81932364 18.1458718,5.89211156 L18.1458718,12.6907193 C18.1458718,13.2271132 17.711947,13.6619464 17.1766737,13.6619464 L16.207467,13.6619464 L16.207467,9.77702029 L12.3281164,9.77702029 L12.3281164,11.7194747 L15.5290284,11.7194747 L16.207467,13.6619464 C13.8178184,13.6619464 12.5247046,13.6619464 12.3281256,13.6619464 Z M20.0842591,13.661929 L20.0842591,4.92088438 C20.0842591,4.38449042 20.5176111,3.9496572 21.0521779,3.9496572 L22.0200967,3.9496572 L22.0200967,12.6907018 C22.0200967,13.2270958 21.5867447,13.661929 21.0521779,13.661929 L20.0842591,13.661929 Z M22.0200967,2.01355073 C22.0200967,2.28439539 21.9273124,2.51291715 21.741741,2.69912286 C21.5561695,2.88532857 21.3284262,2.97843002 21.0585042,2.97843002 C20.7885821,2.97843002 20.5587301,2.88532857 20.3689411,2.69912286 C20.1791522,2.51291715 20.0842591,2.28439539 20.0842591,2.01355073 C20.0842591,1.73424217 20.1791522,1.50148853 20.3689411,1.31528282 C20.5587301,1.12907712 20.7885821,1.03597566 21.0585042,1.03597566 C21.3284262,1.03597566 21.5561695,1.12907712 21.741741,1.31528282 C21.9273124,1.50148853 22.0200967,1.73424217 22.0200967,2.01355073 Z M23.9610512,13.661929 L23.9610512,2.00720284 C23.9610512,1.47080888 24.3944032,1.03597566 24.92897,1.03597566 L25.8968888,1.03597566 L25.8968888,12.6907018 C25.8968888,13.2270958 25.4635368,13.661929 24.92897,13.661929 L23.9610512,13.661929 Z M30.493294,13.6658284 L27.8797986,5.44636507 C27.7235064,4.93340897 28.0179525,4.39044297 28.5291613,4.23361655 L29.4498994,3.9496572 L31.5821351,10.9302664 L33.5011472,4.63718262 C33.6574394,4.12422652 34.191744,3.83552638 34.7029527,3.99235279 L35.5914275,4.27631214 L32.2993416,15.2007225 C32.050525,16.0173467 31.2992018,16.5751432 30.4481734,16.5752581 L28.8478477,16.5756105 C28.3132809,16.5756105 27.8798706,16.140908 27.8797986,15.6045141 L27.8799289,14.6331562 L29.4886674,14.6331562 C30.0217171,14.6331562 30.4911539,14.2006959 30.493294,13.6658284 Z" id="daily" fill="var(--theme-primary)"></path>
        <path d="M38.7494747,13.7883427 L38.7494747,12.4159216 L37.3415222,12.4159216 L37.3415222,13.7883427 L38.7494747,13.7883427 Z M42.9605324,13.8781273 C43.643176,13.8781273 44.2212898,13.7071091 44.6948738,13.3650726 C45.1684578,13.0230362 45.4991133,12.5655625 45.6868403,11.9926516 L45.6868403,11.9926516 L45.6868403,13.7883427 L46.851601,13.7883427 L46.851601,4.29683238 L45.6868403,4.29683238 L45.6868403,8.54235929 C45.4991133,7.96944831 45.1684578,7.51197461 44.6948738,7.16993821 C44.2212898,6.8279018 43.643176,6.65688359 42.9605324,6.65688359 C42.3376201,6.65688359 41.7829722,6.80224907 41.2965886,7.09298001 C40.8102051,7.38371096 40.4283513,7.80270556 40.1510273,8.34996381 C39.8737034,8.89722207 39.7350414,9.53854033 39.7350414,10.2739186 C39.7350414,11.0092969 39.8737034,11.6484774 40.1510273,12.1914602 C40.4283513,12.734443 40.8102051,13.1512999 41.2965886,13.4420308 C41.7829722,13.7327618 42.3376201,13.8781273 42.9605324,13.8781273 Z M43.2933212,12.852018 C42.5765454,12.852018 42.0026981,12.6232812 41.5717793,12.1658075 C41.1408606,11.7083338 40.9254012,11.0777042 40.9254012,10.2739186 C40.9254012,9.47013305 41.1408606,8.83950342 41.5717793,8.38202973 C42.0026981,7.92455603 42.5765454,7.69581918 43.2933212,7.69581918 C43.7541056,7.69581918 44.165825,7.80056783 44.5284794,8.01006513 C44.8911339,8.21956243 45.1748576,8.52098202 45.3796507,8.91432389 C45.5844438,9.30766576 45.6868403,9.760864 45.6868403,10.2739186 C45.6868403,10.7869732 45.5844438,11.2380337 45.3796507,11.6271002 C45.1748576,12.0161666 44.8911339,12.3175861 44.5284794,12.5313589 C44.165825,12.7451317 43.7541056,12.852018 43.2933212,12.852018 Z M51.8178332,13.8781273 C52.4066133,13.8781273 52.9356621,13.7712409 53.4049796,13.5574681 C53.874297,13.3436954 54.2561508,13.0444135 54.5505409,12.6596226 C54.8449309,12.2748316 55.0347912,11.8387352 55.1201216,11.3513333 L55.1201216,11.3513333 L53.8785636,11.3513333 C53.7932331,11.8301843 53.5607076,12.2128375 53.1809871,12.499293 C52.8012666,12.7857485 52.3298159,12.9289762 51.7666349,12.9289762 C51.1437226,12.9289762 50.6168071,12.7280298 50.1858883,12.3261371 C49.7549695,11.9242443 49.5267106,11.3214051 49.5011114,10.5176196 L49.5011114,10.5176196 L55.1201216,10.5176196 C55.1542538,10.3380504 55.1713199,10.1242777 55.1713199,9.87630129 C55.1713199,9.28628848 55.0369244,8.74758114 54.7681335,8.26017926 C54.4993426,7.77277738 54.111089,7.38371096 53.6033729,7.09298001 C53.0956567,6.80224907 52.5004768,6.65688359 51.8178332,6.65688359 C51.1437226,6.65688359 50.5464095,6.80224907 50.0258937,7.09298001 C49.505378,7.38371096 49.0979251,7.80270556 48.803535,8.34996381 C48.509145,8.89722207 48.3619499,9.53854033 48.3619499,10.2739186 C48.3619499,11.0092969 48.509145,11.6484774 48.803535,12.1914602 C49.0979251,12.734443 49.505378,13.1512999 50.0258937,13.4420308 C50.5464095,13.7327618 51.1437226,13.8781273 51.8178332,13.8781273 Z M53.9937597,9.95325948 L49.5011114,9.95325948 C49.5352436,9.18367756 49.7699024,8.60007794 50.2050877,8.20246061 C50.640273,7.80484329 51.1778548,7.60603463 51.8178332,7.60603463 C52.2188863,7.60603463 52.5900738,7.69154373 52.9313956,7.86256193 C53.2727174,8.03358014 53.5415083,8.2943829 53.7377683,8.64497022 C53.9340284,8.99555753 54.0193588,9.43165396 53.9937597,9.95325948 L53.9937597,9.95325948 Z M60.0991534,13.7883427 L62.8510604,6.74666815 L61.5967028,6.74666815 L59.4207763,12.5441853 L57.2192507,6.74666815 L55.9648931,6.74666815 L58.7168001,13.7883427 L60.0991534,13.7883427 Z" id=".dev" fill-opacity="0.64" fill="var(--theme-primary)" fill-rule="nonzero"></path>
    </g>
</svg>