<svg width="315" height="240" xmlns="http://www.w3.org/2000/svg"><defs><linearGradient x1="50%" y1="0%" x2="50%" y2="100%" id="a"><stop stop-color="#C9E7FF" offset="0%"/><stop stop-color="#99CAFF" offset="100%"/></linearGradient><linearGradient x1="50%" y1="0%" x2="50%" y2="100%" id="b"><stop stop-color="#C9E7FF" offset="0%"/><stop stop-color="#99CAFF" offset="100%"/></linearGradient><linearGradient x1="50%" y1="0%" x2="50%" y2="100%" id="c"><stop stop-color="#C9E7FF" offset="0%"/><stop stop-color="#99CAFF" offset="100%"/></linearGradient><linearGradient x1="50%" y1="0%" x2="50%" y2="100%" id="d"><stop stop-color="#BDC0C5" offset="0%"/><stop stop-color="#BDC0C5" stop-opacity="0" offset="100%"/></linearGradient><linearGradient x1="50%" y1="0%" x2="50%" y2="100%" id="e"><stop stop-color="#BDC0C5" offset="0%"/><stop stop-color="#BDC0C5" stop-opacity="0" offset="100%"/></linearGradient><linearGradient x1="100%" y1="66.327%" x2="0%" y2="33.673%" id="f"><stop stop-color="#F58301" offset="0%"/><stop stop-color="#FFA947" offset="100%"/></linearGradient><linearGradient x1="50%" y1="0%" x2="50%" y2="100%" id="g"><stop stop-color="#C9E7FF" offset="0%"/><stop stop-color="#99CAFF" offset="100%"/></linearGradient></defs><g fill="none" fill-rule="evenodd"><path d="M195.161 146.935C195.975 133.58 207.142 123 220.8 123c11.016 0 20.409 6.883 24.06 16.552 9.486.114 17.141 7.778 17.141 17.221 0 9.515-7.769 17.227-17.353 17.227h-49.01c-7.53 0-13.637-6.06-13.637-13.538 0-7.318 5.85-13.277 13.161-13.527z" fill="url(#a)"/><path d="M93.13 78a18.625 18.625 0 0117.443 12.008c6.877.083 12.427 5.643 12.427 12.494 0 6.903-5.632 12.498-12.581 12.498H74.887c-5.46 0-9.887-4.397-9.887-9.822 0-5.309 4.241-9.632 9.542-9.813C75.132 85.676 83.228 78 93.129 78z" fill="url(#b)"/><path d="M244.1 102.386c.315-5.237 4.643-9.386 9.935-9.386 4.268 0 7.908 2.7 9.323 6.49 3.676.046 6.642 3.051 6.642 6.754 0 3.732-3.01 6.756-6.724 6.756h-18.992c-2.918 0-5.284-2.377-5.284-5.309 0-2.87 2.267-5.206 5.1-5.305z" fill="url(#c)" transform="matrix(-1 0 0 1 509 0)"/><path d="M152 208v28h-8v-28a4 4 0 118 0z" fill="url(#d)" opacity=".4"/><path d="M176 204v36h-8v-36a4 4 0 118 0z" fill="url(#e)" opacity=".4"/><path d="M164 200v28h-8v-28a4 4 0 118 0z" fill="url(#d)" opacity=".4"/><path d="M112 64a2.828 2.828 0 00-2.83-2.83H2.832A2.83 2.83 0 000 64V2.832A2.832 2.832 0 012.832 0H109.17A2.83 2.83 0 01112 2.832V64z" fill="url(#f)" transform="translate(102 68)"/><path d="M151.047 86.667h13.904a3.333 3.333 0 013.327 3.13l1.385 22.652a.833.833 0 01-1.327.72l-9.347-6.905a1.667 1.667 0 00-1.98 0l-9.347 6.906a.833.833 0 01-1.327-.721l1.385-22.652a3.333 3.333 0 013.327-3.13z" fill="#FFF"/><g><path d="M210 192H104.832c-1.564 0-2.832-1.302-2.832-2.91v-58.18c0-1.608 1.268-2.91 2.832-2.91H211.17c1.564 0 2.83 1.302 2.83 2.91v56.982c0 2.269-1.79 4.108-4 4.108z" fill="#BDC0C5"/><path d="M111.5 181a1.5 1.5 0 011.5 1.5v3a1.5 1.5 0 01-1.5 1.5h-3a1.5 1.5 0 01-1.5-1.5v-3a1.5 1.5 0 011.5-1.5h3zm28 0a1.5 1.5 0 011.5 1.5v3a1.5 1.5 0 01-1.5 1.5h-21a1.5 1.5 0 01-1.5-1.5v-3a1.5 1.5 0 011.5-1.5h21zm74.5-8v3H102v-3h112zm-41.333-22c.736 0 1.333.672 1.333 1.5v3c0 .828-.597 1.5-1.333 1.5h-29.334c-.736 0-1.333-.672-1.333-1.5v-3c0-.828.597-1.5 1.333-1.5h29.334zm23.904-11c.79 0 1.429.672 1.429 1.5v3c0 .828-.64 1.5-1.429 1.5H119.43c-.79 0-1.429-.672-1.429-1.5v-3c0-.828.64-1.5 1.429-1.5h77.142z" fill="#FFF"/></g><path d="M129.903 170.323C128.783 151.73 113.43 137 94.65 137c-15.145 0-28.062 9.583-33.082 23.043C48.525 160.2 38 170.87 38 184.018 38 197.262 48.683 208 61.86 208h67.388c10.356 0 18.752-8.438 18.752-18.848-.001-10.188-8.045-18.482-18.097-18.83z" fill="url(#g)"/></g></svg>