<svg viewBox="0 0 210 54" xmlns="http://www.w3.org/2000/svg"><g fill="none" fill-rule="evenodd"><path d="m177.777778 14v17.7777778c0 12.2729944-9.949228 22.2222222-22.222222 22.2222222h-155.555556v-17.7777778c0-12.2729944 9.94922778-22.2222222 22.2222222-22.2222222zm14.622161 6.0707413c.325645.1183511.582149.374855.7005.7005005l.309233.85086c.501488 1.3798556 1.588371 2.4667378 2.968226 2.9682263l.85086.3092328c.607756.22088.921381.892622.700501 1.5003778-.118351.3256454-.374855.5821493-.700501.7005004l-.85086.3092328c-1.379855.5014885-2.466738 1.5883707-2.968226 2.9682263l-.309233.85086c-.22088.6077558-.892622.9213805-1.500378.7005005-.325645-.1183511-.582149-.374855-.7005-.7005005l-.309233-.85086c-.501488-1.3798556-1.588371-2.4667378-2.968226-2.9682263l-.85086-.3092328c-.607756-.22088-.921381-.892622-.700501-1.5003778.118351-.3256454.374855-.5821493.700501-.7005004l.85086-.3092328c1.379855-.5014885 2.466738-1.5883707 2.968226-2.9682263l.309233-.85086c.22088-.6077558.892622-.9213805 1.500378-.7005005zm10.133313-19.97641956c.434194.15780151.776199.49980665.934.93400062l.412311 1.13448007c.668651 1.8398074 2.117827 3.28898367 3.957635 3.95763503l1.13448.41231036c.810341.29450671 1.228507 1.19016274.934 2.00050374-.157801.43419397-.499806.77619911-.934.93400062l-1.13448.41231036c-1.839808.66865136-3.288984 2.11782766-3.957635 3.95763506l-.412311 1.13448c-.294507.810341-1.190163 1.2285074-2.000504.9340007-.434194-.1578016-.776199-.4998067-.934-.9340007l-.412311-1.13448c-.668651-1.8398074-2.117827-3.2889837-3.957635-3.95763506l-1.13448-.41231036c-.810341-.29450671-1.228507-1.19016274-.934-2.00050374.157801-.43419397.499806-.77619911.934-.93400062l1.13448-.41231036c1.839808-.66865136 3.288984-2.11782763 3.957635-3.95763503l.412311-1.13448007c.294507-.810341 1.190163-1.22850733 2.000504-.93400062zm-20.266626 1.95283913c.217097.07890076.388099.24990333.467.46700031l.206155.56724003c.334326.9199037 1.058914 1.64449184 1.978818 1.97881752l.56724.20615518c.40517.14725335.614253.59508137.467 1.00025187-.078901.21709698-.249903.38809956-.467.46700031l-.56724.20615518c-.919904.33432568-1.644492 1.05891382-1.978818 1.97881752l-.206155.56724003c-.147253.4051705-.595081.61425368-1.000252.46700031-.217097-.07890076-.388099-.24990333-.467-.46700031l-.206155-.56724003c-.334326-.9199037-1.058914-1.64449184-1.978818-1.97881752l-.56724-.20615518c-.40517-.14725335-.614253-.59508137-.467-1.00025187.078901-.21709698.249903-.38809956.467-.46700031l.56724-.20615518c.919904-.33432568 1.644492-1.05891382 1.978818-1.97881752l.206155-.56724003c.147253-.4051705.595081-.61425366 1.000252-.46700031z" fill="#000"/><path d="m25.1850716 23.0198913c.6030472.2191688 1.0780543.6941759 1.2972231 1.2972231l.5726533 1.5756667c.9286824 2.5552881 2.9414272 4.5680329 5.4967153 5.4967154l1.5756668.5726532c1.1254736.4090371 1.7062601 1.6530039 1.297223 2.7784775-.2191687.6030471-.6941759 1.0780543-1.297223 1.2972231l-1.5756668.5726532c-2.5552881.9286825-4.5680329 2.9414273-5.4967153 5.4967154l-.5726533 1.5756667c-.4090371 1.1254736-1.6530038 1.7062602-2.7784774 1.2972231-.6030472-.2191688-1.0780543-.6941759-1.2972231-1.2972231l-.5726533-1.5756667c-.9286824-2.5552881-2.9414273-4.5680329-5.4967153-5.4967154l-1.5756668-.5726532c-1.1254736-.4090371-1.7062601-1.6530039-1.297223-2.7784775.2191687-.6030471.6941759-1.0780543 1.297223-1.2972231l1.5756668-.5726532c2.555288-.9286825 4.5680329-2.9414273 5.4967153-5.4967154l.5726533-1.5756667c.4090371-1.1254736 1.6530038-1.7062602 2.7784774-1.2972231zm100.4991354 2.0912198v10.3225807l.011235.4471148c.059924 1.1582403.359539 2.0439534.898847 2.6571395.606722.6898343 1.48356 1.0347514 2.630513 1.0347514 1.130331 0 1.998857-.3449171 2.605579-1.0347514.539308-.6131861.838924-1.4988992.898847-2.6571395l.011236-.4471148v-10.3225807h3.490727v10.3225807l-.01422.5989948c-.06636 1.3699288-.364981 2.5457769-.895862 3.527544-.606722 1.1220197-1.446159 1.957301-2.518311 2.5058439s-2.289751.8228144-3.652797.8228144c-2.111059 0-3.798244-.6316555-5.061555-1.8949665-1.166134-1.1661332-1.794051-2.8350729-1.883754-5.006819l-.011213-.5534116v-10.3225807zm-74.8317837 0 .5540036.0123639c1.8044356.0824256 3.1864396.5769798 4.1460119 1.4836623 1.0555296.9973508 1.5832944 2.3520856 1.5832944 4.0642044 0 1.6788739-.5443873 3.0169862-1.6331619 4.014337-.9897951.9066825-2.360809 1.4012366-4.1130417 1.4836623l-.5371063.0123638h-2.8923173v6.5326477h-3.5156616v-17.6032414zm16.3925683 0 .545555.0123639c1.7783342.0824256 3.1548431.5769798 4.1295268 1.4836623 1.0721521.9973508 1.6082282 2.3105293 1.6082282 3.9395356 0 1.329801-.369851 2.4435094-1.1095528 3.3411251-.6575127.7978807-1.5744188 1.3593522-2.7507181 1.6844147l-.4532713.1108168 4.3883435 7.031323h-3.8896681l-4.114072-6.8567867h-1.5458937v6.8567867h-3.5156615v-17.6032414zm20.2573027 0v2.7925822h-6.9814556v4.5628799h6.2334425v2.6928471h-6.2334425v4.7374162h6.9814556v2.817516h-10.4971171v-17.6032414zm7.9649542.1994702 5.2859595 13.090229 5.186224-13.090229h4.238741v17.4037712h-3.490728v-12.1427458l-4.463145 12.1427458h-3.0419199l-4.4631447-12.0928783v12.0928783h-3.5156616v-17.4037712zm22.5262755-.1994702v17.6032414h-3.515661v-17.6032414zm26.701297.1994702 5.285959 13.090229 5.186224-13.090229h4.238741v17.4037712h-3.490728v-12.1427458l-4.463144 12.1427458h-3.04192l-4.463145-12.0928783v12.0928783h-3.515662v-17.4037712zm-77.7490346 2.7676484h-2.8923173v5.3607605h2.8923173c2.0113241 0 3.0169861-.8893045 3.0169861-2.6679134 0-.8477481-.2451821-1.508493-.7355462-1.9822347-.4290686-.4145239-1.0649447-.6476936-1.9076282-.6995091zm-16.4673697-.1246688h-2.5183107v5.410628h2.5183107c2.0611916 0 3.0917874-.8976157 3.0917874-2.6928472 0-.8809931-.2410264-1.5542049-.7230793-2.0196353-.4217962-.4072516-1.0790348-.6363306-1.9717157-.687237z" fill="#fff"/></g></svg>