<svg width="344" height="293" xmlns="http://www.w3.org/2000/svg"><title>New tab illustration</title><defs><linearGradient x1="100%" y1="50%" x2="0%" y2="50%" id="a"><stop stop-color="#0076F5" offset="0%"/><stop stop-color="#00E4F5" offset="100%"/></linearGradient><linearGradient x1="0%" y1="50%" y2="50%" id="b"><stop stop-color="#4C5057" offset="0%"/><stop stop-color="#303237" offset="100%"/></linearGradient><linearGradient x1="100%" y1="50%" x2="0%" y2="50%" id="c"><stop stop-color="#FF468E" offset="0%"/><stop stop-color="#AD20FF" offset="100%"/></linearGradient><linearGradient x1="100%" y1="50%" x2="0%" y2="50%" id="d"><stop stop-color="#4C5057" offset="0%"/><stop stop-color="#303237" offset="100%"/></linearGradient></defs><g fill="none" fill-rule="evenodd"><path d="M66.667 20H24c-8.837 0-16 7.163-16 16v241c0 8.837 7.163 16 16 16h296c8.837 0 16-7.163 16-16V36c0-8.837-7.163-16-16-16H192.333l-6.798-14.567C184.134 2.43 180.313 0 177 0H82c-3.316 0-7.136 2.432-8.536 5.433L66.667 20z" fill="#303237"/><path d="M87 8.308h1.25l2.46 6v-6h.953v7.29h-1.25l-2.46-6.001v6H87v-7.29zm11 4.33v.44h-3.892v.03c0 .595.156 1.056.467 1.381.31.326.75.489 1.316.489.286 0 .586-.046.898-.137.313-.091.646-.23 1.001-.415v.893a6.06 6.06 0 0 1-.989.315c-.317.07-.624.105-.92.105-.85 0-1.514-.254-1.992-.764-.479-.51-.718-1.212-.718-2.107 0-.872.234-1.569.703-2.09.469-.52 1.094-.78 1.875-.78.697 0 1.246.235 1.648.707.402.472.603 1.117.603 1.934zm-.898-.263c-.013-.527-.138-.929-.374-1.204-.236-.275-.575-.412-1.018-.412-.433 0-.79.143-1.07.43-.28.286-.445.683-.497 1.19l2.959-.004zm1.717-2.246h.89l.951 4.419.782-2.822h.766l.791 2.822.952-4.42h.889l-1.28 5.47h-.859l-.874-2.998-.869 2.998h-.86l-1.279-5.47zm12.728-1.821h5.562v.83h-2.28v6.46h-.992v-6.46h-2.29v-.83zm10.287 4.54h-1.137c-.525 0-.92.093-1.185.277-.265.183-.397.458-.397.822 0 .329.099.585.297.767.199.182.474.273.826.273.494 0 .883-.171 1.167-.515.283-.343.426-.818.43-1.423v-.2zm.904-.37v3.12h-.904v-.81a1.854 1.854 0 0 1-.725.72c-.291.154-.645.231-1.062.231-.556 0-1-.157-1.333-.47-.332-.315-.498-.736-.498-1.263 0-.609.204-1.071.613-1.387.408-.316 1.008-.473 1.8-.473h1.205v-.142c-.003-.436-.114-.753-.332-.95-.218-.197-.566-.295-1.045-.295-.306 0-.615.044-.927.132a4.043 4.043 0 0 0-.914.385v-.898c.333-.127.65-.222.955-.286.304-.063.6-.095.886-.095.453 0 .84.067 1.16.2.32.134.58.334.779.6.123.164.211.365.263.604.053.24.079.598.079 1.077zm5.56.39c0-.696-.11-1.222-.332-1.577-.221-.355-.548-.532-.981-.532-.436 0-.767.178-.992.534-.224.357-.336.882-.336 1.575 0 .69.112 1.214.336 1.572.225.359.556.538.992.538.433 0 .76-.178.981-.533.222-.355.332-.88.332-1.577zm-2.641-2.04c.143-.268.34-.473.593-.616.252-.143.544-.215.876-.215.658 0 1.175.253 1.553.76.378.506.566 1.203.566 2.092 0 .901-.19 1.609-.568 2.121-.38.513-.9.77-1.56.77-.326 0-.613-.072-.862-.213a1.562 1.562 0 0 1-.598-.618v.689h-.899V8h.899v2.827z" fill="#A9ABB3" fill-rule="nonzero"/><path d="M32 56h280a8 8 0 0 1 8 8v205a8 8 0 0 1-8 8H32a8 8 0 0 1-8-8V64a8 8 0 0 1 8-8z" fill="#151618"/><g fill="#686E78"><path d="M35 37.813h-8.367l3.84-3.84L29.5 33 24 38.5l5.5 5.5.973-.973-3.84-3.84H35zM54 37.813h8.367l-3.84-3.84L59.5 33l5.5 5.5-5.5 5.5-.973-.973 3.84-3.84H54zM97.384 34.616A5.465 5.465 0 0 0 93.5 33a5.493 5.493 0 0 0-5.493 5.5c0 3.039 2.454 5.5 5.493 5.5a5.488 5.488 0 0 0 5.314-4.125h-1.43a4.119 4.119 0 0 1-3.884 2.75 4.124 4.124 0 0 1-4.125-4.125 4.124 4.124 0 0 1 4.125-4.125c1.138 0 2.159.474 2.905 1.22l-2.218 2.217H99V33l-1.616 1.616z"/></g><g><g transform="translate(31.1 8)"><circle fill="#FF7071" cx="3" cy="3" r="3"/><circle fill="#FFBC70" cx="13" cy="3" r="3"/><circle fill="#BCFF70" cx="23" cy="3" r="3"/></g></g><g><path d="M160 89a4 4 0 0 0-4-4H4a4 4 0 0 0-4 4V4a4 4 0 0 1 4-4h152a4 4 0 0 1 4 4v85z" fill="url(#a)" transform="translate(0 80)"/><path d="M156 88H4a4 4 0 0 1-4-4V4a4 4 0 0 1 4-4h152a4 4 0 0 1 4 4v80a4 4 0 0 1-4 4z" fill="url(#b)" transform="translate(0 165)"/><path d="M160 225v4H0v-4h160zM26 181h108a2 2 0 0 1 2 2v4a2 2 0 0 1-2 2H26a2 2 0 0 1-2-2v-4a2 2 0 0 1 2-2zm32 16h44a2 2 0 0 1 2 2v4a2 2 0 0 1-2 2H58a2 2 0 0 1-2-2v-4a2 2 0 0 1 2-2zm-48 40h4a2 2 0 0 1 2 2v4a2 2 0 0 1-2 2h-4a2 2 0 0 1-2-2v-4a2 2 0 0 1 2-2zm15 0h28a2 2 0 0 1 2 2v4a2 2 0 0 1-2 2H25a2 2 0 0 1-2-2v-4a2 2 0 0 1 2-2z" fill="#1C1E21"/><g fill="#FFF"><path d="M20 96h42a4 4 0 1 1 0 8H20a4 4 0 1 1 0-8zm11 48h8a4 4 0 1 1 0 8h-8a4 4 0 1 1 0-8zm64 0h45a4 4 0 1 1 0 8H95a4 4 0 1 1 0-8z"/><path d="M31 112h14a4 4 0 1 1 0 8H31a4 4 0 1 1 0-8zm43-16h4a4 4 0 1 1 0 8h-4a4 4 0 1 1 0-8zm-23 48h32a4 4 0 1 1 0 8H51a4 4 0 1 1 0-8z" opacity=".56"/><path d="M106 112h22a4 4 0 1 1 0 8h-22a4 4 0 1 1 0-8zm-30 16h29a4 4 0 1 1 0 8H76a4 4 0 1 1 0-8z" opacity=".8"/><path d="M90 96h26a4 4 0 1 1 0 8H90a4 4 0 1 1 0-8zm-33 16h37a4 4 0 1 1 0 8H57a4 4 0 1 1 0-8zm-15 16h22a4 4 0 1 1 0 8H42a4 4 0 1 1 0-8z" opacity=".24"/></g></g><g><path d="M160 89a4 4 0 0 0-4-4H4a4 4 0 0 0-4 4V4a4 4 0 0 1 4-4h152a4 4 0 0 1 4 4v85z" fill="url(#c)" transform="translate(184 80)"/><path d="M156 88H4a4 4 0 0 1-4-4V4a4 4 0 0 1 4-4h152a4 4 0 0 1 4 4v80a4 4 0 0 1-4 4z" fill="url(#d)" transform="translate(184 165)"/><path d="M344 225v4H184v-4h160zm-134-44h108a2 2 0 0 1 2 2v4a2 2 0 0 1-2 2H210a2 2 0 0 1-2-2v-4a2 2 0 0 1 2-2zm32 16h44a2 2 0 0 1 2 2v4a2 2 0 0 1-2 2h-44a2 2 0 0 1-2-2v-4a2 2 0 0 1 2-2zm-48 40h4a2 2 0 0 1 2 2v4a2 2 0 0 1-2 2h-4a2 2 0 0 1-2-2v-4a2 2 0 0 1 2-2zm15 0h28a2 2 0 0 1 2 2v4a2 2 0 0 1-2 2h-28a2 2 0 0 1-2-2v-4a2 2 0 0 1 2-2z" fill="#1C1E21"/><g fill="#FFF"><path d="M204 96h22a4 4 0 1 1 0 8h-22a4 4 0 1 1 0-8zm0 48h52a4 4 0 1 1 0 8h-52a4 4 0 1 1 0-8z"/><path d="M226 112h32a4 4 0 1 1 0 8h-32a4 4 0 1 1 0-8zm12-16h42a4 4 0 1 1 0 8h-42a4 4 0 1 1 0-8zm30 48h32a4 4 0 1 1 0 8h-32a4 4 0 1 1 0-8z" opacity=".56"/><path d="M290 112h22a4 4 0 1 1 0 8h-22a4 4 0 1 1 0-8zm26 16h8a4 4 0 1 1 0 8h-8a4 4 0 1 1 0-8z" opacity=".8"/><path d="M292 96h8a4 4 0 1 1 0 8h-8a4 4 0 1 1 0-8zm-22 16h8a4 4 0 1 1 0 8h-8a4 4 0 1 1 0-8zm12 16h22a4 4 0 1 1 0 8h-22a4 4 0 1 1 0-8z" opacity=".24"/></g></g></g></svg>