<?xml version="1.0" encoding="UTF-8"?>
<svg width="24px" height="24px" viewBox="0 0 24 24" version="1.1" xmlns="http://www.w3.org/2000/svg" xmlns:xlink="http://www.w3.org/1999/xlink">
    <!-- Generator: Sketch 52.5 (67469) - http://www.bohemiancoding.com/sketch -->
    <title>Bag</title>
    <desc>Created with Sketch.</desc>
    <g id="Icons" stroke="none" stroke-width="1" fill="none" fill-rule="evenodd">
        <g id="Bag" fill="#FFFFFF" fill-rule="nonzero">
            <path d="M5.9311192,7 L18.0688808,7 C18.5935195,7 19.0289605,7.40544755 19.0663395,7.92875295 L19.8469647,18.8575059 C19.925662,19.9592684 19.0963039,20.9162201 17.9945414,20.9949174 C17.9471189,20.9983047 17.8995907,21 17.8520473,21 L6.14795269,21 C5.04338319,21 4.14795269,20.1045695 4.14795269,19 C4.14795269,18.9524567 4.14964797,18.9049284 4.15303529,18.8575059 L4.9336605,7.92875295 C4.97103946,7.40544755 5.40648054,7 5.9311192,7 Z M9,10 C9.55228475,10 10,9.55228475 10,9 C10,8.44771525 9.55228475,8 9,8 C8.44771525,8 8,8.44771525 8,9 C8,9.55228475 8.44771525,10 9,10 Z M15,10 C15.5522847,10 16,9.55228475 16,9 C16,8.44771525 15.5522847,8 15,8 C14.4477153,8 14,8.44771525 14,9 C14,9.55228475 14.4477153,10 15,10 Z" id="Combined-Shape"></path>
            <path d="M14,5 L10,5 L10,7.5 L8,7.5 L8,5 C8,3.8954305 8.8954305,3 10,3 L14,3 C15.1045695,3 16,3.8954305 16,5 L16,7.5 L14,7.5 L14,5 Z" id="Path"></path>
        </g>
    </g>
</svg>