<?xml version="1.0" encoding="UTF-8"?>
<svg width="282px" height="204px" viewBox="0 0 282 204" version="1.1" xmlns="http://www.w3.org/2000/svg" xmlns:xlink="http://www.w3.org/1999/xlink">
    <!-- Generator: Sketch 52.2 (67145) - http://www.bohemiancoding.com/sketch -->
    <title>Artboard</title>
    <desc>Created with Sketch.</desc>
    <g id="Artboard" stroke="none" stroke-width="1" fill="none" fill-rule="evenodd">
        <rect id="Rectangle" fill="#1C1E21" fill-rule="nonzero" x="0" y="0" width="282" height="204"></rect>
        <g id="logo" transform="translate(102.000000, 80.000000)">
            <path d="M67.0950546,22.2529969 L58.5716798,13.6240561 L62.8297484,5 L76.6775184,19.0192812 C78.4408272,20.8055376 78.4408272,23.7004562 76.6775184,25.4867126 L59.6331813,42.7397095 C57.8569097,44.4505388 55.0570983,44.4152283 53.3234749,42.6601332 C51.5898516,40.9050381 51.5549731,38.0705497 53.2448721,36.2722781 L67.0926421,22.2529969 L67.0950546,22.2529969 Z" id="Path" fill="#9B9B9D" opacity="0.56"></path>
            <path d="M53.2657307,1.35064067 C54.1263618,0.485846229 55.2936975,0 56.5108955,0 C57.7280935,0 58.8954292,0.485846229 59.7560603,1.35064067 L63,4.61229664 L25.1409693,42.6493593 C24.2803382,43.5141538 23.1130025,44 21.8958045,44 C20.6786065,44 19.5112708,43.5141538 18.6506397,42.6493593 L15.4067,39.390165 L53.2657307,1.35064067 Z M37.0411319,13.3067637 L30.5483522,19.827614 L21.8945795,11.1306853 L11.0773635,22.0012308 L19.7311363,30.6956979 L15.4067,39.390165 L1.34309426,25.2604252 C-0.447698086,23.4600948 -0.447698086,20.5423669 1.34309426,18.7420365 L18.6506397,1.3531023 C19.5113702,0.487554582 20.6792311,0.00123018321 21.8970296,0.00123018321 C23.1148281,0.00123018321 24.282689,0.487554582 25.1434194,1.3531023 L37.0411319,13.3067637 Z" id="Shape" fill="#FFFFFF" fill-rule="nonzero"></path>
        </g>
    </g>
</svg>