<svg width="24" height="24" xmlns="http://www.w3.org/2000/svg"><path d="M12 2.4c3.6 0 6.6 1.92 8.28 4.8H12c-2.28 0-4.32 1.68-4.68 3.84L4.44 6.12C6.24 3.84 8.88 2.4 12 2.4zm3.6 9.6c0 2.04-1.56 3.6-3.6 3.6S8.4 14.04 8.4 12 9.96 8.4 12 8.4s3.6 1.56 3.6 3.6zM2.4 12c0-1.8.48-3.36 1.32-4.8l4.2 7.2c.84 1.44 2.4 2.4 4.08 2.4.6 0 1.08-.12 1.56-.24l-2.88 4.92C6 20.88 2.4 16.8 2.4 12zm9.6 9.6l4.2-7.2c.36-.72.72-1.56.72-2.4 0-1.44-.6-2.76-1.68-3.6H21c.48 1.08.72 2.28.72 3.6-.12 5.28-4.44 9.6-9.72 9.6z" fill="#FFF" fill-rule="evenodd"/></svg>