<?xml version="1.0" encoding="UTF-8"?>
<svg width="24px" height="24px" viewBox="0 0 24 24" version="1.1" xmlns="http://www.w3.org/2000/svg" xmlns:xlink="http://www.w3.org/1999/xlink">
    <!-- Generator: Sketch 52.5 (67469) - http://www.bohemiancoding.com/sketch -->
    <title>Firefox white</title>
    <desc>Created with Sketch.</desc>
    <g id="Icons" stroke="none" stroke-width="1" fill="none" fill-rule="evenodd">
        <g id="Firefox-White" fill="#FFFFFF">
            <path d="M9.6117555,11.5680541 C9.46368422,11.4873656 9.33245863,11.4160766 9.20141615,11.3444823 C9.06457533,11.2696532 8.93182387,11.1852416 8.78912368,11.1239623 C8.73150649,11.0992431 8.6381227,11.1007079 8.58520522,11.1316527 C8.30645766,11.2945556 8.19378677,11.6109618 8.26605239,11.9838256 C8.42120376,12.7841796 9.42761244,13.6527098 10.2501222,13.6285399 C10.6711427,13.6162108 11.091797,13.4924926 11.5065919,13.3937377 C11.9125978,13.297058 12.3139039,13.2525023 12.7197877,13.3698729 C13.1307984,13.4887084 13.4835206,13.698181 13.7252198,14.0629882 C13.8097535,14.1906127 13.8352052,14.3328246 13.7433473,14.4664916 C13.6531373,14.5977172 13.5184327,14.6397093 13.3645631,14.5995482 C13.1160279,14.5346678 12.8870851,14.5964354 12.6667481,14.7046507 C12.4742433,14.7991942 12.279358,14.8913573 12.097107,15.0034178 C11.4700929,15.3889769 10.7875978,15.5319212 10.0612794,15.4786376 C9.76568616,15.456909 9.471985,15.409912 9.15869154,15.3721312 C9.63781751,16.1455077 10.2987672,16.6626585 11.1692506,16.8849486 C12.1487428,17.1350096 13.1037599,16.9845579 14.0043336,16.571411 C15.677002,15.8041991 16.6681519,14.4935912 16.9490357,12.6711425 C17.1428834,11.4131469 16.793335,10.3303222 15.8329468,9.46466057 C15.4752808,9.14221184 15.1230469,8.81335442 14.7797242,8.47583001 C14.6089478,8.30798333 14.4478761,8.12524408 14.3101197,7.92980951 C13.8480836,7.27441401 13.7471925,6.52990718 13.8143311,5.7525024 C13.8426515,5.42492672 13.8912354,5.09906003 13.9315186,4.76519772 C12.8606568,4.47326658 11.7783815,4.42370603 10.6860353,4.6203613 C9.5992433,4.81597897 8.60369887,5.22808834 7.68804947,5.88330074 C8.16046157,6.05108638 8.16107192,6.05187984 8.51629653,5.76806637 C9.21472182,5.21020504 10.0239259,5.07196042 10.8872682,5.14337155 C11.0283204,5.15502926 11.1677858,5.18566891 11.3531495,5.21453854 C11.2612916,5.27038571 11.2169191,5.29644772 11.173462,5.32403561 C10.4948732,5.75512691 9.9489137,6.3085937 9.60333265,7.04272456 C9.57446302,7.10406489 9.55725111,7.20013422 9.5850221,7.25421137 C9.75433363,7.58459467 10.0130617,7.80676263 10.3950197,7.85424798 C10.5499269,7.87353509 10.7066652,7.87915033 10.8607179,7.90307611 C11.1687013,7.95098871 11.4768678,8.00006097 11.7819825,8.06298822 C11.9562379,8.09893792 12.0394288,8.20452874 12.0097047,8.4039306 C11.9445802,8.84088128 11.6762086,9.11413567 11.3081056,9.30236809 C10.9034425,9.5093383 10.4932252,9.70703117 10.0763551,9.8878173 C9.8739015,9.97558585 9.86969007,10.0965575 9.90441907,10.2830199 C9.98980726,10.7416991 9.91937269,11.1738891 9.6117555,11.5680541 M15.7107545,2 L15.7497559,2 C15.805481,2.12335205 15.8469849,2.25579834 15.9191895,2.3685913 C16.2843629,2.93927001 16.7832032,3.38940428 17.2780762,3.84094236 C17.5548096,4.09338377 17.8452759,4.33074949 18.1240235,4.5701904 C18.2726441,4.25500486 18.4151001,3.95300291 18.5545655,3.65753172 C18.6741944,3.94427488 18.7610474,4.21929929 18.8986206,4.46600339 C19.1008911,4.82861325 19.3432007,5.1686401 19.5616455,5.52258297 C20.0662842,6.34051509 20.5963745,7.14477534 21.0606079,7.98522943 C21.5054932,8.79071038 21.7894287,9.66394035 21.8983765,10.5853881 C21.9341431,10.8875121 21.9661865,11.1901244 22,11.4924315 L22,12.5862426 C21.9747925,12.7910765 21.9487915,12.9957274 21.9244995,13.2006835 C21.7313232,14.8336791 21.1779175,16.3378905 20.227417,17.6759032 C18.3859253,20.2680662 15.87146,21.7117918 12.6945802,21.9686888 C11.0758058,22.0996092 9.50335707,21.8547972 8.03302017,21.1717527 C4.42828388,19.4971922 2.40527365,16.6698607 2.03479025,12.7008056 C1.8577883,10.8048705 2.35791036,9.0805053 3.4956667,7.5488891 C3.60974141,7.39538568 3.66479512,7.2384643 3.68035908,7.04998774 C3.75311299,6.17016597 3.98254414,5.33355709 4.44683857,4.57751462 C4.62359638,4.28955076 4.85443133,4.03479002 5.0910036,3.7250366 C5.28051776,4.78344724 5.38842791,5.10339352 5.64056414,5.3886108 C5.65197771,5.38360592 5.66528338,5.38073727 5.67431658,5.37292477 C5.71362322,5.33874508 5.75128191,5.30279538 5.79022234,5.26824948 C8.16223159,3.16040038 10.906006,2.43377685 14.011963,3.05902098 C14.2088624,3.09869384 14.4296876,3.23901366 14.5892945,3.18481444 C14.7556763,3.12835692 14.8551637,2.88708495 14.9952393,2.73718261 C15.229004,2.48706054 15.4717408,2.24530029 15.7107545,2" id="Path"></path>
        </g>
    </g>
</svg>