<svg width="24" height="24" viewbox="0 0 24 24" xmlns="http://www.w3.org/2000/svg">
  <g>
    <path
      d="M9.106 24c-.002-.466-.005-.914-.01-1.343-.006-.644-.01-1.206-.01-1.685l-.435.075c-.277.05-.628.073-1.05.066-.424-.005-.864-.05-1.32-.132-.454-.08-.877-.27-1.27-.567-.39-.296-.67-.685-.833-1.164l-.19-.437c-.126-.29-.325-.612-.597-.966-.272-.353-.547-.593-.825-.72l-.132-.094c-.09-.063-.17-.14-.247-.228-.076-.088-.133-.176-.17-.265-.038-.088-.007-.16.094-.218.102-.057.285-.084.55-.084l.38.056c.252.05.565.202.938.455.373.25.68.58.92.983.29.518.64.912 1.052 1.184.41.27.824.407 1.24.407.418 0 .78-.032 1.082-.095.303-.064.588-.16.853-.285.114-.846.424-1.496.93-1.95-.72-.076-1.37-.19-1.944-.342-.574-.15-1.168-.397-1.78-.738-.615-.34-1.123-.764-1.528-1.27-.404-.504-.736-1.167-.995-1.987-.26-.82-.39-1.768-.39-2.84 0-1.53.5-2.83 1.5-3.902-.468-1.15-.424-2.437.132-3.863.366-.114.91-.03 1.63.255.72.284 1.248.528 1.583.73.335.2.603.372.806.51 1.174-.327 2.388-.49 3.64-.49 1.25 0 2.464.163 3.64.49l.72-.453c.493-.304 1.075-.58 1.744-.834.67-.25 1.182-.32 1.537-.207.57 1.427.62 2.714.152 3.863C21.5 6.99 22 8.29 22 9.816c0 1.074-.13 2.024-.39 2.85-.258.828-.592 1.49-1.003 1.99-.41.498-.923.918-1.536 1.26-.612.34-1.207.586-1.782.737-.575.152-1.223.266-1.943.342.657.568.986 1.464.986 2.69V24H9.107z"></path>
  </g>
</svg>
