<svg height="24" viewBox="0 0 24 24" width="24" xmlns="http://www.w3.org/2000/svg"><path d="m14.7851348 3.3252135c.3050442.3050442.4057904.75916402.2583633 1.16458868l-2.327218 6.39984952h5.7984056c.6132285 0 1.1103484.4971198 1.1103484 1.1103483 0 .2944827-.1169828.5769041-.3252135.7851348l-7.8896517 7.8896517c-.433618.433618-1.1366517.433618-1.57026965 0-.3050442-.3050442-.40579038-.759164-.25836323-1.1645887l2.32721798-6.3998495h-5.79840566c-.61322845 0-1.11034834-.4971198-1.11034834-1.1103483 0-.2944827.11698279-.5769041.3252135-.7851348l7.8896517-7.8896517c.433618-.433618 1.1366516-.433618 1.5702696 0z" fill="#fff" fill-rule="evenodd"/></svg>