<svg width="24" height="24" xmlns="http://www.w3.org/2000/svg"><path d="M7.036 14.836a1.003 1.003 0 0 1-1.418 0l-.709-.709a6.518 6.518 0 1 1 9.218-9.218l.71.71a1.003 1.003 0 0 1 0 1.417l-.71.71a1.003 1.003 0 0 1-1.418 0L12 7.035A3.51 3.51 0 0 0 7.036 12l.71.71a1.003 1.003 0 0 1 0 1.417l-.71.71zm2.128 3.546a1.003 1.003 0 0 1 0-1.418l.709-.71a1.003 1.003 0 0 1 1.418 0l.709.71A3.51 3.51 0 0 0 16.964 12l-.71-.71a1.003 1.003 0 0 1 0-1.417l.71-.71a1.003 1.003 0 0 1 1.418 0l.709.71a6.518 6.518 0 1 1-9.218 9.218l-.71-.71zm0-9.218a1.504 1.504 0 0 1 2.127 0l3.545 3.545a1.504 1.504 0 0 1-2.127 2.127l-3.545-3.545a1.504 1.504 0 0 1 0-2.127z"/></svg>
