<svg height="24" viewBox="0 0 24 24" width="24" xmlns="http://www.w3.org/2000/svg"><path d="m17 5c2.209139 0 4 1.790861 4 4v6c0 2.209139-1.790861 4-4 4h-10c-2.209139 0-4-1.790861-4-4v-6c0-2.209139 1.790861-4 4-4zm1.9256705 3.81915204c-.3167775-.45240518-.9403233-.56235312-1.3927285-.2455756l-5.479942 3.83606626-5.47933782-3.83606626c-.45240518-.31677752-1.07595096-.20682958-1.39272848.2455756-.31677752.45240519-.20682958 1.07595097.2455756 1.39272846l6.0529534 4.2381806c.3443516.2411095.8027298.2411193 1.1470918.0000246l6.0535404-4.2382052c.4524052-.31677749.5623531-.94032327.2455756-1.39272846z" fill="#fff" fill-rule="evenodd"/></svg>