<?xml version="1.0" encoding="UTF-8"?>
<svg width="24px" height="24px" viewBox="0 0 24 24" version="1.1" xmlns="http://www.w3.org/2000/svg" xmlns:xlink="http://www.w3.org/1999/xlink">
    <!-- Generator: Sketch 52.5 (67469) - http://www.bohemiancoding.com/sketch -->
    <title>Medium</title>
    <desc>Created with Sketch.</desc>
    <g id="Icons" stroke="none" stroke-width="1" fill="none" fill-rule="evenodd">
        <g id="Medium" fill="#FFFFFF">
            <path d="M4.37161531,7.83904653 C4.39646379,7.59353536 4.30283969,7.35087487 4.11951447,7.18563655 L2.25210084,4.93603932 L2.25210084,4.5999999 L8.05042017,4.5999999 L12.5322129,14.4291529 L16.4724557,4.5999999 L22,4.5999999 L22,4.93603932 L20.4033614,6.46688557 C20.2657136,6.57180871 20.1974333,6.74425734 20.2259571,6.91493813 L20.2259571,18.1629243 C20.1974333,18.3336051 20.2657136,18.5060536 20.4033614,18.6109769 L21.9626518,20.1418231 L21.9626518,20.4778625 L14.1195145,20.4778625 L14.1195145,20.1418231 L15.7348273,18.5736391 C15.8935574,18.4149538 15.8935574,18.3682817 15.8935574,18.1255866 L15.8935574,9.03385337 L11.4024276,20.4405248 L10.7955182,20.4405248 L5.56676003,9.03385337 L5.56676003,16.6787501 C5.52316455,17.0001631 5.62991144,17.3237556 5.85620915,17.5561865 L7.95704948,20.1044854 L7.95704948,20.4405248 L2,20.4405248 L2,20.1044854 L4.10084034,17.5561865 C4.3254904,17.3233703 4.42601279,16.9976312 4.37161531,16.6787501 L4.37161531,7.83904653 Z" id="Shape"></path>
        </g>
    </g>
</svg>