<?xml version="1.0" encoding="UTF-8"?>
<svg width="24px" height="24px" viewBox="0 0 24 24" version="1.1" xmlns="http://www.w3.org/2000/svg" xmlns:xlink="http://www.w3.org/1999/xlink">
    <!-- Generator: Sketch 52.5 (67469) - http://www.bohemiancoding.com/sketch -->
    <title>Mobile</title>
    <desc>Created with Sketch.</desc>
    <g id="Icons" stroke="none" stroke-width="1" fill="none" fill-rule="evenodd">
        <g id="Mobile" fill="#FFFFFF">
            <path d="M9,2 L9,3 C9,3.55228475 9.44771525,4 10,4 L14,4 C14.5522847,4 15,3.55228475 15,3 L15,2 L16,2 C17.1045695,2 18,2.8954305 18,4 L18,20 C18,21.1045695 17.1045695,22 16,22 L8,22 C6.8954305,22 6,21.1045695 6,20 L6,4 C6,2.8954305 6.8954305,2 8,2 L9,2 Z M10,18 C9.44771525,18 9,18.4477153 9,19 C9,19.5522847 9.44771525,20 10,20 L14,20 C14.5522847,20 15,19.5522847 15,19 C15,18.4477153 14.5522847,18 14,18 L10,18 Z" id="Shape"></path>
        </g>
    </g>
</svg>