<svg height="24" viewBox="0 0 24 24" width="24" xmlns="http://www.w3.org/2000/svg"><path d="m15.1174758 13.9490878.3825242.3825243.3825242-.3825243c.1020257-.1020257.2101742-.1941971.3232626-.2765141l.1744732-.1158627.0790353-.0477529c1.0321827-.5868397 2.3682116-.4401298 3.2484711.4401297 1.0563115 1.0563115 1.0563115 2.7689308 0 3.8252422l-2.4359514 2.4359514c-.1496363.1496363-.2886302.2732305-.4214293.3758499-.273465.2105036-.5168576.3315026-.7719926.4088331-.3827025.1159957-.7740837.1159957-1.1567862 0-.3827025-.1159958-.7389845-.3302456-1.1934219-.784683l-2.4359514-2.4359514c-1.0563115-1.0563114-1.0563115-2.7689307 0-3.8252422 1.0563115-1.0563114 2.7689307-1.0563114 3.8252422 0zm-5.2394557-1.4142136c-1.83736016 1.8373601-1.83736016 4.8163094 0 6.6536694l.8417341.8412796c-1.38881622.0952472-3.46206762.4186395-6.2197542.9701768-.55228475 0-1-.4477153-1-1v-.5c0-3.7991252 3.01307854-6.938492 6.9211355-7.4323818-.1895418.1397261-.3713188.2954594-.5431154.467256zm2.1219799-1.5348742c-2.209139 0-4-1.790861-4-4s1.790861-4 4-4 4 1.790861 4 4-1.790861 4-4 4z" fill="#fff" fill-rule="evenodd"/></svg>