<svg height="24" viewBox="0 0 24 24" width="24" xmlns="http://www.w3.org/2000/svg"><path d="m4 8.5c6.3512746 0 11.5 5.1487254 11.5 11.5 0 .8284271-.6715729 1.5-1.5 1.5s-1.5-.6715729-1.5-1.5c0-4.6944204-3.80557963-8.5-8.5-8.5-.82842712 0-1.5-.6715729-1.5-1.5 0-.82842712.67157288-1.5 1.5-1.5zm0-6c9.6649831 0 17.5 7.8350169 17.5 17.5 0 .8284271-.6715729 1.5-1.5 1.5s-1.5-.6715729-1.5-1.5c0-8.0081289-6.4918711-14.5-14.5-14.5-.82842712 0-1.5-.67157288-1.5-1.5s.67157288-1.5 1.5-1.5zm2 12.5c1.65685425 0 3 1.3431458 3 3s-1.34314575 3-3 3-3-1.3431458-3-3 1.34314575-3 3-3z" fill="#fff" fill-rule="evenodd"/></svg>