<?xml version="1.0" encoding="UTF-8"?>
<svg width="24px" height="24px" viewBox="0 0 24 24" version="1.1" xmlns="http://www.w3.org/2000/svg" xmlns:xlink="http://www.w3.org/1999/xlink">
    <!-- Generator: Sketch 52.5 (67469) - http://www.bohemiancoding.com/sketch -->
    <title>Skate</title>
    <desc>Created with Sketch.</desc>
    <g id="Icons" stroke="none" stroke-width="1" fill="none" fill-rule="evenodd">
        <g id="Skate" fill="#FFFFFF">
            <path d="M16.0084849,11.9625706 L15.6224963,11.9968791 L9.24685516,11.9968791 L8.97343686,11.9910603 C9.2913607,12.4104115 9.47999987,12.9331762 9.47999987,13.5 C9.47999987,14.8807119 8.36071175,16 6.97999987,16 C5.599288,16 4.47999987,14.8807119 4.47999987,13.5 C4.47999987,12.8937734 4.69577717,12.3379443 5.05471876,11.9051257 C3.99289115,11.6378853 3.21486401,11.1943785 2.41702787,10.662452 C1.97223666,10.3955126 1.88320251,9.86179521 2.15014187,9.417004 C2.41708123,8.97221279 2.95079852,8.88328636 3.39553587,9.150118 C4.46302401,9.86179471 5.1547006,10.0889798 6.84493952,10 L17.1347756,10 C18.4691492,10 19.5366912,9.86179471 20.6041794,9.150118 C21.0490245,8.8832325 21.5827955,8.97221279 21.8496271,9.417004 C22.1165126,9.86179521 22.0275328,10.3955656 21.5826339,10.662505 C20.9653621,11.1034591 20.3479845,11.3695642 19.6439617,11.6341605 C20.1569893,12.0920014 20.4799999,12.7582791 20.4799999,13.5 C20.4799999,14.8807119 19.3607117,16 17.9799999,16 C16.599288,16 15.4799999,14.8807119 15.4799999,13.5 C15.4799999,12.9202672 15.6773291,12.3866231 16.0084849,11.9625706 Z M6.97999987,14.5 C7.535533,14.5 7.97999987,14.0555705 7.97999987,13.5 C7.97999987,12.9444295 7.53560028,12.5 6.97999987,12.5 C6.42439947,12.5 5.97999987,12.9444295 5.97999987,13.5 C5.97999987,14.0555705 6.42446674,14.5 6.97999987,14.5 Z M17.9799999,14.5 C18.535533,14.5 18.9799999,14.0555705 18.9799999,13.5 C18.9799999,12.9444295 18.5356003,12.5 17.9799999,12.5 C17.4243995,12.5 16.9799999,12.9444295 16.9799999,13.5 C16.9799999,14.0555705 17.4244667,14.5 17.9799999,14.5 Z" id="Shape"></path>
        </g>
    </g>
</svg>