<?xml version="1.0" encoding="UTF-8"?>
<svg width="24px" height="24px" viewBox="0 0 24 24" version="1.1" xmlns="http://www.w3.org/2000/svg" xmlns:xlink="http://www.w3.org/1999/xlink">
        <g id="Slack" fill-rule="nonzero">
            <path d="M6.2019544,14.6384365 C6.2019544,15.7947883 5.25732899,16.7394137 4.1009772,16.7394137 C2.94462541,16.7394137 2,15.7947883 2,14.6384365 C2,13.4820847 2.94462541,12.5374593 4.1009772,12.5374593 L6.2019544,12.5374593 L6.2019544,14.6384365 Z M7.26058632,14.6384365 C7.26058632,13.4820847 8.20521173,12.5374593 9.36156352,12.5374593 C10.5179153,12.5374593 11.4625407,13.4820847 11.4625407,14.6384365 L11.4625407,19.8990228 C11.4625407,21.0553746 10.5179153,22 9.36156352,22 C8.20521173,22 7.26058632,21.0553746 7.26058632,19.8990228 C7.26058632,19.8990228 7.26058632,14.6384365 7.26058632,14.6384365 Z M9.36156352,6.2019544 C8.20521173,6.2019544 7.26058632,5.25732899 7.26058632,4.1009772 C7.26058632,2.94462541 8.20521173,2 9.36156352,2 C10.5179153,2 11.4625407,2.94462541 11.4625407,4.1009772 L11.4625407,6.2019544 L9.36156352,6.2019544 Z M9.36156352,7.26058632 C10.5179153,7.26058632 11.4625407,8.20521173 11.4625407,9.36156352 C11.4625407,10.5179153 10.5179153,11.4625407 9.36156352,11.4625407 L4.1009772,11.4625407 C2.94462541,11.4625407 2,10.5179153 2,9.36156352 C2,8.20521173 2.94462541,7.26058632 4.1009772,7.26058632 C4.1009772,7.26058632 9.36156352,7.26058632 9.36156352,7.26058632 Z M17.7980456,9.36156352 C17.7980456,8.20521173 18.742671,7.26058632 19.8990228,7.26058632 C21.0553746,7.26058632 22,8.20521173 22,9.36156352 C22,10.5179153 21.0553746,11.4625407 19.8990228,11.4625407 L17.7980456,11.4625407 L17.7980456,9.36156352 Z M16.7394137,9.36156352 C16.7394137,10.5179153 15.7947883,11.4625407 14.6384365,11.4625407 C13.4820847,11.4625407 12.5374593,10.5179153 12.5374593,9.36156352 L12.5374593,4.1009772 C12.5374593,2.94462541 13.4820847,2 14.6384365,2 C15.7947883,2 16.7394137,2.94462541 16.7394137,4.1009772 L16.7394137,9.36156352 Z M14.6384365,17.7980456 C15.7947883,17.7980456 16.7394137,18.742671 16.7394137,19.8990228 C16.7394137,21.0553746 15.7947883,22 14.6384365,22 C13.4820847,22 12.5374593,21.0553746 12.5374593,19.8990228 L12.5374593,17.7980456 L14.6384365,17.7980456 Z M14.6384365,16.7394137 C13.4820847,16.7394137 12.5374593,15.7947883 12.5374593,14.6384365 C12.5374593,13.4820847 13.4820847,12.5374593 14.6384365,12.5374593 L19.8990228,12.5374593 C21.0553746,12.5374593 22,13.4820847 22,14.6384365 C22,15.7947883 21.0553746,16.7394137 19.8990228,16.7394137 L14.6384365,16.7394137 Z" id="Shape"></path>
        </g>
</svg>
