<?xml version="1.0" encoding="UTF-8"?>
<svg width="24px" height="24px" viewBox="0 0 24 24" version="1.1" xmlns="http://www.w3.org/2000/svg" xmlns:xlink="http://www.w3.org/1999/xlink">
    <!-- Generator: Sketch 52.5 (67469) - http://www.bohemiancoding.com/sketch -->
    <title>Slack</title>
    <desc>Created with Sketch.</desc>
    <g id="Icons" stroke="none" stroke-width="1" fill="none" fill-rule="evenodd">
        <g id="Slack" fill="#FFFFFF">
            <path d="M16.5632197,8.45717661 C16.9551273,9.6646653 17.3729544,10.9523707 17.7654209,12.1626074 L19.5609756,11.5772358 C20.4878049,11.2845528 21.4796748,11.7886179 21.7886179,12.7154472 C22.0813008,13.6422764 21.5772358,14.6341463 20.6504065,14.9430894 C20.6504065,14.9430894 19.9559283,15.1692173 18.8756079,15.5208621 L18.8780488,15.5284553 L18.858059,15.534882 C19.2160852,16.6414884 19.4471545,17.3585274 19.4471545,17.3658537 C19.7560976,18.2764228 19.1869919,19.2682927 18.2439024,19.5447154 C17.3495935,19.804878 16.4065041,19.3170732 16.097561,18.4552846 L15.5004204,16.6192367 C14.2896055,17.0131705 12.9984194,17.433136 11.7854186,17.827446 L11.7886179,17.8373984 C12.1443049,18.9384861 12.3739837,19.6512324 12.3739837,19.6585366 C12.6829268,20.5691057 12.1138211,21.5609756 11.1707317,21.8373984 C10.2764228,22.097561 9.33333333,21.6097561 9.02439024,20.7479675 L8.43121523,18.9241126 L8.42276423,18.9268293 L8.4206448,18.9202812 C7.31150819,19.2799932 6.59269701,19.5121951 6.58536585,19.5121951 C5.67479675,19.8211382 4.68292683,19.2520325 4.40650407,18.3089431 C4.14634146,17.4146341 4.63414634,16.4715447 5.49593496,16.1626016 L7.33409833,15.5633391 L7.33333333,15.5609756 L7.33702824,15.5597797 L6.12503447,11.8332223 C5.01764424,12.1915029 4.30001227,12.4227642 4.29268293,12.4227642 C3.38211382,12.7317073 2.3902439,12.1626016 2.11382114,11.2195122 C1.85365854,10.3252033 2.34146341,9.38211382 3.20325203,9.07317073 L5.03375627,8.47783313 L4.45528455,6.69918699 C4.16260163,5.77235772 4.66666667,4.7804878 5.59349593,4.47154472 C6.5203252,4.17886179 7.51219512,4.68292683 7.82113821,5.6097561 C7.82113821,5.6097561 8.04665643,6.30403005 8.39730969,7.38389965 L12.104652,6.17815523 L11.5284553,4.40650407 C11.2357724,3.4796748 11.7398374,2.48780488 12.6666667,2.17886179 C13.5934959,1.88617886 14.5853659,2.3902439 14.8943089,3.31707317 C14.8943089,3.31707317 15.1188534,4.00834944 15.4682087,5.08422069 L17.2520325,4.50406504 C18.1788618,4.21138211 19.1707317,4.71544715 19.4796748,5.64227642 C19.7723577,6.56910569 19.2682927,7.56097561 18.3414634,7.8699187 C18.3414634,7.8699187 17.6467386,8.09558336 16.5662681,8.44643171 L16.5691057,8.45528455 L16.5632197,8.45717661 Z M9.49004735,10.7498546 C9.88324948,11.9613316 10.3025426,13.2535564 10.6961369,14.4672757 L14.4070678,13.2574693 L13.1980034,9.53991886 C11.9908169,9.93172823 10.7036195,10.3493901 9.49392035,10.7416821 C9.49459184,10.743777 9.49526338,10.7458721 9.49593496,10.7479675 C9.49397223,10.7485966 9.49200969,10.7492256 9.49004735,10.7498546 Z" id="Shape"></path>
        </g>
    </g>
</svg>