<?xml version="1.0" encoding="UTF-8"?>
<svg width="24px" height="24px" viewBox="0 0 24 24" version="1.1" xmlns="http://www.w3.org/2000/svg" xmlns:xlink="http://www.w3.org/1999/xlink">
    <!-- Generator: Sketch 52.5 (67469) - http://www.bohemiancoding.com/sketch -->
    <title>Story</title>
    <desc>Created with Sketch.</desc>
    <g id="Icons" stroke="none" stroke-width="1" fill="none" fill-rule="evenodd">
        <g id="Story" fill="#FFFFFF">
            <path d="M16,5 L16,19 C16,20.1045695 15.1045695,21 14,21 L10,21 C8.8954305,21 8,20.1045695 8,19 L8,5 C8,3.8954305 8.8954305,3 10,3 L14,3 C15.1045695,3 16,3.8954305 16,5 Z M21,6 L21,18 C21,18.5522847 20.5522847,19 20,19 L19,19 C18.4477153,19 18,18.5522847 18,18 L18,6 C18,5.44771525 18.4477153,5 19,5 L20,5 C20.5522847,5 21,5.44771525 21,6 Z M6,6 L6,18 C6,18.5522847 5.55228475,19 5,19 L4,19 C3.44771525,19 3,18.5522847 3,18 L3,6 C3,5.44771525 3.44771525,5 4,5 L5,5 C5.55228475,5 6,5.44771525 6,6 Z" id="Shape"></path>
        </g>
    </g>
</svg>