<svg width="24" height="24" viewbox="0 0 24 24" xmlns="http://www.w3.org/2000/svg">
  <g>
    <path
      d="M7 12c0-2.757 2.243-5 5-5s5 2.243 5 5-2.243 5-5 5-5-2.243-5-5zm5-7.129A1.186 1.186 0 1 1 12 2.5a1.186 1.186 0 0 1 0 2.371zM12 21.5a1.185 1.185 0 1 1 0-2.37 1.185 1.185 0 0 1 0 2.37zm-8.314-8.314a1.186 1.186 0 1 1 0-2.372 1.186 1.186 0 0 1 0 2.372zm16.63 0a1.186 1.186 0 1 1 0-2.371 1.186 1.186 0 0 1 0 2.371zM6.12 7.306a1.186 1.186 0 1 1 0-2.37 1.186 1.186 0 0 1 0 2.37zm11.76 11.759a1.185 1.185 0 1 1 0-2.37 1.185 1.185 0 0 1 0 2.37zm-11.76 0a1.186 1.186 0 1 1 0-2.371 1.186 1.186 0 0 1 0 2.371zM17.88 7.306a1.186 1.186 0 1 1 0-2.371 1.186 1.186 0 0 1 0 2.371z"></path>
  </g>
</svg>
