<?xml version="1.0" encoding="UTF-8"?>
<svg width="24px" height="24px" viewBox="0 0 24 24" version="1.1" xmlns="http://www.w3.org/2000/svg" xmlns:xlink="http://www.w3.org/1999/xlink">
    <!-- Generator: Sketch 52.5 (67469) - http://www.bohemiancoding.com/sketch -->
    <title>Sun</title>
    <desc>Created with Sketch.</desc>
    <g id="Icons" stroke="none" stroke-width="1" fill="none" fill-rule="evenodd">
        <g id="Sun" fill="#FFFFFF">
            <path d="M6.73684211,12 C6.73684211,9.0978384 9.09792425,6.73684211 11.9998086,6.73684211 C14.9020758,6.73684211 17.2631579,9.0978384 17.2631579,12 C17.2631579,14.9021616 14.9020758,17.2631579 11.9998086,17.2631579 C9.09792425,17.2631579 6.73684211,14.9021616 6.73684211,12 Z M12.0004607,4.49585406 C11.3112496,4.49585406 10.7525336,3.9371381 10.7525336,3.24792703 C10.7525336,2.55871596 11.3112496,2 12.0004607,2 C12.6896717,2 13.2483877,2.55871596 13.2483877,3.24792703 C13.2483877,3.9371381 12.6896717,4.49585406 12.0004607,4.49585406 Z M12,22 C11.3110433,22 10.7525336,21.4414903 10.7525336,20.7525336 C10.7525336,20.063577 11.3110433,19.5050673 12,19.5050673 C12.6889567,19.5050673 13.2474664,20.063577 13.2474664,20.7525336 C13.2474664,21.4414903 12.6889567,22 12,22 Z M3.24792703,13.247927 C2.55871596,13.247927 2,12.6892111 2,12 C2,11.3107889 2.55871596,10.752073 3.24792703,10.752073 C3.9371381,10.752073 4.49585406,11.3107889 4.49585406,12 C4.49585406,12.6892111 3.9371381,13.247927 3.24792703,13.247927 Z M20.7529943,13.2483877 C20.0637832,13.2483877 19.5050673,12.6896717 19.5050673,12.0004607 C19.5050673,11.3112496 20.0637832,10.7525336 20.7529943,10.7525336 C21.4422054,10.7525336 22.0009213,11.3112496 22.0009213,12.0004607 C22.0009213,12.6896717 21.4422054,13.2483877 20.7529943,13.2483877 Z M5.81103741,7.0594251 C5.12182634,7.0594251 4.56311037,6.50070913 4.56311037,5.81149807 C4.56311037,5.122287 5.12182634,4.56357103 5.81103741,4.56357103 C6.50024847,4.56357103 7.05896444,5.122287 7.05896444,5.81149807 C7.05896444,6.50070913 6.50024847,7.0594251 5.81103741,7.0594251 Z M18.1889626,19.436429 C17.5000059,19.436429 16.9414962,18.8779192 16.9414962,18.1889626 C16.9414962,17.5000059 17.5000059,16.9414962 18.1889626,16.9414962 C18.8779192,16.9414962 19.436429,17.5000059 19.436429,18.1889626 C19.436429,18.8779192 18.8779192,19.436429 18.1889626,19.436429 Z M5.81149807,19.4368896 C5.122287,19.4368896 4.56357103,18.8781737 4.56357103,18.1889626 C4.56357103,17.4997515 5.122287,16.9410356 5.81149807,16.9410356 C6.50070913,16.9410356 7.0594251,17.4997515 7.0594251,18.1889626 C7.0594251,18.8781737 6.50070913,19.4368896 5.81149807,19.4368896 Z M18.1894233,7.05896444 C17.5002122,7.05896444 16.9414962,6.50024847 16.9414962,5.81103741 C16.9414962,5.12182634 17.5002122,4.56311037 18.1894233,4.56311037 C18.8786343,4.56311037 19.4373503,5.12182634 19.4373503,5.81103741 C19.4373503,6.50024847 18.8786343,7.05896444 18.1894233,7.05896444 Z" id="Shape"></path>
        </g>
    </g>
</svg>