<?xml version="1.0" encoding="UTF-8"?>
<svg width="24px" height="24px" viewBox="0 0 24 24" version="1.1" xmlns="http://www.w3.org/2000/svg" xmlns:xlink="http://www.w3.org/1999/xlink">
    <!-- Generator: Sketch 52.5 (67469) - http://www.bohemiancoding.com/sketch -->
    <title>Terminal</title>
    <desc>Created with Sketch.</desc>
    <g id="Terminal" stroke="none" stroke-width="1" fill="none" fill-rule="evenodd">
        <path d="M2,7 C2,4.790861 3.790861,3 6,3 L18,3 C20.209139,3 22,4.790861 22,7 L22,17 C22,19.209139 20.209139,21 18,21 L6,21 C3.790861,21 2,19.209139 2,17 L2,7 Z M13.9992272,15 C13.4473692,15 13,15.4473692 13,15.9992272 C13,16.5510851 13.4473692,16.9984543 13.9992272,16.9984543 L17.0007728,16.9984543 C17.5526308,16.9984543 18,16.5510851 18,15.9992272 C18,15.4473692 17.5526308,15 17.0007728,15 L13.9992272,15 Z M8.82842712,12 L6.70656031,14.1218668 C6.31633782,14.5120893 6.31633782,15.1447649 6.70656031,15.5349874 C7.09682694,15.9252541 7.72953647,15.9253763 8.11995389,15.5352605 L10.2426407,13.4142136 L10.949202,12.7065601 C11.3394242,12.3157339 11.3389345,11.6825691 10.9481083,11.292347 L10.2415477,10.5868794 L8.11968092,8.46501257 C7.72945843,8.07479009 7.09678279,8.07479009 6.70656031,8.46501257 C6.31633782,8.85523505 6.31633782,9.4879107 6.70656031,9.87813318 L8.82842712,12 Z" id="Shape" fill="#FFFFFF"></path>
    </g>
</svg>