<?xml version="1.0" encoding="UTF-8"?>
<svg width="24px" height="24px" viewBox="0 0 24 24" version="1.1" xmlns="http://www.w3.org/2000/svg" xmlns:xlink="http://www.w3.org/1999/xlink">
    <!-- Generator: Sketch 52.5 (67469) - http://www.bohemiancoding.com/sketch -->
    <title>Toilet close</title>
    <desc>Created with Sketch.</desc>
    <g id="Icons" stroke="none" stroke-width="1" fill="none" fill-rule="evenodd">
        <g id="Toilet/Close" fill="#FFFFFF">
            <path d="M8.12261848,11.4476765 C7.31701199,11.2595642 6.69037416,10.5832736 6.5916738,9.72974505 L6.0134837,4.72974505 C5.88659901,3.63248753 6.67324162,2.64012421 7.77049913,2.51323952 C7.84676323,2.50442049 7.92347187,2.5 8.00024418,2.5 L15.9999429,2.5 C17.1045124,2.5 17.9999429,3.3954305 17.9999429,4.5 C17.9999429,4.57677232 17.9955224,4.65348095 17.9867034,4.72974505 L17.4085132,9.72974505 C17.3098102,10.5832972 16.6831405,11.2596015 15.8775019,11.447692 L15.8078819,11.9472658 C17.3849036,12.368894 18.5,13.0886172 18.5,14.1064355 C18.5,16.6044133 16.9964394,18.2979859 14.8176427,19.0529446 L14.7361066,20.638025 C14.6672385,21.1322028 14.2446312,21.5 13.7456778,21.5 L10.2544448,21.5 C9.75549137,21.5 9.33288407,21.1322028 9.26401602,20.638025 L9.18248611,19.0529892 C7.00361987,18.2980526 5.5,16.6044625 5.5,14.1064355 C5.5,13.0885918 6.61515209,12.368858 8.19223628,11.9472342 L8.12261848,11.4476765 Z M8.84202014,4.06030738 C8.32304224,3.87141487 7.74919989,4.13900195 7.56030738,4.65797986 C7.37141487,5.17695776 7.63900195,5.75080011 8.15797986,5.93969262 L10.0373651,6.62373291 C10.556343,6.81262542 11.1301854,6.54503833 11.3190779,6.02606043 C11.5079704,5.50708253 11.2403833,4.93324018 10.7214054,4.74434767 L8.84202014,4.06030738 Z" id="Combined-Shape"></path>
        </g>
    </g>
</svg>