<svg width="24" height="24" xmlns="http://www.w3.org/2000/svg"><path d="M8.123 11.448A2 2 0 0 1 6.592 9.73l-.579-5A2 2 0 0 1 8 2.5h8a2 2 0 0 1 1.987 2.23l-.578 5a2 2 0 0 1-1.531 1.718l-.07.5c1.577.42 2.692 1.14 2.692 2.158 0 2.498-1.504 4.192-3.682 4.947l-.082 1.585a1 1 0 0 1-.99.862h-3.492a1 1 0 0 1-.99-.862l-.082-1.585C7.004 18.298 5.5 16.604 5.5 14.106c0-1.017 1.115-1.737 2.692-2.159l-.07-.5zM12 15c2.485 0 4.5-.448 4.5-1s-2.015-1-4.5-1-4.5.448-4.5 1 2.015 1 4.5 1zM8.5 4a1 1 0 1 0 0 2h2a1 1 0 0 0 0-2h-2z"/></svg>