<?xml version="1.0" encoding="UTF-8"?>
<svg width="24px" height="24px" viewBox="0 0 24 24" version="1.1" xmlns="http://www.w3.org/2000/svg" xmlns:xlink="http://www.w3.org/1999/xlink">
    <!-- Generator: Sketch 52.5 (67469) - http://www.bohemiancoding.com/sketch -->
    <title>User</title>
    <desc>Created with Sketch.</desc>
    <g id="Icons" stroke="none" stroke-width="1" fill="none" fill-rule="evenodd">
        <g id="User" fill="#FFFFFF">
            <path d="M19,21 L16,20.5 L16.7856572,16.1788854 C16.7963888,16.1198615 16.8017873,16.0599916 16.8017873,16 C16.8017873,15.4477153 16.354072,15 15.8017873,15 L8.19821272,15 C8.13822112,15 8.07835121,15.0053985 8.01932728,15.0161301 C7.47595093,15.1149258 7.11554711,15.6355091 7.21434281,16.1788854 L8,20.5 L5,21 C4.44771525,21 4,20.5522847 4,20 L4,19.5 C4,15.3578644 7.581722,12 12,12 C16.418278,12 20,15.3578644 20,19.5 L20,20 C20,20.5522847 19.5522847,21 19,21 Z M12,19 C11.4477153,19 11,18.5522847 11,18 C11,17.4477153 11.4477153,17 12,17 C12.5522847,17 13,17.4477153 13,18 C13,18.5522847 12.5522847,19 12,19 Z M12,11 C9.790861,11 8,9.209139 8,7 C8,4.790861 9.790861,3 12,3 C14.209139,3 16,4.790861 16,7 C16,9.209139 14.209139,11 12,11 Z" id="Shape"></path>
        </g>
    </g>
</svg>