<?xml version="1.0" encoding="UTF-8"?>
<svg width="24px" height="24px" viewBox="0 0 24 24" version="1.1" xmlns="http://www.w3.org/2000/svg" xmlns:xlink="http://www.w3.org/1999/xlink">
    <!-- Generator: Sketch 52.5 (67469) - http://www.bohemiancoding.com/sketch -->
    <title>User</title>
    <desc>Created with Sketch.</desc>
    <g id="Icons" stroke="none" stroke-width="1" fill="none" fill-rule="evenodd">
        <g id="Daily-User" fill="#FFFFFF">
            <path d="M19,21 L16,20.5 L16.7856572,16.1788854 C16.7963888,16.1198615 16.8017873,16.0599916 16.8017873,16 C16.8017873,15.4477153 16.354072,15 15.8017873,15 L8.19821272,15 C8.13822112,15 8.07835121,15.0053985 8.01932728,15.0161301 C7.47595093,15.1149258 7.11554711,15.6355091 7.21434281,16.1788854 L8,20.5 L5,21 C4.44771525,21 4,20.5522847 4,20 L4,19.5 C4,15.3578644 7.581722,12 12,12 C16.418278,12 20,15.3578644 20,19.5 L20,20 C20,20.5522847 19.5522847,21 19,21 Z M12,11 C9.790861,11 8,9.209139 8,7 C8,4.790861 9.790861,3 12,3 C14.209139,3 16,4.790861 16,7 C16,9.209139 14.209139,11 12,11 Z" id="Shape"></path>
            <g id="Logo" transform="translate(8.000000, 14.000000)">
                <g id="Secound" opacity="0.56" stroke-width="1" transform="translate(5.000000, 2.400000)">
                    <path d="M1.29582093,1.60274284 L0.589326783,0.896248694 L0.942389767,0.19 L2.09030468,1.33791492 C2.23656511,1.48417534 2.23656511,1.72131033 2.09030468,1.86757076 L0.677439123,3.28043632 C0.531178702,3.42669674 0.294043705,3.42669674 0.147783284,3.28043632 C0.00152286285,3.1341759 0.00152286285,2.8970409 0.147783284,2.75078048 L1.29582093,1.60274284 Z" id="Combined-Shape"></path>
                </g>
                <path d="M5.14804655,2.32366464 C5.29430697,2.17740422 5.53150333,2.17746558 5.67776375,2.323726 L5.94265303,2.58861528 L2.85221672,5.6790516 C2.70595629,5.82531202 2.46875994,5.82525066 2.32249951,5.67899024 L2.05761023,5.41410096 L5.14804655,2.32366464 Z M3.82353878,3.2949867 L3.29376021,3.82476527 L2.58726607,3.11827112 L1.70417907,4.00135812 L2.41067322,4.70785226 L2.05761023,5.41410096 L0.909695316,4.26618604 C0.763434895,4.11992562 0.763434895,3.88279062 0.909695316,3.7365302 L2.32249951,2.323726 C2.46875994,2.17746558 2.70595629,2.17740422 2.85221672,2.32366464 L3.82353878,3.2949867 Z" id="Main"></path>
            </g>
        </g>
    </g>
</svg>