<svg width="24" height="24" xmlns="http://www.w3.org/2000/svg" xmlns:xlink="http://www.w3.org/1999/xlink"><defs><path d="M16.122 20.266l.781-4.684A.5.5 0 0 0 16.41 15H7.59a.5.5 0 0 0-.493.582l.78 4.684c-.859.11-1.719.256-2.578.436a1 1 0 0 1-1.199-1.09C4.662 14.539 7.296 12 12 12c4.704 0 7.338 2.538 7.9 7.613a1 1 0 0 1-1.199 1.089c-.86-.18-1.719-.326-2.579-.436zM12 19a1 1 0 1 1 0-2 1 1 0 0 1 0 2zm0-8a4 4 0 1 1 0-8 4 4 0 0 1 0 8z" id="a"/></defs><use fill="#000" xlink:href="#a" fill-rule="evenodd"/></svg>
