<svg width="24" height="24" xmlns="http://www.w3.org/2000/svg" xmlns:xlink="http://www.w3.org/1999/xlink"><defs><circle id="a" cx="10" cy="10" r="10"/><linearGradient x1="4.547%" y1="62.056%" x2="36.948%" y2="33.661%" id="c"><stop stop-color="#A52714" stop-opacity=".6" offset="0%"/><stop stop-color="#A52714" stop-opacity="0" offset="66%"/></linearGradient><linearGradient x1="83.873%" y1="87.776%" x2="36.313%" y2="66.355%" id="d"><stop stop-color="#055524" stop-opacity=".4" offset="0%"/><stop stop-color="#055524" stop-opacity="0" offset="33%"/></linearGradient><path id="e" d="M0 18.182h9.52l4.418-4.418v-3.31H6.064L0 .055z"/><linearGradient x1="32.625%" y1="-4.841%" x2="48.553%" y2="45.414%" id="g"><stop stop-color="#EA6100" stop-opacity=".3" offset="0%"/><stop stop-color="#EA6100" stop-opacity="0" offset="66%"/></linearGradient><path id="h" d="M.568 0l3.938 6.818-4.418 7.727h10.48V0z"/><radialGradient cx="-4.872%" cy="-.248%" fx="-4.872%" fy="-.248%" r="401.327%" gradientTransform="matrix(.26722 0 0 1 -.036 0)" id="j"><stop stop-color="#3E2723" stop-opacity=".2" offset="0%"/><stop stop-color="#3E2723" stop-opacity="0" offset="100%"/></radialGradient><path id="k" d="M.11 0v4.584l4.476 7.689 3.937-6.818h10V0z"/><radialGradient cx="-.157%" cy=".104%" fx="-.157%" fy=".104%" r="136.321%" gradientTransform="matrix(1 0 0 .84752 0 0)" id="m"><stop stop-color="#3E2723" stop-opacity=".2" offset="0%"/><stop stop-color="#3E2723" stop-opacity="0" offset="100%"/></radialGradient><radialGradient cx="10.33%" cy="-12.215%" fx="10.33%" fy="-12.215%" r="226.352%" gradientTransform="matrix(1 0 0 .49642 0 -.062)" id="n"><stop stop-color="#263238" stop-opacity=".2" offset="0%"/><stop stop-color="#263238" stop-opacity="0" offset="100%"/></radialGradient><radialGradient cx="14.935%" cy="13.644%" fx="14.935%" fy="13.644%" r="100.426%" id="o"><stop stop-color="#FFF" stop-opacity=".1" offset="0%"/><stop stop-color="#FFF" stop-opacity="0" offset="100%"/></radialGradient></defs><g transform="translate(2 2)" fill="none" fill-rule="evenodd"><mask id="b" fill="#fff"><use xlink:href="#a"/></mask><g mask="url(#b)" fill-rule="nonzero"><path fill="#DB4437" d="M1.588 0v12.273h4.476L10 5.455h10V0z"/><path fill="url(#c)" d="M.11 0v12.273h4.476l3.937-6.818h10V0z" transform="translate(1.477)"/></g><path fill-opacity=".15" fill="#3E2723" fill-rule="nonzero" mask="url(#b)" d="M6.172 12.233L1.645 4.47l-.065.114 4.493 7.705z"/><g mask="url(#b)" fill-rule="nonzero"><path fill="#0F9D58" d="M0 20h9.52l4.418-4.418v-3.31H6.064L0 1.873z"/><path fill="url(#d)" d="M0 18.182h9.52l4.418-4.418v-3.31H6.064L0 .055z" transform="translate(0 1.818)"/></g><path fill-opacity=".15" fill="#263238" fill-rule="nonzero" mask="url(#b)" d="M13.845 12.424l-.094-.055L9.39 20h.13l4.33-7.573z"/><g mask="url(#b)"><g transform="translate(0 1.818)"><mask id="f" fill="#fff"><use xlink:href="#e"/></mask><g mask="url(#f)" fill-rule="nonzero"><path fill="#FFCD40" d="M10 3.636l3.937 6.819-4.418 7.727H20V3.636z"/><path fill="url(#g)" d="M.568 0l3.938 6.818-4.418 7.727h10.48V0z" transform="translate(9.432 3.636)"/></g></g></g><g mask="url(#b)" fill-rule="nonzero"><path fill="#FFCD40" d="M10 5.455l3.937 6.818L9.52 20H20V5.455z"/><path fill="url(#g)" d="M.568 0l3.938 6.818-4.418 7.727h10.48V0z" transform="translate(9.432 5.455)"/></g><g mask="url(#b)"><g transform="translate(9.432 5.455)"><mask id="i" fill="#fff"><use xlink:href="#h"/></mask><g mask="url(#i)" fill-rule="nonzero"><path fill="#DB4437" d="M-7.844-5.455V6.818h4.476L.568 0h10v-5.455z"/><path fill="url(#c)" d="M.11 0v12.273h4.476l3.937-6.818h10V0z" transform="translate(-7.955 -5.455)"/></g></g></g><path fill="url(#j)" fill-rule="nonzero" mask="url(#b)" d="M10 5.455v2.38l8.91-2.38z"/><g mask="url(#b)"><g transform="translate(1.477)"><mask id="l" fill="#fff"><use xlink:href="#k"/></mask><g mask="url(#l)" fill-rule="nonzero"><path fill="#0F9D58" d="M-1.477 20h9.519l4.418-4.418v-3.31H4.586l-6.063-10.4z"/><path fill="url(#d)" d="M0 18.182h9.52l4.418-4.418v-3.31H6.064L0 .055z" transform="translate(-1.477 1.818)"/></g></g></g><path fill="url(#m)" fill-rule="nonzero" mask="url(#b)" d="M1.587 4.597L8.094 11.1l-2.03 1.172z"/><path fill="url(#n)" fill-rule="nonzero" mask="url(#b)" d="M9.526 19.988l2.382-8.887 2.03 1.172z"/><g mask="url(#b)" fill-rule="nonzero"><g transform="translate(5.455 5.455)"><circle fill="#F1F1F1" cx="4.545" cy="4.545" r="4.545"/><circle fill="#4285F4" cx="4.545" cy="4.545" r="3.636"/></g></g><g mask="url(#b)" fill-rule="nonzero"><path d="M10 5.34a4.546 4.546 0 0 0-4.545 4.546V10A4.546 4.546 0 0 1 10 5.455h10V5.34H10z" fill-opacity=".2" fill="#3E2723"/><path d="M13.932 12.273A4.541 4.541 0 0 1 10 14.545a4.542 4.542 0 0 1-3.933-2.272h-.005L0 1.873v.113l6.064 10.4h.004a4.539 4.539 0 1 0 7.865 0h.006v-.113h-.007z" fill-opacity=".1" fill="#FFF"/><path d="M10.114 5.455c-.02 0-.038.002-.057.003a4.543 4.543 0 0 1 0 9.084c.02 0 .037.003.057.003a4.546 4.546 0 0 0 0-9.09z" fill="#3E2723" opacity=".1"/><path d="M13.977 12.424a4.514 4.514 0 0 0 .398-3.642 4.514 4.514 0 0 1-.44 3.488l.002.004L9.52 20h.132l4.329-7.573-.003-.004z" fill-opacity=".2" fill="#FFF"/></g><g mask="url(#b)" fill-rule="nonzero"><path d="M10 .114c5.503 0 9.968 4.446 9.999 9.943L20 10c0-5.523-4.477-10-10-10S0 4.477 0 10l.001.057C.031 4.56 4.497.114 10 .114z" fill-opacity=".2" fill="#FFF"/><path d="M10 19.886c5.503 0 9.968-4.446 9.999-9.943L20 10c0 5.523-4.477 10-10 10S0 15.523 0 10l.001-.057c.03 5.497 4.496 9.943 9.999 9.943z" fill-opacity=".15" fill="#3E2723"/></g><circle fill="url(#o)" fill-rule="nonzero" cx="10" cy="10" r="10"/></g></svg>