<svg width="24" height="24" xmlns="http://www.w3.org/2000/svg"><g fill="none" fill-rule="evenodd"><path d="M2 3.35h19.86v15.796c0 .745-.611 1.354-1.356 1.354H3.355A1.359 1.359 0 0 1 2 19.146V3.35zm7.674 1.805a.902.902 0 1 0 0 1.806h4.511a.902.902 0 1 0 0-1.806H9.674z" fill="#EEE"/><path d="M8.207 20.5H3.355v-1.354c0-1.706.499-3.297 1.36-4.634l.002.004 3.49 5.984z" fill="#0D9D59"/><path d="M11.93 10.572a8.569 8.569 0 0 0-7.213 3.937v.007l3.49 5.984h.065a3.9 3.9 0 0 1 3.658-5.252h7.64a8.577 8.577 0 0 0-7.64-4.676" fill="#DB4437"/><path d="M19.57 15.247h-7.64a3.9 3.9 0 0 1 3.657 5.252h4.811a8.61 8.61 0 0 0-.829-5.252" fill="#FFCD40"/><path d="M15.049 19.146c0 .485-.11.945-.309 1.354H9.12a3.12 3.12 0 1 1 5.93-1.353" fill="#4285F4"/><path d="M14.185 6.96H9.674a.902.902 0 1 1 0-1.805h4.511a.902.902 0 1 1 0 1.806zM2 11.926h19.86V3.35H2v8.575z" fill-opacity=".04" fill="#000"/><path fill-opacity=".02" fill="#212121" d="M2 11.925H21.86v-.112H2z"/><path fill-opacity=".08" fill="#FFF" d="M2 12.038H21.86v-.113H2z"/><path d="M20.505 20.387H3.355C2.61 20.387 2 19.778 2 19.033v.113c0 .745.61 1.354 1.354 1.354h17.15c.744 0 1.354-.609 1.354-1.354v-.113c0 .745-.61 1.354-1.354 1.354M9.673 5.156h4.513a.9.9 0 0 1 .9.846c0-.02.003-.037.003-.057a.902.902 0 0 0-.903-.902H9.673a.903.903 0 0 0-.899.959.9.9 0 0 1 .9-.846" fill-opacity=".085" fill="#231F20"/><path d="M2 3.463H21.86V3.35H2v.113zm7.673 3.498a.901.901 0 0 1-.9-.846.902.902 0 0 0 .9.96l4.513-.001a.902.902 0 0 0 .9-.96.9.9 0 0 1-.9.847H9.673z" fill-opacity=".04" fill="#212121"/></g></svg>