<?xml version="1.0" encoding="UTF-8"?>
<svg width="24px" height="24px" viewBox="0 0 24 24" version="1.1" xmlns="http://www.w3.org/2000/svg" xmlns:xlink="http://www.w3.org/1999/xlink">
    <!-- Generator: Sketch 53.2 (72643) - https://sketchapp.com -->
    <title>Slack</title>
    <desc>Created with Sketch.</desc>
    <g id="Icons" stroke="none" stroke-width="1" fill="none" fill-rule="evenodd">
        <g id="Slack" fill-rule="nonzero">
            <g id="Slack_Mark" transform="translate(2.000000, 2.000000)">
                <g id="Group" transform="translate(0.000000, 10.483871)" fill="#E01E5A">
                    <path d="M4.25806452,2.12903226 C4.25806452,3.27419355 3.32258065,4.20967742 2.17741935,4.20967742 C1.03225806,4.20967742 0.0967741935,3.27419355 0.0967741935,2.12903226 C0.0967741935,0.983870968 1.03225806,0.0483870968 2.17741935,0.0483870968 L4.25806452,0.0483870968 L4.25806452,2.12903226 Z" id="Path"></path>
                    <path d="M5.30645161,2.12903226 C5.30645161,0.983870968 6.24193548,0.0483870968 7.38709677,0.0483870968 C8.53225806,0.0483870968 9.46774194,0.983870968 9.46774194,2.12903226 L9.46774194,7.33870968 C9.46774194,8.48387097 8.53225806,9.41935484 7.38709677,9.41935484 C6.24193548,9.41935484 5.30645161,8.48387097 5.30645161,7.33870968 L5.30645161,2.12903226 Z" id="Path"></path>
                </g>
                <g id="Group" fill="#36C5F0">
                    <path d="M7.38709677,4.25806452 C6.24193548,4.25806452 5.30645161,3.32258065 5.30645161,2.17741935 C5.30645161,1.03225806 6.24193548,0.0967741935 7.38709677,0.0967741935 C8.53225806,0.0967741935 9.46774194,1.03225806 9.46774194,2.17741935 L9.46774194,4.25806452 L7.38709677,4.25806452 Z" id="Path"></path>
                    <path d="M7.38709677,5.30645161 C8.53225806,5.30645161 9.46774194,6.24193548 9.46774194,7.38709677 C9.46774194,8.53225806 8.53225806,9.46774194 7.38709677,9.46774194 L2.17741935,9.46774194 C1.03225806,9.46774194 0.0967741935,8.53225806 0.0967741935,7.38709677 C0.0967741935,6.24193548 1.03225806,5.30645161 2.17741935,5.30645161 L7.38709677,5.30645161 Z" id="Path"></path>
                </g>
                <g id="Group" transform="translate(10.483871, 0.000000)" fill="#2EB67D">
                    <path d="M5.25806452,7.38709677 C5.25806452,6.24193548 6.19354839,5.30645161 7.33870968,5.30645161 C8.48387097,5.30645161 9.41935484,6.24193548 9.41935484,7.38709677 C9.41935484,8.53225806 8.48387097,9.46774194 7.33870968,9.46774194 L5.25806452,9.46774194 L5.25806452,7.38709677 Z" id="Path"></path>
                    <path d="M4.20967742,7.38709677 C4.20967742,8.53225806 3.27419355,9.46774194 2.12903226,9.46774194 C0.983870968,9.46774194 0.0483870968,8.53225806 0.0483870968,7.38709677 L0.0483870968,2.17741935 C0.0483870968,1.03225806 0.983870968,0.0967741935 2.12903226,0.0967741935 C3.27419355,0.0967741935 4.20967742,1.03225806 4.20967742,2.17741935 L4.20967742,7.38709677 Z" id="Path"></path>
                </g>
                <g id="Group" transform="translate(10.483871, 10.483871)" fill="#ECB22E">
                    <path d="M2.12903226,5.25806452 C3.27419355,5.25806452 4.20967742,6.19354839 4.20967742,7.33870968 C4.20967742,8.48387097 3.27419355,9.41935484 2.12903226,9.41935484 C0.983870968,9.41935484 0.0483870968,8.48387097 0.0483870968,7.33870968 L0.0483870968,5.25806452 L2.12903226,5.25806452 Z" id="Path"></path>
                    <path d="M2.12903226,4.20967742 C0.983870968,4.20967742 0.0483870968,3.27419355 0.0483870968,2.12903226 C0.0483870968,0.983870968 0.983870968,0.0483870968 2.12903226,0.0483870968 L7.33870968,0.0483870968 C8.48387097,0.0483870968 9.41935484,0.983870968 9.41935484,2.12903226 C9.41935484,3.27419355 8.48387097,4.20967742 7.33870968,4.20967742 L2.12903226,4.20967742 Z" id="Path"></path>
                </g>
            </g>
        </g>
    </g>
</svg>